<?xml version="1.0" encoding="UTF-8" standalone="no"?>
<!DOCTYPE svg  PUBLIC '-//W3C//DTD SVG 1.1//EN'  'http://www.w3.org/Graphics/SVG/1.1/DTD/svg11.dtd'>
<svg xmlns="http://www.w3.org/2000/svg" xmlns:xlink="http://www.w3.org/1999/xlink" version="1.1">
<defs>
<font id="Germano-Regular" horiz-adv-x="819">
<font-face underline-position="-307" font-weight="300" descent="-410" panose-1="2 11 3 6 3 5 4 2 2 4" units-per-em="2048" unicode-range="U+0020-FFFD" font-stretch="condensed" bbox="-1038 -512 1985 2132" x-height="1085" underline-thickness="102" font-family="Germano" ascent="1638" cap-height="1462"/>
<missing-glyph d="M293 90h643v1282h-643v-1282zM195 1462h839v-1462h-839v1462z" horiz-adv-x="1229"/>
<glyph glyph-name="ff" horiz-adv-x="915" unicode="ff" d="M885 1001h-170v-1001h-94v1001h-138v54l138 41v82q0 207 49 298t170 91q71 0 127 -25l-33 -88q-51 25 -96 25q-48 0 -74 -29q-25 -28 -37 -94q-12 -64 -12 -180v-91h170v-84zM422 1001h-170v-1001h-94v1001h-138v54l138 41v82q0 207 49 298t170 91q71 0 127 -25l-33 -88 q-51 25 -96 25q-48 0 -74 -29q-25 -28 -37 -94q-12 -64 -12 -180v-91h170v-84z"/>
<glyph glyph-name="uniFB01" horiz-adv-x="838" unicode="fi" d="M584 1386q0 44 18 70q18 25 48 25q27 0 43 -25t16 -70q0 -44 -16 -69t-43 -25q-30 0 -48 25t-18 69zM693 0h-95v1085h95v-1085zM422 1001h-170v-1001h-94v1001h-138v54l138 41v82q0 207 49 298t170 91q71 0 127 -25l-33 -88q-51 25 -96 25q-48 0 -74 -29q-25 -28 -37 -94 q-12 -64 -12 -180v-91h170v-84z"/>
<glyph glyph-name="uniFB02" horiz-adv-x="838" unicode="fl" d="M693 0h-95v1556h95v-1556zM422 1001h-170v-1001h-94v1001h-138v54l138 41v82q0 207 49 298t170 91q71 0 127 -25l-33 -88q-51 25 -96 25q-48 0 -74 -29q-25 -28 -37 -94q-12 -64 -12 -180v-91h170v-84z"/>
<glyph glyph-name="uniFB03" horiz-adv-x="1303" unicode="ffi" d="M1049 1386q0 43 19 70q18 25 47 25q27 0 43 -25t16 -70q0 -44 -16 -69t-43 -25q-29 0 -47 25q-19 27 -19 69zM1158 0h-95v1085h95v-1085zM891 1001h-170v-1001h-94v1001h-138v54l138 41v82q0 207 49 298t170 91q71 0 127 -25l-33 -88q-51 25 -96 25q-48 0 -74 -29 q-25 -28 -37 -94q-12 -64 -12 -180v-91h170v-84zM422 1001h-170v-1001h-94v1001h-138v54l138 41v82q0 207 49 298t170 91q71 0 127 -25l-33 -88q-51 25 -96 25q-48 0 -74 -29q-25 -28 -37 -94q-12 -64 -12 -180v-91h170v-84z"/>
<glyph glyph-name="uniFB04" horiz-adv-x="1303" unicode="ffl" d="M1158 0h-95v1556h95v-1556zM891 1001h-170v-1001h-94v1001h-138v54l138 41v82q0 207 49 298t170 91q71 0 127 -25l-33 -88q-51 25 -96 25q-48 0 -74 -29q-25 -28 -37 -94q-12 -64 -12 -180v-91h170v-84zM422 1001h-170v-1001h-94v1001h-138v54l138 41v82q0 207 49 298 t170 91q71 0 127 -25l-33 -88q-51 25 -96 25q-48 0 -74 -29q-25 -28 -37 -94q-12 -64 -12 -180v-91h170v-84z"/>
<glyph glyph-name=".notdef" d="M293 90h643v1282h-643v-1282zM195 1462h839v-1462h-839v1462z" horiz-adv-x="1229"/>
<glyph glyph-name=".null" horiz-adv-x="0"/>
<glyph glyph-name="nonmarkingreturn" horiz-adv-x="1044"/>
<glyph glyph-name="space" horiz-adv-x="385" unicode=" "/>
<glyph glyph-name="exclam" horiz-adv-x="451" unicode="!" d="M147 90q0 107 78 107q33 0 55 -24q23 -25 23 -83q0 -57 -23 -82q-22 -24 -55 -24q-78 0 -78 106zM252 367h-55l-35 1095h125z"/>
<glyph glyph-name="quotedbl" horiz-adv-x="686" unicode='&quot;' d="M553 1462l-29 -528h-61l-33 528h123zM256 1462l-29 -528h-61l-33 528h123z"/>
<glyph glyph-name="numbersign" horiz-adv-x="868" unicode="#" d="M295 557h233l47 399h-235zM653 956l-45 -399h174v-90h-184l-53 -467h-82l55 467h-233l-54 -467h-77l51 467h-168v90h178l45 399h-178v86h188l47 420h82l-49 -420h236l49 420h76l-47 -420h165v-86h-176z"/>
<glyph glyph-name="dollar" d="M201 1055q0 -96 39 -150q38 -53 127 -96v469q-75 -17 -121 -79q-45 -61 -45 -144zM629 438q0 86 -42 141q-44 58 -138 97v-453q83 20 131 78q49 59 49 137zM367 123q-175 0 -273 53v103q55 -31 126 -47q77 -17 147 -17v494q-147 61 -205 139t-58 201q0 124 74 213 q74 88 189 108v186h82v-182q141 -5 258 -61l-37 -86q-117 54 -221 57v-508q151 -61 215 -139q63 -77 63 -193q0 -122 -75 -208t-203 -107v-248h-82v242z" unicode="$"/>
<glyph glyph-name="percent" horiz-adv-x="1208" unicode="%" d="M1114 440q0 -224 -54 -342t-151 -118q-98 0 -149 121t-51 339q0 229 51 343t149 114q100 0 152 -117q53 -118 53 -340zM799 442q0 -191 25 -284q26 -95 87 -95q59 0 86 93t27 286q0 377 -117 377q-60 0 -84 -93t-24 -284zM885 1462l-475 -1462h-88l475 1462h88zM500 1026 q0 -220 -54 -340q-54 -121 -151 -121q-99 0 -150 120t-51 341q0 223 50 339q51 118 151 118q101 0 153 -117q52 -116 52 -340zM184 1028q0 -188 26 -284q26 -95 87 -95q60 0 87 93q26 90 26 286q0 377 -117 377q-59 0 -84 -93q-25 -91 -25 -284z"/>
<glyph glyph-name="ampersand" horiz-adv-x="834" unicode="&amp;" d="M461 1194q0 199 -105 199q-46 0 -71 -51q-25 -50 -25 -148q0 -87 24 -183q24 -94 64 -161q65 67 89 152q24 86 24 192zM162 354q0 -138 47 -208q48 -72 127 -72q73 0 131 46q60 48 113 142l-254 455q-96 -90 -130 -168t-34 -195zM727 0l-98 178q-75 -112 -142 -154 q-70 -44 -159 -44q-122 0 -192 99q-70 98 -70 277q0 92 22 162q23 74 65 132q46 64 132 138q-76 141 -97 222q-22 85 -22 194q0 132 52 205q53 74 142 74q90 0 143 -76q52 -74 52 -213q0 -136 -38 -235q-37 -96 -126 -185l236 -422q57 118 57 293h94q0 -93 -29 -204 t-69 -181l156 -260h-109z"/>
<glyph glyph-name="quotesingle" horiz-adv-x="389" unicode="&apos;" d="M256 1462l-29 -528h-61l-33 528h123z"/>
<glyph glyph-name="parenleft" horiz-adv-x="565" unicode="(" d="M104 561q0 259 78 495q78 235 219 406h80q-134 -199 -203 -429q-69 -231 -69 -470q0 -240 73 -479q72 -234 197 -408h-78q-144 168 -220 397q-77 231 -77 488z"/>
<glyph glyph-name="parenright" horiz-adv-x="565" unicode=")" d="M461 561q0 -260 -76 -489q-75 -228 -221 -396h-78q130 183 200 415t70 472q0 238 -69 469q-68 229 -203 430h80q144 -171 220 -407q77 -239 77 -494z"/>
<glyph glyph-name="asterisk" horiz-adv-x="745" unicode="*" d="M434 1556l-28 -249l231 57l14 -107l-227 -8l156 -227l-97 -45l-108 237l-117 -239l-92 47l149 227l-221 6l17 107l229 -55l-27 249h121z"/>
<glyph glyph-name="plus" d="M369 682h-310v82h310v434h82v-434h309v-82h-309v-432h-82v432z" unicode="+"/>
<glyph glyph-name="comma" horiz-adv-x="422" unicode="," d="M307 182q-67 -229 -166 -446h-63q74 252 100 469h115z"/>
<glyph glyph-name="hyphen" horiz-adv-x="516" unicode="-" d="M53 502v102h410v-102h-410z"/>
<glyph glyph-name="period" horiz-adv-x="422" unicode="." d="M133 90q0 107 78 107q33 0 55 -24q23 -25 23 -83q0 -57 -23 -82q-22 -24 -55 -24q-78 0 -78 106z"/>
<glyph glyph-name="slash" horiz-adv-x="713" unicode="/" d="M674 1462l-522 -1462h-101l527 1462h96z"/>
<glyph glyph-name="zero" d="M190 733q0 -332 52 -495q52 -164 166 -164q219 0 219 659q0 656 -219 656q-114 0 -166 -162q-52 -160 -52 -494zM729 733q0 -371 -81 -562t-240 -191q-170 0 -245 176q-75 177 -75 577q0 750 320 750q166 0 244 -186q77 -184 77 -564z" unicode="0"/>
<glyph glyph-name="one" d="M512 0h-96v1075q0 121 8 283q-20 -27 -98 -105l-125 -114l-51 63l282 260h80v-1462z" unicode="1"/>
<glyph glyph-name="two" d="M729 0h-655v78l295 446q136 206 183 332q46 123 46 279q0 118 -61 188t-166 70q-71 0 -120 -20q-51 -21 -104 -62l-53 75q70 52 135 75q63 22 148 22q151 0 235 -94q84 -95 84 -254q0 -109 -24 -207q-24 -96 -69 -190q-47 -97 -148 -242l-269 -398v-8h543v-90z" unicode="2"/>
<glyph glyph-name="three" d="M696 1137q0 -135 -59 -232q-58 -95 -178 -139v-8q124 -27 192 -122t68 -241q0 -189 -96 -302t-263 -113t-276 53v108q125 -73 276 -73q122 0 190 89t68 242q0 147 -79 229q-80 83 -234 83h-74v92h80q129 0 208 90q79 89 79 235q0 127 -56 196q-57 71 -159 71 q-68 0 -123 -23q-56 -23 -123 -86l-61 64q72 71 147 102q74 31 158 31q143 0 229 -95t86 -251z" unicode="3"/>
<glyph glyph-name="four" d="M541 422v706q0 115 8 238h-6l-74 -188l-332 -756h404zM793 332h-156v-332h-96v332h-504v84l479 1063h121v-1057h156v-90z" unicode="4"/>
<glyph glyph-name="five" d="M365 788q-102 0 -207 -30l-49 63l43 641h495v-94h-414l-36 -514q92 20 174 20q164 0 260 -109t96 -300q0 -221 -105 -353t-280 -132q-156 0 -244 55v110q110 -77 240 -77q133 0 211 109t78 284q0 165 -70 245q-71 82 -192 82z" unicode="5"/>
<glyph glyph-name="six" d="M424 74q99 0 152 92t53 278q0 178 -52 272q-53 95 -155 95q-100 0 -160 -81q-61 -82 -61 -206q0 -123 29 -233q28 -106 78 -162q49 -55 116 -55zM100 623q0 438 107 649t317 211q76 0 127 -23v-96q-57 25 -135 25q-144 0 -225 -166q-82 -166 -92 -482h8q34 75 93 119 q58 43 136 43q136 0 214 -121q79 -123 79 -333q0 -219 -83 -344t-224 -125q-158 0 -240 165q-82 164 -82 478z" unicode="6"/>
<glyph glyph-name="seven" d="M195 0l454 1368h-592v94h691v-82l-451 -1380h-102z" unicode="7"/>
<glyph glyph-name="eight" d="M410 1393q-94 0 -148 -67q-55 -69 -55 -187q0 -103 45 -180t158 -152q110 65 159 147t49 185q0 119 -54 187q-54 67 -154 67zM174 348q0 -126 66 -202t174 -76q107 0 170 79q63 80 63 218q0 179 -207 321l-49 33q-121 -77 -169 -162q-48 -84 -48 -211zM412 1483 q139 0 223 -90t84 -246q0 -243 -240 -385q108 -73 160 -128q53 -56 82 -123t29 -149q0 -167 -92 -274q-93 -108 -236 -108q-154 0 -252 102q-98 103 -98 268q0 125 54 224t191 188q-211 162 -211 381q0 150 86 245t220 95z" unicode="8"/>
<glyph glyph-name="nine" d="M395 1389q-99 0 -155 -92q-58 -95 -58 -279q0 -178 52 -272q53 -95 155 -95q100 0 161 85q60 84 60 225q0 128 -26 225q-27 101 -75 152t-114 51zM711 858q0 -438 -109 -657q-110 -221 -321 -221q-40 0 -79 7q-40 7 -57 15v96q55 -24 144 -24q145 0 229 168 q83 167 94 479h-8q-34 -75 -93 -119q-58 -43 -136 -43q-137 0 -215 123t-78 332q0 218 84 344q83 125 235 125q153 0 231 -161q79 -164 79 -464z" unicode="9"/>
<glyph glyph-name="colon" horiz-adv-x="422" unicode=":" d="M133 981q0 106 78 106t78 -106q0 -56 -23 -82q-22 -25 -55 -25q-78 0 -78 107zM133 90q0 107 78 107q33 0 55 -24q23 -25 23 -83q0 -57 -23 -82q-22 -24 -55 -24q-78 0 -78 106z"/>
<glyph glyph-name="semicolon" horiz-adv-x="422" unicode=";" d="M307 182q-67 -229 -166 -446h-63q74 252 100 469h115zM133 981q0 106 78 106t78 -106q0 -56 -23 -82q-22 -25 -55 -25q-78 0 -78 107z"/>
<glyph glyph-name="less" d="M762 287l-703 403v68l703 399v-100l-600 -334l600 -334v-102z" unicode="&lt;"/>
<glyph glyph-name="equal" d="M59 465v82h701v-82h-701zM59 895v82h701v-82h-701z" unicode="="/>
<glyph glyph-name="greater" d="M57 389l600 334l-600 334v100l703 -399v-68l-703 -403v102z" unicode="&gt;"/>
<glyph glyph-name="question" horiz-adv-x="578" unicode="?" d="M156 90q0 107 77 107q33 0 55 -24q23 -25 23 -83q0 -56 -23 -81t-55 -25q-77 0 -77 106zM190 367v51q0 118 20 188q21 74 79 160q87 131 115 214q26 77 26 173q0 115 -46 178q-45 62 -124 62q-58 0 -97 -16q-44 -18 -81 -44l-47 76q100 74 225 74q129 0 200 -83 q70 -82 70 -241q0 -122 -31 -202q-33 -85 -128 -228q-60 -91 -83 -157q-24 -69 -24 -169v-36h-74z"/>
<glyph glyph-name="at" horiz-adv-x="1233" unicode="@" d="M496 584q0 -258 104 -258q44 0 70 83q26 84 35 257l16 305q-29 8 -72 8q-74 0 -113 -100q-40 -103 -40 -295zM1130 735q0 -504 -225 -504q-83 0 -119 54q-37 55 -38 153h-9q-17 -109 -54 -158t-103 -49q-88 0 -136 93q-49 95 -49 264q0 473 262 473q86 0 164 -29 l-20 -477v-61q0 -91 27 -130q26 -38 75 -38q68 0 98 102q29 99 29 313q0 194 -47 336q-48 146 -134 226q-87 81 -198 81q-133 0 -236 -99t-159 -279q-55 -178 -55 -410q0 -325 103 -508q102 -182 284 -182q66 0 128 20q57 18 97 49v-94q-48 -30 -104 -46q-54 -15 -127 -15 q-231 0 -352 194t-121 566q0 274 66 476q66 201 190 309q125 108 288 108q137 0 247 -93q110 -94 169 -262q59 -169 59 -383z"/>
<glyph glyph-name="A" horiz-adv-x="813" unicode="A" d="M561 629l-129 545q-22 103 -31 174q-9 -91 -28 -174l-125 -545h313zM713 0l-129 530h-355l-127 -530h-102l352 1462h101l360 -1462h-100z"/>
<glyph glyph-name="B" horiz-adv-x="907" unicode="B" d="M258 721v-631h225q242 0 242 328q0 146 -71 225q-70 78 -199 78h-197zM258 811h184q136 0 195 76t59 229q0 123 -65 190q-65 66 -191 66h-182v-561zM160 1462h280q172 0 264 -88q93 -88 93 -260q0 -297 -217 -340v-8q124 -25 186 -112q61 -85 61 -238q0 -196 -87 -306 t-244 -110h-336v1462z"/>
<glyph glyph-name="C" horiz-adv-x="860" unicode="C" d="M573 1391q-164 0 -262 -175t-98 -483q0 -201 45 -350q45 -150 129 -229q85 -80 195 -80q112 0 196 41v-90q-78 -45 -205 -45q-138 0 -243 90t-162 261t-57 404q0 350 125 550t339 200q133 0 234 -62l-45 -86q-84 54 -191 54z"/>
<glyph glyph-name="D" horiz-adv-x="995" unicode="D" d="M782 739q0 310 -91 471q-92 162 -269 162h-164v-1282h156q191 0 279 166q89 167 89 483zM885 745q0 -745 -465 -745h-260v1462h266q226 0 342 -182q117 -183 117 -535z"/>
<glyph glyph-name="E" horiz-adv-x="788" unicode="E" d="M690 0h-530v1462h530v-94h-432v-555h408v-94h-408v-625h432v-94z"/>
<glyph glyph-name="F" horiz-adv-x="729" unicode="F" d="M258 0h-98v1462h532v-94h-434v-620h410v-95h-410v-653z"/>
<glyph glyph-name="G" horiz-adv-x="1075" unicode="G" d="M641 737h320v-692q-168 -65 -347 -65q-239 0 -371 200t-132 555t137 552q136 196 383 196q167 0 313 -94l-47 -86q-137 88 -266 88q-205 0 -311 -169q-105 -168 -105 -489q0 -314 107 -487q106 -172 301 -172q141 0 239 37v532h-221v94z"/>
<glyph glyph-name="H" horiz-adv-x="1026" unicode="H" d="M866 0h-98v719h-510v-719h-98v1462h98v-649h510v649h98v-1462z"/>
<glyph glyph-name="I" horiz-adv-x="418" unicode="I" d="M160 0v1462h98v-1462h-98z"/>
<glyph glyph-name="J" horiz-adv-x="401" unicode="J" d="M27 -369q-68 0 -117 25v92q51 -20 115 -20q62 0 94 58q31 56 31 189v1487h98v-1485q0 -171 -56 -259q-56 -87 -165 -87z"/>
<glyph glyph-name="K" horiz-adv-x="825" unicode="K" d="M825 0h-110l-344 729l-113 -149v-580h-98v1462h98v-774q51 96 432 774h107l-367 -643z"/>
<glyph glyph-name="L" horiz-adv-x="711" unicode="L" d="M160 0v1462h98v-1368h412v-94h-510z"/>
<glyph glyph-name="M" horiz-adv-x="1395" unicode="M" d="M641 0l-389 1331h-8q10 -200 10 -266v-1065h-94v1462h145l328 -1118q43 -148 57 -252h8q12 82 62 250l325 1120h150v-1462h-98v1057q0 72 10 272h-8l-387 -1329h-111z"/>
<glyph glyph-name="N" horiz-adv-x="1090" unicode="N" d="M930 0h-125l-553 1311h-8q12 -137 12 -262v-1049h-96v1462h127l549 -1296h6q-8 174 -8 274v1022h96v-1462z"/>
<glyph glyph-name="O" horiz-adv-x="1065" unicode="O" d="M213 733q0 -325 81 -492t238 -167t238 165q82 167 82 494q0 325 -80 491q-80 165 -237 165q-160 0 -241 -167q-81 -168 -81 -489zM954 733q0 -363 -108 -558t-314 -195q-207 0 -314 197t-107 558q0 379 106 563q107 185 318 185q204 0 311 -194q108 -195 108 -556z"/>
<glyph glyph-name="P" horiz-adv-x="840" unicode="P" d="M258 694h98q172 0 244 81t72 267q0 179 -74 254q-75 76 -231 76h-109v-678zM772 1042q0 -225 -104 -332q-103 -106 -306 -106h-104v-604h-98v1462h200q214 0 313 -101t99 -319z"/>
<glyph glyph-name="Q" horiz-adv-x="1065" unicode="Q" d="M213 733q0 -327 81 -493t238 -166t238 165q82 167 82 494q0 325 -80 491q-80 165 -237 165q-160 0 -241 -167q-81 -168 -81 -489zM893 -348h-125l-186 332l-50 -4q-208 0 -314 196q-107 197 -107 559q0 379 106 563q107 185 318 185q203 0 311 -195t108 -555 q0 -293 -70 -476q-71 -186 -204 -247z"/>
<glyph glyph-name="R" horiz-adv-x="870" unicode="R" d="M258 729h137q133 0 205 82q72 83 72 244q0 164 -74 238q-73 73 -231 73h-109v-637zM258 639v-639h-98v1462h200q214 0 313 -101t99 -302q0 -153 -54 -250q-54 -98 -181 -147l290 -662h-110l-273 639h-186z"/>
<glyph glyph-name="S" horiz-adv-x="809" unicode="S" d="M721 383q0 -181 -100 -291q-101 -112 -254 -112q-175 0 -281 51v106q56 -30 129 -46q79 -17 152 -17q112 0 184 85t72 216q0 121 -51 192q-52 72 -195 142q-115 58 -169 111q-57 55 -83 124q-27 70 -27 170q0 107 44 192t123 131t173 46q87 0 154 -19q74 -21 110 -41 l-38 -94q-111 57 -226 57q-108 0 -176 -74q-67 -73 -67 -194q0 -124 49 -191q50 -67 192 -141q146 -71 216 -168q69 -96 69 -235z"/>
<glyph glyph-name="T" horiz-adv-x="711" unicode="T" d="M403 0h-98v1368h-291v94h680v-94h-291v-1368z"/>
<glyph glyph-name="U" horiz-adv-x="1012" unicode="U" d="M864 1462v-987q0 -495 -354 -495q-177 0 -270 128q-93 127 -93 367v987h99v-999q0 -191 68 -289q70 -100 196 -100t191 100t65 293v995h98z"/>
<glyph glyph-name="V" horiz-adv-x="799" unicode="V" d="M698 1462h101l-346 -1462h-109l-344 1462h102l238 -1028q27 -112 37 -174q9 -56 18 -139q6 44 17 114q9 57 18 95q22 97 268 1132z"/>
<glyph glyph-name="W" horiz-adv-x="1395" unicode="W" d="M1284 1462h100l-311 -1462h-119l-223 1094q-7 32 -35 239l-14 -95l-23 -142l-219 -1096h-116l-314 1462h103l206 -1007q49 -254 62 -344q22 159 57 340l205 1011h111l204 -1007q34 -179 46 -270l10 -74q28 209 57 344z"/>
<glyph glyph-name="X" horiz-adv-x="715" unicode="X" d="M694 0h-102l-219 672l-254 -672h-99l306 776l-263 686h103l217 -608l211 608h100l-258 -708z"/>
<glyph glyph-name="Y" horiz-adv-x="686" unicode="Y" d="M344 707l238 755h104l-295 -891v-571h-98v571l-293 891h104z"/>
<glyph glyph-name="Z" horiz-adv-x="643" unicode="Z" d="M602 0h-545v88l424 1278h-418v96h527v-90l-430 -1278h442v-94z"/>
<glyph glyph-name="bracketleft" horiz-adv-x="645" unicode="[" d="M571 -324h-397v1786h397v-90h-303v-1605h303v-91z"/>
<glyph glyph-name="backslash" horiz-adv-x="713" unicode="\" d="M147 1462l527 -1462h-101l-522 1462h96z"/>
<glyph glyph-name="bracketright" horiz-adv-x="645" unicode="]" d="M74 -233h303v1605h-303v90h397v-1786h-397v91z"/>
<glyph glyph-name="asciicircum" d="M37 758l338 702h67l340 -702h-102l-270 590l-273 -590h-100z" unicode="^"/>
<glyph glyph-name="underscore" horiz-adv-x="842" unicode="_" d="M846 -266h-850v82h850v-82z"/>
<glyph glyph-name="grave" horiz-adv-x="1126" unicode="`" d="M702 1241q-59 48 -148 148q-83 93 -120 163v17h125q27 -62 83 -152q57 -91 108 -155v-21h-48z"/>
<glyph glyph-name="a" horiz-adv-x="784" unicode="a" d="M334 61q101 0 158 101q57 100 57 284v113l-113 -6q-133 -8 -194 -72q-64 -67 -64 -192q0 -117 42 -173q42 -55 114 -55zM565 0l-12 152h-4q-78 -172 -236 -172q-105 0 -170 85t-65 226q0 156 93 246q94 91 261 98l117 6v90q0 151 -38 221t-126 70q-93 0 -190 -61l-41 75 q112 70 237 70q135 0 193 -84q59 -85 59 -283v-739h-78z"/>
<glyph glyph-name="b" horiz-adv-x="893" unicode="b" d="M477 1016q-125 0 -181 -110t-56 -361v-25q0 -454 241 -454q111 0 165 117t54 362q0 233 -53 353q-52 118 -170 118zM481 1104q318 0 318 -559q0 -278 -79 -421q-80 -144 -228 -144q-78 0 -142 43t-106 127h-8l-13 -150h-78v1556h95v-483l-4 -131h8q86 162 237 162z"/>
<glyph glyph-name="c" horiz-adv-x="635" unicode="c" d="M424 -20q-163 0 -246 142q-82 140 -82 415q0 277 84 423t246 146q101 0 168 -37l-37 -84q-66 31 -123 31q-239 0 -239 -477q0 -473 239 -473q70 0 154 32v-80q-31 -17 -81 -28q-46 -10 -83 -10z"/>
<glyph glyph-name="d" horiz-adv-x="893" unicode="d" d="M416 63q113 0 175 106t62 310v62q0 247 -60 361t-181 114q-117 0 -168 -122q-51 -123 -51 -355t53 -355q52 -121 170 -121zM410 -20q-316 0 -316 561q0 278 79 421q79 144 233 144q72 0 138 -42t105 -116h8l-4 121v487h95v-1556h-78l-8 152h-9q-39 -83 -101 -128 q-60 -44 -142 -44z"/>
<glyph glyph-name="e" horiz-adv-x="803" unicode="e" d="M410 1020q-196 0 -215 -391h417q0 179 -54 285t-148 106zM453 -20q-172 0 -264 146q-93 147 -93 409q0 277 83 425q82 146 237 146q136 0 213 -128q78 -129 78 -347v-88h-514q1 -235 67 -355q64 -118 197 -118q103 0 215 67v-92q-104 -65 -219 -65z"/>
<glyph glyph-name="f" horiz-adv-x="453" unicode="f" d="M422 1001h-170v-1001h-94v1001h-138v54l138 41v82q0 207 49 298t170 91q71 0 127 -25l-33 -88q-51 25 -96 25q-48 0 -74 -29q-25 -28 -37 -94q-12 -64 -12 -180v-91h170v-84z"/>
<glyph glyph-name="g" horiz-adv-x="741" unicode="g" d="M188 731q0 -134 49 -202t130 -68q174 0 174 280q0 135 -45 211t-129 76q-87 0 -133 -78q-46 -77 -46 -219zM129 -195q0 -104 53 -161q54 -58 162 -58q135 0 212 70q79 71 79 192q0 97 -54 151t-155 54h-70q-98 0 -163 -69q-64 -68 -64 -179zM713 1085v-67l-148 -17 q29 -37 49 -112q19 -70 19 -148q0 -159 -72 -256q-72 -98 -188 -98h-24l-21 2q-52 -37 -76 -68q-27 -35 -27 -79q0 -46 36 -72q35 -25 97 -25h68q146 0 225 -75q80 -75 80 -217q0 -159 -108 -252t-283 -93q-148 0 -226 74q-79 75 -79 215q0 103 52 174q54 74 163 115 q-52 24 -81 61q-30 39 -30 93q0 49 32 87q34 40 93 83q-84 38 -126 123t-42 200q0 173 73 273t200 100q67 0 114 -21h230z"/>
<glyph glyph-name="h" horiz-adv-x="870" unicode="h" d="M635 0v748q0 148 -38 208q-39 62 -126 62q-114 0 -173 -102q-58 -101 -58 -322v-594h-95v1556h95v-505q0 -74 -4 -115h8q32 81 96 126q63 44 135 44q137 0 196 -90q58 -89 58 -268v-748h-94z"/>
<glyph glyph-name="i" horiz-adv-x="385" unicode="i" d="M131 1386q0 43 19 70q18 25 47 25q27 0 43 -25t16 -70q0 -43 -16 -68q-17 -26 -43 -26q-29 0 -47 26q-19 27 -19 68zM240 0h-95v1085h95v-1085z"/>
<glyph glyph-name="j" horiz-adv-x="385" unicode="j" d="M131 1386q0 43 19 70q18 25 47 25q27 0 43 -25t16 -70q0 -43 -16 -68q-17 -26 -43 -26q-29 0 -47 26q-19 27 -19 68zM63 -492q-41 0 -67 17v90q31 -16 63 -16q47 0 67 45q19 44 19 141v1300h95v-1286q0 -150 -43 -220q-44 -71 -134 -71z"/>
<glyph glyph-name="k" horiz-adv-x="711" unicode="k" d="M242 537l61 110l268 438h103l-250 -399l272 -686h-100l-236 598l-120 -158v-440h-95v1556h95v-837l-7 -182h9z"/>
<glyph glyph-name="l" horiz-adv-x="385" unicode="l" d="M240 0h-95v1556h95v-1556z"/>
<glyph glyph-name="m" horiz-adv-x="1303" unicode="m" d="M1067 0v739q0 273 -160 273q-111 0 -159 -96t-48 -281v-635h-94v739q0 138 -39 205q-39 68 -121 68q-107 0 -157 -98q-49 -97 -49 -318v-596h-95v1085h80l8 -151h9q64 172 221 172q89 0 142 -48q52 -48 75 -140q39 100 96 144q58 44 148 44q123 0 180 -94t57 -303v-709 h-94z"/>
<glyph glyph-name="n" horiz-adv-x="870" unicode="n" d="M635 0v748q0 270 -160 270q-122 0 -179 -101q-56 -99 -56 -321v-596h-95v1085h80l8 -151h9q35 83 98 127q64 45 137 45q126 0 189 -84t63 -272v-750h-94z"/>
<glyph glyph-name="o" horiz-adv-x="850" unicode="o" d="M193 545q0 -234 56 -355q55 -120 175 -120q233 0 233 475q0 471 -233 471q-122 0 -176 -118q-55 -121 -55 -353zM756 545q0 -275 -86 -419q-87 -146 -248 -146q-160 0 -244 146t-84 419q0 561 332 561q156 0 243 -147t87 -414z"/>
<glyph glyph-name="p" horiz-adv-x="893" unicode="p" d="M475 1016q-119 0 -177 -105q-58 -104 -58 -329v-31q0 -250 59 -368q59 -117 180 -117q112 0 166 116q55 119 55 363q0 235 -51 353t-174 118zM494 -20q-81 0 -150 46q-68 45 -102 124h-9l7 -119v-523h-95v1577h78l10 -149h9q41 84 102 126q64 44 137 44q318 0 318 -561 q0 -271 -78 -418t-227 -147z"/>
<glyph glyph-name="q" horiz-adv-x="893" unicode="q" d="M420 66q110 0 172 109q61 107 61 317v49q0 249 -59 361q-60 114 -182 114q-117 0 -168 -122q-51 -123 -51 -355q0 -246 55 -361q54 -112 172 -112zM406 -20q-150 0 -232 139q-80 136 -80 422q0 287 84 426t232 139q157 0 239 -166h8l15 145h76v-1577h-95v469q0 67 9 181 h-9q-85 -178 -247 -178z"/>
<glyph glyph-name="r" horiz-adv-x="559" unicode="r" d="M446 1106q50 0 95 -14l-23 -95q-36 15 -74 15q-55 0 -103 -57q-47 -55 -74 -157q-27 -100 -27 -223v-575h-95v1085h78l10 -190h7q76 211 206 211z"/>
<glyph glyph-name="s" horiz-adv-x="645" unicode="s" d="M571 272q0 -137 -72 -215q-71 -77 -208 -77q-76 0 -130 19q-55 19 -87 42v111q38 -38 98 -60t125 -22q84 0 132 55t48 147q0 71 -35 121q-36 52 -131 113q-111 70 -151 112q-43 44 -64 94q-22 51 -22 124q0 117 79 193q80 77 201 77q130 0 219 -62l-49 -83 q-82 55 -174 55q-84 0 -134 -50t-50 -130q0 -74 34 -121q34 -48 144 -117q103 -67 148 -114q40 -41 60 -94q19 -50 19 -118z"/>
<glyph glyph-name="t" horiz-adv-x="449" unicode="t" d="M344 68q44 0 78 12v-80q-45 -20 -113 -20q-168 0 -168 251v770h-98v56l96 28l31 258h66v-258h172v-84h-172v-743q0 -110 24 -150t84 -40z"/>
<glyph glyph-name="u" horiz-adv-x="870" unicode="u" d="M236 1085v-708q0 -163 38 -235q39 -74 119 -74q122 0 180 100q58 101 58 321v596h94v-1085h-80l-12 152h-8q-34 -82 -97 -128q-60 -44 -135 -44q-131 0 -191 93q-61 95 -61 304v708h95z"/>
<glyph glyph-name="v" horiz-adv-x="653" unicode="v" d="M266 0l-256 1085h96l162 -698q28 -121 54 -264h8q9 64 20 116q21 102 197 846h96l-264 -1085h-113z"/>
<glyph glyph-name="w" horiz-adv-x="1124" unicode="w" d="M748 0l-150 735q0 2 -1.5 8t-2.5 9q0 1 -3.5 23t-11 68.5t-16.5 100.5h-2l-14 -85l-23 -124l-155 -735h-113l-236 1085h95l135 -632l63 -330h6q19 149 58 332l135 630h100l136 -632q16 -71 57 -330h6q4 41 29 166q17 86 170 796h94l-244 -1085h-112z"/>
<glyph glyph-name="x" horiz-adv-x="676" unicode="x" d="M293 563l-238 522h103l182 -440l190 440h99l-242 -534l254 -551h-100l-203 469l-205 -469h-98z"/>
<glyph glyph-name="y" horiz-adv-x="653" unicode="y" d="M281 2l-271 1083h96l164 -677q30 -129 56 -275h8q21 143 53 277l160 675h96l-317 -1290q-35 -144 -91 -215q-57 -72 -151 -72q-37 0 -86 17v86q42 -14 78 -14q60 0 95 51q35 52 62 166z"/>
<glyph glyph-name="z" horiz-adv-x="541" unicode="z" d="M494 0h-435v76l320 925h-299v84h399v-77l-319 -924h334v-84z"/>
<glyph glyph-name="braceleft" horiz-adv-x="737" unicode="{" d="M109 604q75 0 121 20q45 20 65 62q20 43 20 133v324q0 147 84 231q83 83 234 88v-80q-112 -1 -166 -59q-53 -56 -53 -176v-316q0 -120 -46 -180q-45 -58 -149 -78v-8q104 -19 150 -79q45 -59 45 -179v-315q0 -121 53 -177q54 -58 166 -59v-80q-154 5 -235 89 q-83 86 -83 231v323q0 90 -19 132q-18 41 -64 63q-44 21 -123 21v69z"/>
<glyph glyph-name="bar" d="M457 -492h-95v2048h95v-2048z" unicode="|"/>
<glyph glyph-name="braceright" horiz-adv-x="737" unicode="}" d="M629 535q-79 0 -122 -20q-46 -21 -65 -63q-20 -43 -20 -133v-323q0 -148 -83 -231q-85 -85 -235 -89v80q111 1 166 60q54 57 54 176v315q0 122 44 179q46 60 150 79v8q-102 19 -148 79t-46 179v316q0 119 -54 176q-54 58 -166 59v80q151 -5 234 -88q84 -84 84 -231v-324 q0 -89 20 -132q20 -42 64 -63q43 -20 123 -20v-69z"/>
<glyph glyph-name="asciitilde" d="M242 739q-42 0 -91 -33q-48 -32 -92 -88v99q75 106 185 106q39 0 75 -9q33 -8 109 -50q49 -28 83 -40q37 -13 69 -13q50 0 96 33q48 34 84 83v-98q-74 -104 -180 -104q-48 0 -84 11q-33 10 -103 48q-60 34 -89 44q-31 11 -62 11z" unicode="~"/>
<glyph glyph-name="nonbreakingspace" horiz-adv-x="532" unicode=" "/>
<glyph glyph-name="exclamdown" horiz-adv-x="451" unicode="¡" d="M147 981q0 106 78 106q32 0 55 -25t23 -81q0 -58 -23 -83q-22 -24 -55 -24q-78 0 -78 107zM287 -391h-125l35 1096h55z"/>
<glyph glyph-name="cent" d="M438 -20v213q-135 23 -203 164q-67 140 -67 388q0 249 67 392q67 144 203 172v174h82v-168q88 -6 146 -37l-37 -86q-72 29 -123 29q-126 0 -182 -122q-56 -123 -56 -351q0 -469 238 -469q69 0 153 32v-84q-51 -30 -139 -39v-208h-82z" unicode="¢"/>
<glyph glyph-name="sterling" d="M506 1483q135 0 235 -88l-55 -76q-54 44 -93 59q-41 15 -89 15q-91 0 -129 -65q-39 -66 -39 -208v-352h250v-86h-250v-287q0 -214 -121 -301h522v-94h-645v82q67 28 107 111q39 81 39 200v289h-158v86h158v354q0 184 64 272q65 89 204 89z" unicode="£"/>
<glyph glyph-name="currency" horiz-adv-x="1135" unicode="¤" d="M252 723q0 -133 91 -224t224 -91q131 0 225 92q93 91 93 223q0 85 -42 158q-41 72 -117 116q-74 43 -159 43t-159 -42q-72 -41 -115 -116q-41 -72 -41 -159zM174 723q0 136 86 246l-135 137l57 57l135 -137q109 90 250 90q140 0 246 -88l135 135l60 -57l-136 -135 q89 -109 89 -248t-89 -248l136 -137l-58 -57l-137 135q-107 -86 -246 -86q-144 0 -250 88l-133 -135l-57 59l133 133q-86 110 -86 248z"/>
<glyph glyph-name="yen" d="M332 655l-226 807h97l207 -766l202 766h99l-228 -807h197v-82h-221v-200h221v-82h-221v-291h-103v291h-215v82h215v198l-2 2h-213v82h191z" unicode="¥"/>
<glyph glyph-name="brokenbar" d="M457 -492h-95v799h95v-799zM457 758h-95v798h95v-798z" unicode="¦"/>
<glyph glyph-name="section" horiz-adv-x="698" unicode="§" d="M506 807q0 49 -17 85q-17 35 -54 65t-136 83q-61 -19 -94 -66q-31 -44 -31 -104q0 -65 53 -118q52 -52 187 -117q92 53 92 172zM102 1303q0 113 78 183q77 70 197 70q61 0 101 -10t104 -45l-39 -74q-48 29 -87 40q-36 10 -83 10q-81 0 -129 -45q-49 -46 -49 -117 q0 -64 34 -107q35 -44 144 -108q110 -63 148 -100q40 -39 59 -82q20 -46 20 -105q0 -71 -33 -134t-86 -95q64 -49 92 -102q27 -51 27 -113q0 -124 -79 -197q-80 -74 -214 -74q-137 0 -225 56v100q40 -34 99 -54q60 -20 124 -20q91 0 146 52t55 130q0 64 -33 108 q-33 43 -133 103l-94 55q-82 48 -123 104t-41 126q0 80 40 140q39 58 107 87q-127 88 -127 218z"/>
<glyph glyph-name="dieresis" horiz-adv-x="1126" unicode="¨" d="M653 1389q0 43 19 62t43 19q25 0 44 -19t19 -62q0 -45 -19 -64q-20 -20 -44 -20q-23 0 -43 20q-19 19 -19 64zM348 1389q0 42 20 62q19 19 44 19q23 0 42 -19t19 -62q0 -45 -19 -64q-20 -20 -42 -20q-24 0 -44 20t-20 64z"/>
<glyph glyph-name="copyright" horiz-adv-x="1704" unicode="©" d="M193 731q0 -177 89 -329q89 -153 240 -241q152 -89 330 -89t330 89t240 240q89 152 89 330q0 174 -85 325t-239 243t-335 92q-176 0 -328 -88q-154 -89 -242 -243q-89 -155 -89 -329zM100 731q0 200 100 375q101 176 275 276q176 101 377 101q200 0 375 -100 q176 -101 276 -275q101 -176 101 -377q0 -198 -97 -370q-99 -175 -272 -277q-176 -104 -383 -104q-206 0 -382 104q-174 103 -272 276t-98 371zM897 1092q-142 0 -223 -94q-80 -93 -80 -265q0 -188 74 -275q75 -89 221 -89q85 0 198 43v-88q-102 -45 -208 -45 q-187 0 -289 115q-101 114 -101 331q0 209 111 333t297 124q120 0 227 -52l-37 -83q-98 45 -190 45z"/>
<glyph glyph-name="ordfeminine" horiz-adv-x="578" unicode="ª" d="M143 987q0 -113 95 -113q67 0 105 52t38 143v66l-62 -7q-95 -9 -136 -41q-40 -31 -40 -100zM406 817l-15 84h-8q-69 -96 -172 -96q-68 0 -111 49t-43 135q0 91 55 140q57 51 177 61l92 8v72q0 73 -24 106t-81 33q-62 0 -133 -39l-28 64q81 45 170 45q96 0 137 -50 t41 -157v-455h-57z"/>
<glyph glyph-name="guillemotleft" horiz-adv-x="856" unicode="«" d="M426 541l289 366l59 -35l-217 -344l217 -344l-59 -37l-289 367v27zM82 541l287 366l61 -35l-219 -344l219 -344l-61 -37l-287 367v27z"/>
<glyph glyph-name="logicalnot" d="M739 250h-82v432h-598v82h680v-514z" unicode="¬"/>
<glyph glyph-name="uni00AD" horiz-adv-x="516" unicode="­" d="M53 502v102h410v-102h-410z"/>
<glyph glyph-name="registered" horiz-adv-x="1704" unicode="®" d="M193 731q0 -178 88 -329q89 -152 241 -241t330 -89q177 0 329 89q153 89 241 240q89 152 89 330q0 173 -86 325q-85 151 -239 243t-334 92q-177 0 -329 -88t-241 -243t-89 -329zM100 731q0 200 100 375q101 176 275 276q176 101 377 101q200 0 375 -100 q176 -101 276 -275q101 -176 101 -377q0 -198 -97 -370q-99 -175 -272 -277q-176 -104 -383 -104q-206 0 -382 104t-273 276t-97 371zM1120 918q0 -176 -147 -240l198 -387h-114l-174 360h-174v-360h-101v880h211q142 0 222 -62q79 -61 79 -191zM709 731h112q90 0 143 47 q52 46 52 135q0 172 -197 172h-110v-354z"/>
<glyph glyph-name="overscore" horiz-adv-x="842" unicode="¯" d="M850 1556h-858v82h858v-82z"/>
<glyph glyph-name="degree" horiz-adv-x="877" unicode="°" d="M229 1184q0 -92 61 -154q61 -63 148 -63q86 0 148 62q61 61 61 155q0 91 -60 154t-149 63q-90 0 -150 -64q-59 -63 -59 -153zM139 1184q0 132 87 216q86 83 212 83t212 -83q87 -84 87 -216t-87 -216q-86 -83 -212 -83q-129 0 -214 83t-85 216z"/>
<glyph glyph-name="plusminus" d="M59 0v82h701v-82h-701zM369 682h-310v82h310v434h82v-434h309v-82h-309v-432h-82v432z" unicode="±"/>
<glyph glyph-name="twosuperior" horiz-adv-x="614" unicode="²" d="M520 586h-471v78l178 223q81 100 117 154q39 60 53 101q15 45 15 109q0 66 -37 106t-105 40q-88 0 -164 -82l-55 61q95 107 221 107q110 0 172 -63q62 -64 62 -169q0 -86 -38 -165q-36 -74 -173 -242l-145 -176h370v-82z"/>
<glyph glyph-name="threesuperior" horiz-adv-x="614" unicode="³" d="M498 1255q0 -71 -37 -125q-36 -53 -101 -77v-9q166 -46 166 -225q0 -109 -76 -180q-74 -70 -200 -70q-101 0 -197 43v95q94 -52 199 -52q94 0 137 45q43 44 43 119q0 88 -52 137q-51 48 -153 48h-61v81h65q85 0 131 48q46 47 46 127q0 65 -40 102t-110 37q-84 0 -158 -72 l-53 68q99 90 219 90q112 0 172 -61q60 -62 60 -169z"/>
<glyph glyph-name="acute" horiz-adv-x="1126" unicode="´" d="M434 1241v21q126 164 191 307h125v-17q-38 -69 -118 -161q-77 -89 -151 -150h-47z"/>
<glyph glyph-name="mu" horiz-adv-x="874" unicode="µ" d="M240 1085v-733q0 -284 157 -284q123 0 181 100q57 99 57 321v596h94v-1085h-80l-12 152h-8q-35 -82 -95 -126q-63 -46 -128 -46q-118 0 -166 106h-9q9 -120 9 -183v-395h-95v1577h95z"/>
<glyph glyph-name="paragraph" horiz-adv-x="967" unicode="¶" d="M768 -260h-94v1720h-146v-1720h-94v819q-30 -18 -69 -18q-111 0 -163 123q-52 122 -52 378q0 255 63 384q63 130 201 130h354v-1816z"/>
<glyph glyph-name="periodcentered" horiz-adv-x="422" unicode="·" d="M133 721q0 106 78 106t78 -106q0 -56 -23 -82q-22 -25 -55 -25q-78 0 -78 107z"/>
<glyph glyph-name="cedilla" horiz-adv-x="465" unicode="¸" d="M379 -291q0 -101 -62 -151t-172 -50q-61 0 -86 11v78q33 -11 78 -11q76 0 115 34q37 33 37 87q0 61 -44 91q-43 30 -122 42l72 160h75l-51 -115q160 -39 160 -176z"/>
<glyph glyph-name="onesuperior" horiz-adv-x="614" unicode="¹" d="M397 586h-86v614q0 86 6 170q-32 -31 -55 -49q-31 -25 -131 -96l-49 65l237 172h78v-876z"/>
<glyph glyph-name="ordmasculine" horiz-adv-x="618" unicode="º" d="M160 1143q0 -139 36 -202q35 -62 113 -62q82 0 116 62t34 202t-35 200q-36 62 -115 62q-68 0 -109 -63q-40 -62 -40 -199zM549 1143q0 -166 -61 -252t-177 -86q-119 0 -180 86t-61 252q0 158 64 248q63 88 177 88q112 0 175 -83q63 -82 63 -253z"/>
<glyph glyph-name="guillemotright" horiz-adv-x="856" unicode="»" d="M430 514l-289 -367l-59 37l217 344l-217 344l59 35l289 -366v-27zM774 514l-287 -367l-61 37l219 344l-219 344l61 35l287 -366v-27z"/>
<glyph glyph-name="onequarter" horiz-adv-x="1430" unicode="¼" d="M1136 1462l-768 -1462h-92l768 1462h92zM367 586h-86v614q0 86 6 170q-32 -31 -55 -49q-31 -25 -131 -96l-49 65l237 172h78v-876zM1118 292v282q0 127 4 170q-1 -3 -6 -13.5t-15.5 -32t-20.5 -41.5q-38 -79 -195 -365h233zM1304 210h-100v-209h-86v209h-334v65l340 608 h80v-591h100v-82z"/>
<glyph glyph-name="onehalf" horiz-adv-x="1430" unicode="½" d="M1112 1462l-768 -1462h-92l768 1462h92zM367 586h-86v614q0 86 6 170q-32 -31 -55 -49q-31 -25 -131 -96l-49 65l237 172h78v-876zM1335 1h-471v78l178 223q81 100 117 154q39 60 53 101q15 45 15 109q0 66 -37 106t-105 40q-88 0 -164 -82l-55 61q95 107 221 107 q111 0 172 -62q62 -64 62 -170q0 -85 -38 -164q-37 -77 -173 -243l-145 -176h370v-82z"/>
<glyph glyph-name="threequarters" horiz-adv-x="1430" unicode="¾" d="M1177 1462l-768 -1462h-92l768 1462h92zM498 1255q0 -71 -37 -125q-36 -53 -101 -77v-9q166 -46 166 -225q0 -109 -76 -180q-74 -70 -200 -70q-101 0 -197 43v95q94 -52 199 -52q94 0 137 45q43 44 43 119q0 88 -52 137q-51 48 -153 48h-61v81h65q85 0 131 48 q46 47 46 127q0 65 -40 102t-110 37q-84 0 -158 -72l-53 68q99 90 219 90q111 0 171 -61q61 -63 61 -169zM1157 292v282q0 127 4 170q-3 -7 -41 -87q-31 -65 -196 -365h233zM1343 210h-100v-209h-86v209h-334v65l340 608h80v-591h100v-82z"/>
<glyph glyph-name="questiondown" horiz-adv-x="578" unicode="¿" d="M422 981q0 -107 -78 -107q-32 0 -55 24q-23 25 -23 83q0 56 23 81t55 25q78 0 78 -106zM387 705v-52q0 -115 -21 -189q-21 -72 -77 -159q-71 -108 -92 -155q-23 -50 -37 -108q-13 -53 -13 -124q0 -117 46 -178q47 -62 124 -62q58 0 97 16q43 17 82 44l47 -76 q-103 -74 -226 -74q-132 0 -201 85t-69 239q0 81 11 132q11 52 38 112q26 57 111 186q58 91 81 158t23 166v39h76z"/>
<glyph glyph-name="Agrave" horiz-adv-x="813" unicode="À" d="M414 1579q-63 51 -149 148q-80 90 -119 163v17h125q29 -67 82 -152t109 -155v-21h-48zM561 629l-129 545q-22 103 -31 174q-9 -91 -28 -174l-125 -545h313zM713 0l-129 530h-355l-127 -530h-102l352 1462h101l360 -1462h-100z"/>
<glyph glyph-name="Aacute" horiz-adv-x="813" unicode="Á" d="M339 1579v21q126 164 191 307h125v-17q-37 -66 -119 -161q-80 -91 -150 -150h-47zM561 629l-129 545q-22 103 -31 174q-9 -91 -28 -174l-125 -545h313zM713 0l-129 530h-355l-127 -530h-102l352 1462h101l360 -1462h-100z"/>
<glyph glyph-name="Acircumflex" horiz-adv-x="813" unicode="Â" d="M591 1579q-42 42 -91 101l-97 112q-72 -80 -101 -114q-56 -65 -92 -99h-43v19q121 168 186 309h95q23 -54 78 -145q47 -79 112 -164v-19h-47zM561 629l-129 545q-22 103 -31 174q-9 -91 -28 -174l-125 -545h313zM713 0l-129 530h-355l-127 -530h-102l352 1462h101 l360 -1462h-100z"/>
<glyph glyph-name="Atilde" horiz-adv-x="813" unicode="Ã" d="M527 1581q-34 0 -69 20q-33 19 -65 43q-35 27 -59 44q-28 20 -50 20q-33 0 -54 -36t-30 -93h-74q12 96 53 154q40 57 113 57q34 0 68 -20t64 -44q24 -19 57 -43q28 -20 53 -20q34 0 52 36t27 93h74q-9 -100 -51 -156q-42 -55 -109 -55zM561 629l-129 545q-22 103 -31 174 q-9 -91 -28 -174l-125 -545h313zM713 0l-129 530h-355l-127 -530h-102l352 1462h101l360 -1462h-100z"/>
<glyph glyph-name="Adieresis" horiz-adv-x="813" unicode="Ä" d="M496 1727q0 43 19 62t43 19q25 0 44 -19t19 -62q0 -45 -19 -64q-20 -20 -44 -20q-23 0 -43 20q-19 19 -19 64zM191 1727q0 43 19 62t45 19q23 0 42 -19t19 -62q0 -45 -19 -64q-20 -20 -42 -20q-25 0 -45 20q-19 19 -19 64zM561 629l-129 545q-22 103 -31 174 q-9 -91 -28 -174l-125 -545h313zM713 0l-129 530h-355l-127 -530h-102l352 1462h101l360 -1462h-100z"/>
<glyph glyph-name="Aring" horiz-adv-x="813" unicode="Å" d="M526 1585q0 -53 -34 -85t-87 -32q-61 0 -91 32t-30 85q0 50 33 83t88 33q59 0 90 -33q31 -32 31 -83zM604 1589q0 83 -56 133q-55 49 -143 49q-92 0 -146 -51q-53 -50 -53 -135q0 -86 53 -137q31 -30 79 -42l14 56h101l14 -57q47 11 83 44q54 51 54 140zM561 629 l-129 545q-22 103 -31 174q-9 -91 -28 -174l-125 -545h313zM713 0l-129 530h-355l-127 -530h-102l338 1406q32 -8 67 -8t62 7l346 -1405h-100z"/>
<glyph glyph-name="AE" horiz-adv-x="1153" unicode="Æ" d="M283 629h241v735h-28zM1055 0h-531v530h-268l-152 -530h-104l434 1462h621v-96h-432v-553h407v-94h-407v-625h432v-94z"/>
<glyph glyph-name="Ccedilla" horiz-adv-x="860" unicode="Ç" d="M692 -291q0 -101 -62 -151t-172 -50q-61 0 -86 11v78q33 -11 78 -11q76 0 115 34q37 33 37 87q0 61 -44 91q-43 30 -122 42l66 146q34 -6 71 -6h1l-42 -95q160 -39 160 -176zM573 1391q107 0 191 -54l45 86q-101 62 -234 62q-214 0 -339 -200t-125 -550q0 -233 57 -404 t162 -261q77 -66 172 -84l6 14h75l-9 -20q126 0 204 45v90q-84 -41 -196 -41q-110 0 -195 80q-84 79 -129 229q-45 149 -45 350q0 308 98 483t262 175z"/>
<glyph glyph-name="Egrave" horiz-adv-x="788" unicode="È" d="M467 1579q-63 51 -149 148q-80 90 -119 163v17h125q29 -67 82 -152t109 -155v-21h-48zM690 0h-530v1462h530v-94h-432v-555h408v-94h-408v-625h432v-94z"/>
<glyph glyph-name="Eacute" horiz-adv-x="788" unicode="É" d="M324 1579v21q126 164 191 307h125v-17q-38 -69 -118 -161q-77 -89 -151 -150h-47zM690 0h-530v1462h530v-94h-432v-555h408v-94h-408v-625h432v-94z"/>
<glyph glyph-name="Ecircumflex" horiz-adv-x="788" unicode="Ê" d="M605 1579q-42 42 -91 101l-97 112q-72 -80 -101 -114q-56 -65 -92 -99h-43v19q121 168 186 309h95q23 -54 78 -145q47 -79 112 -164v-19h-47zM690 0h-530v1462h530v-94h-432v-555h408v-94h-408v-625h432v-94z"/>
<glyph glyph-name="Edieresis" horiz-adv-x="788" unicode="Ë" d="M507 1727q0 43 19 62t43 19q25 0 44 -19t19 -62q0 -45 -19 -64q-20 -20 -44 -20q-23 0 -43 20q-19 19 -19 64zM202 1727q0 42 20 62q19 19 44 19q23 0 42 -19t19 -62q0 -45 -19 -64q-20 -20 -42 -20q-24 0 -44 20t-20 64zM690 0h-530v1462h530v-94h-432v-555h408v-94 h-408v-625h432v-94z"/>
<glyph glyph-name="Igrave" horiz-adv-x="418" unicode="Ì" d="M234 1579q-59 48 -148 148q-83 93 -120 163v17h125q27 -62 83 -152q57 -91 108 -155v-21h-48zM160 0v1462h98v-1462h-98z"/>
<glyph glyph-name="Iacute" horiz-adv-x="418" unicode="Í" d="M154 1579v21q126 164 191 307h125v-17q-38 -69 -118 -161q-77 -89 -151 -150h-47zM160 0v1462h98v-1462h-98z"/>
<glyph glyph-name="Icircumflex" horiz-adv-x="418" unicode="Î" d="M398 1579q-42 42 -91 101l-97 112q-27 -31 -100 -114q-51 -58 -93 -99h-43v19q122 168 186 309h95q21 -48 79 -145q51 -85 111 -164v-19h-47zM160 0v1462h98v-1462h-98z"/>
<glyph glyph-name="Idieresis" horiz-adv-x="418" unicode="Ï" d="M300 1727q0 42 20 62q19 19 42 19q25 0 44 -19t19 -62q0 -45 -19 -64q-20 -20 -44 -20q-22 0 -42 20t-20 64zM-5 1727q0 43 19 62t45 19q23 0 42 -19t19 -62q0 -45 -19 -64q-20 -20 -42 -20q-25 0 -45 20q-19 19 -19 64zM160 0v1462h98v-1462h-98z"/>
<glyph glyph-name="Eth" horiz-adv-x="995" unicode="Ð" d="M782 739q0 310 -91 471q-92 162 -269 162h-164v-581h225v-91h-225v-610h156q191 0 279 166q89 167 89 483zM885 745q0 -745 -465 -745h-260v700h-99v91h99v671h266q226 0 342 -182q117 -183 117 -535z"/>
<glyph glyph-name="Ntilde" horiz-adv-x="1090" unicode="Ñ" d="M685 1581q-34 0 -69 20q-28 16 -65 44q-10 7 -59 43q-28 20 -50 20q-32 0 -53 -36q-22 -38 -31 -93h-74q12 96 53 154q41 57 113 57q34 0 68 -20q39 -23 64 -43q27 -22 58 -44q28 -20 52 -20q34 0 52 36t27 93h74q-9 -100 -51 -156q-42 -55 -109 -55zM930 0h-125 l-553 1311h-8q12 -137 12 -262v-1049h-96v1462h127l549 -1296h6q-8 174 -8 274v1022h96v-1462z"/>
<glyph glyph-name="Ograve" horiz-adv-x="1065" unicode="Ò" d="M551 1579q-63 51 -149 148q-80 90 -119 163v17h125q29 -67 82 -152t109 -155v-21h-48zM213 733q0 -325 81 -492t238 -167t238 165q82 167 82 494q0 325 -80 491q-80 165 -237 165q-160 0 -241 -167q-81 -168 -81 -489zM954 733q0 -363 -108 -558t-314 -195 q-207 0 -314 197t-107 558q0 379 106 563q107 185 318 185q204 0 311 -194q108 -195 108 -556z"/>
<glyph glyph-name="Oacute" horiz-adv-x="1065" unicode="Ó" d="M459 1579v21q126 164 191 307h125v-17q-37 -66 -119 -161q-80 -91 -150 -150h-47zM213 733q0 -325 81 -492t238 -167t238 165q82 167 82 494q0 325 -80 491q-80 165 -237 165q-160 0 -241 -167q-81 -168 -81 -489zM954 733q0 -363 -108 -558t-314 -195q-207 0 -314 197 t-107 558q0 379 106 563q107 185 318 185q204 0 311 -194q108 -195 108 -556z"/>
<glyph glyph-name="Ocircumflex" horiz-adv-x="1065" unicode="Ô" d="M720 1579q-42 42 -91 101l-97 112q-27 -31 -100 -114q-51 -58 -93 -99h-43v19q122 168 186 309h95q19 -44 79 -144q54 -90 111 -165v-19h-47zM213 733q0 -325 81 -492t238 -167t238 165q82 167 82 494q0 325 -80 491q-80 165 -237 165q-160 0 -241 -167 q-81 -168 -81 -489zM954 733q0 -363 -108 -558t-314 -195q-207 0 -314 197t-107 558q0 379 106 563q107 185 318 185q204 0 311 -194q108 -195 108 -556z"/>
<glyph glyph-name="Otilde" horiz-adv-x="1065" unicode="Õ" d="M662 1581q-34 0 -69 20q-28 16 -65 44q-10 7 -59 43q-28 20 -50 20q-32 0 -53 -36q-22 -38 -31 -93h-74q12 96 53 154q40 57 113 57q34 0 68 -20q39 -23 64 -43q36 -29 57 -44q28 -20 53 -20q35 0 53 36q17 33 26 93h74q-9 -100 -51 -156q-42 -55 -109 -55zM213 733 q0 -325 81 -492t238 -167t238 165q82 167 82 494q0 325 -80 491q-80 165 -237 165q-160 0 -241 -167q-81 -168 -81 -489zM954 733q0 -363 -108 -558t-314 -195q-207 0 -314 197t-107 558q0 379 106 563q107 185 318 185q204 0 311 -194q108 -195 108 -556z"/>
<glyph glyph-name="Odieresis" horiz-adv-x="1065" unicode="Ö" d="M631 1727q0 43 19 62t43 19q25 0 44 -19t19 -62q0 -45 -19 -64q-20 -20 -44 -20q-23 0 -43 20q-19 19 -19 64zM326 1727q0 42 20 62q19 19 44 19q23 0 42 -19t19 -62q0 -45 -19 -64q-20 -20 -42 -20q-24 0 -44 20t-20 64zM213 733q0 -325 81 -492t238 -167t238 165 q82 167 82 494q0 325 -80 491q-80 165 -237 165q-160 0 -241 -167q-81 -168 -81 -489zM954 733q0 -363 -108 -558t-314 -195q-207 0 -314 197t-107 558q0 379 106 563q107 185 318 185q204 0 311 -194q108 -195 108 -556z"/>
<glyph glyph-name="multiply" d="M350 723l-289 289l58 57l289 -289l292 293l60 -57l-293 -293l287 -289l-58 -57l-288 289l-291 -293l-58 59z" unicode="×"/>
<glyph glyph-name="Oslash" horiz-adv-x="1065" unicode="Ø" d="M532 74q158 0 239 165t81 494q0 253 -49 412l-481 -955q77 -116 210 -116zM213 733q0 -281 59 -440l484 958q-80 138 -221 138q-160 0 -241 -167q-81 -168 -81 -489zM954 733q0 -363 -108 -558t-314 -195q-158 0 -260 114l-94 -188l-82 37l119 237q-104 194 -104 555 q0 379 106 563q107 185 318 185q163 0 270 -131l96 190l82 -41l-123 -239q94 -189 94 -529z"/>
<glyph glyph-name="Ugrave" horiz-adv-x="1012" unicode="Ù" d="M545 1579q-63 51 -149 148q-80 90 -119 163v17h125q29 -67 82 -152t109 -155v-21h-48zM864 1462v-987q0 -495 -354 -495q-177 0 -270 128q-93 127 -93 367v987h99v-999q0 -191 68 -289q70 -100 196 -100t191 100t65 293v995h98z"/>
<glyph glyph-name="Uacute" horiz-adv-x="1012" unicode="Ú" d="M423 1579v21q126 164 191 307h125v-17q-37 -66 -119 -161q-80 -91 -150 -150h-47zM864 1462v-987q0 -495 -354 -495q-177 0 -270 128q-93 127 -93 367v987h99v-999q0 -191 68 -289q70 -100 196 -100t191 100t65 293v995h98z"/>
<glyph glyph-name="Ucircumflex" horiz-adv-x="1012" unicode="Û" d="M695 1579q-42 42 -91 101l-97 112q-72 -80 -101 -114q-56 -65 -92 -99h-43v19q121 168 186 309h95q22 -50 78 -144q50 -84 112 -165v-19h-47zM864 1462v-987q0 -495 -354 -495q-177 0 -270 128q-93 127 -93 367v987h99v-999q0 -191 68 -289q70 -100 196 -100t191 100 t65 293v995h98z"/>
<glyph glyph-name="Udieresis" horiz-adv-x="1012" unicode="Ü" d="M597 1727q0 43 19 62t43 19q25 0 44 -19t19 -62q0 -45 -19 -64q-20 -20 -44 -20q-23 0 -43 20q-19 19 -19 64zM292 1727q0 43 19 62t45 19q23 0 42 -19t19 -62q0 -45 -19 -64q-20 -20 -42 -20q-25 0 -45 20q-19 19 -19 64zM864 1462v-987q0 -495 -354 -495 q-177 0 -270 128q-93 127 -93 367v987h99v-999q0 -191 68 -289q70 -100 196 -100t191 100t65 293v995h98z"/>
<glyph glyph-name="Yacute" horiz-adv-x="686" unicode="Ý" d="M271 1579v21q126 164 191 307h125v-17q-37 -66 -119 -161q-80 -91 -150 -150h-47zM344 707l238 755h104l-295 -891v-571h-98v571l-293 891h104z"/>
<glyph glyph-name="Thorn" horiz-adv-x="840" unicode="Þ" d="M258 428h98q170 0 243 78q73 77 73 266q0 173 -72 248q-73 76 -233 76h-109v-668zM772 784q0 -450 -407 -450h-107v-334h-98v1462h98v-270h102q214 0 313 -99t99 -309z"/>
<glyph glyph-name="germandbls" horiz-adv-x="823" unicode="ß" d="M659 1290q0 -120 -91 -238q-46 -62 -69 -105q-22 -43 -22 -85q0 -56 22 -100q24 -48 89 -129l59 -70q55 -65 79 -125q26 -66 26 -141q0 -148 -71 -233q-71 -84 -189 -84q-46 0 -96 14q-47 13 -79 39v100q31 -22 77 -44q39 -19 98 -19q78 0 120 58q43 60 43 163 q0 60 -23 117q-22 54 -106 155q-79 98 -109 163q-32 70 -32 136q0 50 20 96q19 44 69 106q48 60 68 112q21 54 21 118q0 183 -147 183q-85 0 -130 -68q-46 -69 -46 -195v-1214h-95v1204q0 173 73 268t204 95q117 0 177 -71q60 -70 60 -206z"/>
<glyph glyph-name="agrave" horiz-adv-x="784" unicode="à" d="M431 1241q-63 51 -149 148q-80 90 -119 163v17h125q29 -67 82 -152t109 -155v-21h-48zM334 61q101 0 158 101q57 100 57 284v113l-113 -6q-133 -8 -194 -72q-64 -67 -64 -192q0 -117 42 -173q42 -55 114 -55zM565 0l-12 152h-4q-78 -172 -236 -172q-105 0 -170 85 t-65 226q0 156 93 246q94 91 261 98l117 6v90q0 151 -38 221t-126 70q-93 0 -190 -61l-41 75q112 70 237 70q135 0 193 -84q59 -85 59 -283v-739h-78z"/>
<glyph glyph-name="aacute" horiz-adv-x="784" unicode="á" d="M290 1241v21q126 164 191 307h125v-17q-38 -69 -118 -161q-77 -89 -151 -150h-47zM334 61q101 0 158 101q57 100 57 284v113l-113 -6q-133 -8 -194 -72q-64 -67 -64 -192q0 -117 42 -173q42 -55 114 -55zM565 0l-12 152h-4q-78 -172 -236 -172q-105 0 -170 85t-65 226 q0 156 93 246q94 91 261 98l117 6v90q0 151 -38 221t-126 70q-93 0 -190 -61l-41 75q112 70 237 70q135 0 193 -84q59 -85 59 -283v-739h-78z"/>
<glyph glyph-name="acircumflex" horiz-adv-x="784" unicode="â" d="M574 1243q-42 42 -91 101l-97 112q-27 -31 -100 -114q-51 -58 -93 -99h-43v19q122 168 186 309h95q19 -44 79 -144q54 -90 111 -165v-19h-47zM334 61q101 0 158 101q57 100 57 284v113l-113 -6q-133 -8 -194 -72q-64 -67 -64 -192q0 -117 42 -173q42 -55 114 -55zM565 0 l-12 152h-4q-78 -172 -236 -172q-105 0 -170 85t-65 226q0 156 93 246q94 91 261 98l117 6v90q0 151 -38 221t-126 70q-93 0 -190 -61l-41 75q112 70 237 70q135 0 193 -84q59 -85 59 -283v-739h-78z"/>
<glyph glyph-name="atilde" horiz-adv-x="784" unicode="ã" d="M517 1243q-34 0 -69 20q-28 16 -65 44q-10 7 -59 43q-28 20 -50 20q-32 0 -53 -36q-22 -38 -31 -93h-74q12 96 53 154q40 57 113 57q34 0 68 -20q39 -23 64 -43q27 -22 58 -44q28 -20 52 -20q34 0 52 36t27 93h74q-9 -100 -51 -156q-42 -55 -109 -55zM334 61 q101 0 158 101q57 100 57 284v113l-113 -6q-133 -8 -194 -72q-64 -67 -64 -192q0 -117 42 -173q42 -55 114 -55zM565 0l-12 152h-4q-78 -172 -236 -172q-105 0 -170 85t-65 226q0 156 93 246q94 91 261 98l117 6v90q0 151 -38 221t-126 70q-93 0 -190 -61l-41 75 q112 70 237 70q135 0 193 -84q59 -85 59 -283v-739h-78z"/>
<glyph glyph-name="adieresis" horiz-adv-x="784" unicode="ä" d="M470 1389q0 42 20 62q19 19 42 19q25 0 44 -19t19 -62q0 -45 -19 -64q-20 -20 -44 -20q-22 0 -42 20t-20 64zM165 1389q0 43 19 62t45 19q23 0 42 -19t19 -62q0 -45 -19 -64q-20 -20 -42 -20q-25 0 -45 20q-19 19 -19 64zM334 61q101 0 158 101q57 100 57 284v113 l-113 -6q-133 -8 -194 -72q-64 -67 -64 -192q0 -117 42 -173q42 -55 114 -55zM565 0l-12 152h-4q-78 -172 -236 -172q-105 0 -170 85t-65 226q0 156 93 246q94 91 261 98l117 6v90q0 151 -38 221t-126 70q-93 0 -190 -61l-41 75q112 70 237 70q135 0 193 -84q59 -85 59 -283 v-739h-78z"/>
<glyph glyph-name="aring" horiz-adv-x="784" unicode="å" d="M505 1438q0 52 -31 84t-90 32q-56 0 -88 -32q-33 -33 -33 -84q0 -52 31 -85q30 -32 90 -32q54 0 88 32q33 31 33 85zM583 1442q0 -89 -54 -140t-145 -51q-94 0 -146 51q-53 51 -53 136q0 86 53 136t146 50q88 0 143 -49q56 -50 56 -133zM334 61q101 0 158 101 q57 100 57 284v113l-113 -6q-133 -8 -194 -72q-64 -67 -64 -192q0 -117 42 -173q42 -55 114 -55zM565 0l-12 152h-4q-78 -172 -236 -172q-105 0 -170 85t-65 226q0 156 93 246q94 91 261 98l117 6v90q0 151 -38 221t-126 70q-93 0 -190 -61l-41 75q112 70 237 70 q135 0 193 -84q59 -85 59 -283v-739h-78z"/>
<glyph glyph-name="ae" horiz-adv-x="1260" unicode="æ" d="M385 1022q-93 0 -190 -61l-41 75q49 30 102 50t133 20q178 0 229 -172q84 172 250 172q137 0 216 -127t79 -348v-88h-514q9 -477 258 -477q49 0 109 18q61 18 112 49v-88q-101 -65 -223 -65q-104 0 -185 63t-120 178q-47 -130 -117 -185q-71 -56 -170 -56q-106 0 -171 85 q-64 83 -64 226q0 156 93 246q94 91 261 98l117 6v90q0 147 -39 219t-125 72zM866 1018q-194 0 -215 -389h418v12q0 174 -55 275q-56 102 -148 102zM334 61q101 0 158 101q57 100 57 284v113l-113 -6q-134 -8 -195 -69q-63 -63 -63 -195q0 -117 42 -173q42 -55 114 -55z"/>
<glyph glyph-name="ccedilla" horiz-adv-x="635" unicode="ç" d="M539 -291q0 -101 -62 -151t-172 -50q-61 0 -86 11v78q33 -11 78 -11q76 0 115 34q37 33 37 87q0 61 -44 91q-43 30 -122 42l67 148q35 -8 71 -8l-42 -95q160 -39 160 -176zM424 -20q37 0 83 10q50 11 81 28v80q-84 -32 -154 -32q-239 0 -239 473q0 477 239 477 q57 0 123 -31l37 84q-67 37 -168 37q-162 0 -246 -146t-84 -423q0 -275 82 -415q64 -109 172 -134l5 12h75l-9 -20h3z"/>
<glyph glyph-name="egrave" horiz-adv-x="803" unicode="è" d="M465 1241q-59 48 -148 148q-83 93 -120 163v17h125q27 -62 83 -152q57 -91 108 -155v-21h-48zM410 1020q-196 0 -215 -391h417q0 179 -54 285t-148 106zM453 -20q-172 0 -264 146q-93 147 -93 409q0 277 83 425q82 146 237 146q136 0 213 -128q78 -129 78 -347v-88h-514 q1 -235 67 -355q64 -118 197 -118q103 0 215 67v-92q-104 -65 -219 -65z"/>
<glyph glyph-name="eacute" horiz-adv-x="803" unicode="é" d="M343 1241v21q126 164 191 307h125v-17q-38 -69 -118 -161q-77 -89 -151 -150h-47zM410 1020q-196 0 -215 -391h417q0 179 -54 285t-148 106zM453 -20q-172 0 -264 146q-93 147 -93 409q0 277 83 425q82 146 237 146q136 0 213 -128q78 -129 78 -347v-88h-514 q1 -235 67 -355q64 -118 197 -118q103 0 215 67v-92q-104 -65 -219 -65z"/>
<glyph glyph-name="ecircumflex" horiz-adv-x="803" unicode="ê" d="M601 1241q-42 42 -91 101l-97 112q-27 -31 -100 -114q-51 -58 -93 -99h-43v19q121 168 186 309h95q21 -48 79 -145q51 -85 111 -164v-19h-47zM410 1020q-196 0 -215 -391h417q0 179 -54 285t-148 106zM453 -20q-172 0 -264 146q-93 147 -93 409q0 277 83 425 q82 146 237 146q136 0 213 -128q78 -129 78 -347v-88h-514q1 -235 67 -355q64 -118 197 -118q103 0 215 67v-92q-104 -65 -219 -65z"/>
<glyph glyph-name="edieresis" horiz-adv-x="803" unicode="ë" d="M500 1389q0 42 20 62q19 19 42 19q25 0 44 -19t19 -62q0 -45 -19 -64q-20 -20 -44 -20q-22 0 -42 20t-20 64zM195 1389q0 42 20 62q19 19 44 19q23 0 42 -19t19 -62q0 -45 -19 -64q-20 -20 -42 -20q-24 0 -44 20t-20 64zM410 1020q-196 0 -215 -391h417q0 179 -54 285 t-148 106zM453 -20q-172 0 -264 146q-93 147 -93 409q0 277 83 425q82 146 237 146q136 0 213 -128q78 -129 78 -347v-88h-514q1 -235 67 -355q64 -118 197 -118q103 0 215 67v-92q-104 -65 -219 -65z"/>
<glyph glyph-name="igrave" horiz-adv-x="385" unicode="ì" d="M236 1241q-59 48 -148 148q-83 93 -120 163v17h125q27 -62 83 -152q57 -91 108 -155v-21h-48zM240 0h-95v1085h95v-1085z"/>
<glyph glyph-name="iacute" horiz-adv-x="385" unicode="í" d="M113 1241v21q126 164 191 307h125v-17q-37 -66 -119 -161q-80 -91 -150 -150h-47zM240 0h-95v1085h95v-1085z"/>
<glyph glyph-name="icircumflex" horiz-adv-x="385" unicode="î" d="M382 1241q-42 42 -91 101l-97 112q-27 -31 -100 -114q-51 -58 -93 -99h-43v19q122 168 186 309h95q21 -48 79 -145q51 -85 111 -164v-19h-47zM240 0h-95v1085h95v-1085z"/>
<glyph glyph-name="idieresis" horiz-adv-x="385" unicode="ï" d="M285 1389q0 43 19 62t43 19q25 0 44 -19t19 -62q0 -45 -19 -64q-20 -20 -44 -20q-23 0 -43 20q-19 19 -19 64zM-20 1389q0 42 20 62q19 19 44 19q23 0 42 -19t19 -62q0 -45 -19 -64q-20 -20 -42 -20q-24 0 -44 20t-20 64zM240 0h-95v1085h95v-1085z"/>
<glyph glyph-name="eth" horiz-adv-x="856" unicode="ð" d="M666 483q0 165 -65 274q-64 107 -169 107q-117 0 -180 -102q-62 -100 -62 -301q0 -182 64 -288q65 -107 176 -107q122 0 179 103q57 104 57 314zM350 1399q-54 51 -112 96l47 61q75 -47 141 -112l188 110l39 -65l-174 -103q283 -325 283 -872q0 -534 -338 -534 q-147 0 -239 136q-91 134 -91 353q0 235 80 359q81 126 232 126q154 0 227 -123h8q-52 294 -238 510l-174 -102l-39 66z"/>
<glyph glyph-name="ntilde" horiz-adv-x="870" unicode="ñ" d="M566 1243q-34 0 -69 20q-33 19 -65 43q-35 27 -59 44q-28 20 -50 20q-33 0 -54 -36t-30 -93h-74q12 96 53 154q40 57 113 57q34 0 68 -20q31 -18 63 -44q14 -11 58 -43q28 -20 53 -20q34 0 52 36t27 93h74q-9 -100 -51 -156q-42 -55 -109 -55zM635 0v748q0 270 -160 270 q-122 0 -179 -101q-56 -99 -56 -321v-596h-95v1085h80l8 -151h9q35 83 98 127q64 45 137 45q126 0 189 -84t63 -272v-750h-94z"/>
<glyph glyph-name="ograve" horiz-adv-x="850" unicode="ò" d="M474 1241q-59 48 -148 148q-83 93 -120 163v17h125q27 -62 83 -152q57 -91 108 -155v-21h-48zM193 545q0 -234 56 -355q55 -120 175 -120q233 0 233 475q0 471 -233 471q-122 0 -176 -118q-55 -121 -55 -353zM756 545q0 -275 -86 -419q-87 -146 -248 -146 q-160 0 -244 146t-84 419q0 561 332 561q156 0 243 -147t87 -414z"/>
<glyph glyph-name="oacute" horiz-adv-x="850" unicode="ó" d="M341 1241v21q126 164 191 307h125v-17q-37 -66 -119 -161q-80 -91 -150 -150h-47zM193 545q0 -234 56 -355q55 -120 175 -120q233 0 233 475q0 471 -233 471q-122 0 -176 -118q-55 -121 -55 -353zM756 545q0 -275 -86 -419q-87 -146 -248 -146q-160 0 -244 146t-84 419 q0 561 332 561q156 0 243 -147t87 -414z"/>
<glyph glyph-name="ocircumflex" horiz-adv-x="850" unicode="ô" d="M615 1241q-42 42 -91 101l-97 112q-72 -80 -101 -114q-56 -65 -92 -99h-43v19q121 168 186 309h95q22 -50 78 -144q50 -84 112 -165v-19h-47zM193 545q0 -234 56 -355q55 -120 175 -120q233 0 233 475q0 471 -233 471q-122 0 -176 -118q-55 -121 -55 -353zM756 545 q0 -275 -86 -419q-87 -146 -248 -146q-160 0 -244 146t-84 419q0 561 332 561q156 0 243 -147t87 -414z"/>
<glyph glyph-name="otilde" horiz-adv-x="850" unicode="õ" d="M545 1243q-34 0 -69 20q-28 16 -65 44q-10 7 -59 43q-28 20 -50 20q-32 0 -53 -36q-22 -38 -31 -93h-74q12 96 53 154q40 57 113 57q34 0 68 -20q39 -23 64 -43q27 -22 58 -44q28 -20 52 -20q34 0 52 36t27 93h74q-9 -100 -51 -156q-42 -55 -109 -55zM193 545 q0 -234 56 -355q55 -120 175 -120q233 0 233 475q0 471 -233 471q-122 0 -176 -118q-55 -121 -55 -353zM756 545q0 -275 -86 -419q-87 -146 -248 -146q-160 0 -244 146t-84 419q0 561 332 561q156 0 243 -147t87 -414z"/>
<glyph glyph-name="odieresis" horiz-adv-x="850" unicode="ö" d="M515 1389q0 43 19 62t43 19q25 0 44 -19t19 -62q0 -45 -19 -64q-20 -20 -44 -20q-23 0 -43 20q-19 19 -19 64zM210 1389q0 42 20 62q19 19 44 19q23 0 42 -19t19 -62q0 -45 -19 -64q-20 -20 -42 -20q-24 0 -44 20t-20 64zM193 545q0 -234 56 -355q55 -120 175 -120 q233 0 233 475q0 471 -233 471q-122 0 -176 -118q-55 -121 -55 -353zM756 545q0 -275 -86 -419q-87 -146 -248 -146q-160 0 -244 146t-84 419q0 561 332 561q156 0 243 -147t87 -414z"/>
<glyph glyph-name="divide" d="M332 1071q0 107 78 107q77 0 77 -107q0 -56 -23 -81t-54 -25q-78 0 -78 106zM332 373q0 106 78 106q77 0 77 -106q0 -56 -23 -82q-22 -25 -54 -25q-78 0 -78 107zM760 764v-82h-701v82h701z" unicode="÷"/>
<glyph glyph-name="oslash" horiz-adv-x="850" unicode="ø" d="M657 545q0 179 -32 284l-342 -692q51 -67 141 -67q233 0 233 475zM193 545q0 -200 38 -314l347 699q-56 86 -154 86q-123 0 -177 -118t-54 -353zM68 -102l112 227q-86 146 -86 420q0 561 332 561q117 0 197 -86l84 170l75 -41l-102 -209q76 -148 76 -395q0 -273 -87 -419 t-247 -146q-114 0 -184 69l-95 -192z"/>
<glyph glyph-name="ugrave" horiz-adv-x="870" unicode="ù" d="M463 1241q-63 51 -149 148q-80 90 -119 163v17h125q29 -67 82 -152t109 -155v-21h-48zM236 1085v-708q0 -163 38 -235q39 -74 119 -74q122 0 180 100q58 101 58 321v596h94v-1085h-80l-12 152h-8q-34 -82 -97 -128q-60 -44 -135 -44q-131 0 -191 93q-61 95 -61 304v708 h95z"/>
<glyph glyph-name="uacute" horiz-adv-x="870" unicode="ú" d="M351 1241v21q126 164 191 307h125v-17q-37 -66 -119 -161q-80 -91 -150 -150h-47zM236 1085v-708q0 -163 38 -235q39 -74 119 -74q122 0 180 100q58 101 58 321v596h94v-1085h-80l-12 152h-8q-34 -82 -97 -128q-60 -44 -135 -44q-131 0 -191 93q-61 95 -61 304v708h95z "/>
<glyph glyph-name="ucircumflex" horiz-adv-x="870" unicode="û" d="M615 1241q-42 42 -91 101l-97 112q-72 -80 -101 -114q-56 -65 -92 -99h-43v19q121 168 186 309h95q23 -54 78 -145q47 -79 112 -164v-19h-47zM236 1085v-708q0 -163 38 -235q39 -74 119 -74q122 0 180 100q58 101 58 321v596h94v-1085h-80l-12 152h-8q-34 -82 -97 -128 q-60 -44 -135 -44q-131 0 -191 93q-61 95 -61 304v708h95z"/>
<glyph glyph-name="udieresis" horiz-adv-x="870" unicode="ü" d="M523 1389q0 43 19 62t43 19q25 0 44 -19t19 -62q0 -45 -19 -64q-20 -20 -44 -20q-23 0 -43 20q-19 19 -19 64zM218 1389q0 43 19 62t45 19q23 0 42 -19t19 -62q0 -45 -19 -64q-20 -20 -42 -20q-25 0 -45 20q-19 19 -19 64zM236 1085v-708q0 -163 38 -235q39 -74 119 -74 q122 0 180 100q58 101 58 321v596h94v-1085h-80l-12 152h-8q-34 -82 -97 -128q-60 -44 -135 -44q-131 0 -191 93q-61 95 -61 304v708h95z"/>
<glyph glyph-name="yacute" horiz-adv-x="653" unicode="ý" d="M253 1241v21q126 164 191 307h125v-17q-37 -66 -119 -161q-80 -91 -150 -150h-47zM281 2l-271 1083h96l164 -677q30 -129 56 -275h8q21 143 53 277l160 675h96l-317 -1290q-35 -144 -91 -215q-57 -72 -151 -72q-37 0 -86 17v86q42 -14 78 -14q60 0 95 51q35 52 62 166z "/>
<glyph glyph-name="thorn" horiz-adv-x="893" unicode="þ" d="M240 936q39 82 103 126q63 44 138 44q318 0 318 -561q0 -271 -78 -418t-227 -147q-84 0 -152 47t-102 123h-7l11 -119v-523h-99v2048h95v-484l-4 -136h4zM475 1016q-119 0 -177 -105q-58 -104 -58 -329v-31q0 -249 59 -367t180 -118q111 0 165 113t54 366q0 247 -52 358 q-53 113 -171 113z"/>
<glyph glyph-name="ydieresis" horiz-adv-x="653" unicode="ÿ" d="M421 1389q0 43 19 62t43 19q25 0 44 -19t19 -62q0 -45 -19 -64q-20 -20 -44 -20q-23 0 -43 20q-19 19 -19 64zM116 1389q0 42 20 62q19 19 44 19q23 0 42 -19t19 -62q0 -45 -19 -64q-20 -20 -42 -20q-24 0 -44 20t-20 64zM281 2l-271 1083h96l164 -677q30 -129 56 -275h8 q21 143 53 277l160 675h96l-317 -1290q-35 -144 -91 -215q-57 -72 -151 -72q-37 0 -86 17v86q42 -14 78 -14q60 0 95 51q35 52 62 166z"/>
<glyph glyph-name="Amacron" horiz-adv-x="813" unicode="Ā" d="M181 1671h452v-82h-452v82zM561 629l-129 545q-22 103 -31 174q-9 -91 -28 -174l-125 -545h313zM713 0l-129 530h-355l-127 -530h-102l352 1462h101l360 -1462h-100z"/>
<glyph glyph-name="amacron" horiz-adv-x="784" unicode="ā" d="M175 1333h452v-82h-452v82zM334 61q101 0 158 101q57 100 57 284v113l-113 -6q-133 -8 -194 -72q-64 -67 -64 -192q0 -117 42 -173q42 -55 114 -55zM565 0l-12 152h-4q-78 -172 -236 -172q-105 0 -170 85t-65 226q0 156 93 246q94 91 261 98l117 6v90q0 151 -38 221 t-126 70q-93 0 -190 -61l-41 75q112 70 237 70q135 0 193 -84q59 -85 59 -283v-739h-78z"/>
<glyph glyph-name="Abreve" horiz-adv-x="813" unicode="Ă" d="M618 1817q-3 -108 -62 -172q-58 -62 -162 -62q-198 0 -211 234h68q8 -76 45 -112q40 -38 102 -38q128 0 148 150h72zM561 629l-129 545q-22 103 -31 174q-9 -91 -28 -174l-125 -545h313zM713 0l-129 530h-355l-127 -530h-102l352 1462h101l360 -1462h-100z"/>
<glyph glyph-name="abreve" horiz-adv-x="784" unicode="ă" d="M610 1479q-3 -107 -62 -171q-58 -63 -162 -63q-198 0 -211 234h68q8 -75 46 -112q40 -38 101 -38q129 0 148 150h72zM334 61q101 0 158 101q57 100 57 284v113l-113 -6q-133 -8 -194 -72q-64 -67 -64 -192q0 -117 42 -173q42 -55 114 -55zM565 0l-12 152h-4 q-78 -172 -236 -172q-105 0 -170 85t-65 226q0 156 93 246q94 91 261 98l117 6v90q0 151 -38 221t-126 70q-93 0 -190 -61l-41 75q112 70 237 70q135 0 193 -84q59 -85 59 -283v-739h-78z"/>
<glyph glyph-name="Aogonek" horiz-adv-x="813" unicode="Ą" d="M656 -260q0 -109 96 -109q39 0 57 9v-74q-30 -12 -75 -12q-168 0 -168 176q0 75 43 149q44 75 104 121h74q-71 -71 -101 -133q-30 -61 -30 -127zM561 629l-129 545q-22 103 -31 174q-9 -91 -28 -174l-125 -545h313zM713 0l-129 530h-355l-127 -530h-102l352 1462h101 l360 -1462h-100z"/>
<glyph glyph-name="aogonek" horiz-adv-x="784" unicode="ą" d="M508 -260q0 -109 96 -109q39 0 57 9v-74q-30 -12 -75 -12q-168 0 -168 176q0 75 43 149q44 75 104 121l-12 152h-4q-78 -172 -236 -172q-105 0 -170 85t-65 226q0 156 93 246q94 91 261 98l117 6v90q0 151 -38 221t-126 70q-93 0 -190 -61l-41 75q112 70 237 70 q135 0 193 -84q59 -85 59 -283v-739h-4q-71 -71 -101 -133q-30 -61 -30 -127zM334 61q101 0 158 101q57 100 57 284v113l-113 -6q-133 -8 -194 -72q-64 -67 -64 -192q0 -117 42 -173q42 -55 114 -55z"/>
<glyph glyph-name="Cacute" horiz-adv-x="860" unicode="Ć" d="M502 1579v21q126 164 191 307h125v-17q-38 -69 -118 -161q-77 -89 -151 -150h-47zM573 1391q-164 0 -262 -175t-98 -483q0 -201 45 -350q45 -150 129 -229q85 -80 195 -80q112 0 196 41v-90q-78 -45 -205 -45q-138 0 -243 90t-162 261t-57 404q0 350 125 550t339 200 q133 0 234 -62l-45 -86q-84 54 -191 54z"/>
<glyph glyph-name="cacute" horiz-adv-x="635" unicode="ć" d="M365 1241v21q126 164 191 307h125v-17q-37 -66 -119 -161q-80 -91 -150 -150h-47zM424 -20q-163 0 -246 142q-82 140 -82 415q0 277 84 423t246 146q101 0 168 -37l-37 -84q-66 31 -123 31q-239 0 -239 -477q0 -473 239 -473q70 0 154 32v-80q-31 -17 -81 -28 q-46 -10 -83 -10z"/>
<glyph glyph-name="Ccircumflex" horiz-adv-x="860" unicode="Ĉ" d="M753 1579q-42 42 -91 101l-97 112q-27 -31 -100 -114q-51 -58 -93 -99h-43v19q121 168 186 309h95q21 -48 79 -145q51 -85 111 -164v-19h-47zM573 1391q-164 0 -262 -175t-98 -483q0 -201 45 -350q45 -150 129 -229q85 -80 195 -80q112 0 196 41v-90q-78 -45 -205 -45 q-138 0 -243 90t-162 261t-57 404q0 350 125 550t339 200q133 0 234 -62l-45 -86q-84 54 -191 54z"/>
<glyph glyph-name="ccircumflex" horiz-adv-x="635" unicode="ĉ" d="M587 1241q-42 42 -91 101l-97 112q-72 -80 -101 -114q-56 -65 -92 -99h-43v19q121 168 186 309h95q23 -54 78 -145q47 -79 112 -164v-19h-47zM424 -20q-163 0 -246 142q-82 140 -82 415q0 277 84 423t246 146q101 0 168 -37l-37 -84q-66 31 -123 31q-239 0 -239 -477 q0 -473 239 -473q70 0 154 32v-80q-31 -17 -81 -28q-46 -10 -83 -10z"/>
<glyph glyph-name="Cdot" horiz-adv-x="860" unicode="Ċ" d="M510 1734q0 43 19 70q18 25 47 25q27 0 43 -25t16 -70q0 -43 -16 -68q-17 -26 -43 -26q-29 0 -47 26q-19 27 -19 68zM573 1391q-164 0 -262 -175t-98 -483q0 -201 45 -350q45 -150 129 -229q85 -80 195 -80q112 0 196 41v-90q-78 -45 -205 -45q-138 0 -243 90t-162 261 t-57 404q0 350 125 550t339 200q133 0 234 -62l-45 -86q-84 54 -191 54z"/>
<glyph glyph-name="cdot" horiz-adv-x="635" unicode="ċ" d="M362 1386q0 44 18 70q18 25 48 25q27 0 43 -25t16 -70q0 -43 -16 -68q-17 -26 -43 -26q-30 0 -48 26t-18 68zM424 -20q-163 0 -246 142q-82 140 -82 415q0 277 84 423t246 146q101 0 168 -37l-37 -84q-66 31 -123 31q-239 0 -239 -477q0 -473 239 -473q70 0 154 32v-80 q-31 -17 -81 -28q-46 -10 -83 -10z"/>
<glyph glyph-name="Ccaron" horiz-adv-x="860" unicode="Č" d="M810 1907v-19q-56 -72 -112 -165q-54 -90 -78 -144h-95q-71 149 -186 309v19h43q42 -41 93 -99q73 -83 100 -114l49 55q111 133 139 158h47zM573 1391q-164 0 -262 -175t-98 -483q0 -201 45 -350q45 -150 129 -229q85 -80 195 -80q112 0 196 41v-90q-78 -45 -205 -45 q-138 0 -243 90t-162 261t-57 404q0 350 125 550t339 200q133 0 234 -62l-45 -86q-84 54 -191 54z"/>
<glyph glyph-name="ccaron" horiz-adv-x="635" unicode="č" d="M646 1569v-19q-56 -72 -112 -165q-54 -90 -78 -144h-95q-71 149 -186 309v19h43q36 -34 92 -99q29 -34 101 -114l49 55q111 133 139 158h47zM424 -20q-163 0 -246 142q-82 140 -82 415q0 277 84 423t246 146q101 0 168 -37l-37 -84q-66 31 -123 31q-239 0 -239 -477 q0 -473 239 -473q70 0 154 32v-80q-31 -17 -81 -28q-46 -10 -83 -10z"/>
<glyph glyph-name="Dcaron" horiz-adv-x="995" unicode="Ď" d="M677 1907v-19q-56 -72 -112 -165q-54 -90 -78 -144h-95q-70 149 -186 309v19h43q47 -46 93 -98q7 -8 44 -50.5t56 -64.5l49 55q111 133 139 158h47zM782 739q0 310 -91 471q-92 162 -269 162h-164v-1282h156q191 0 279 166q89 167 89 483zM885 745q0 -745 -465 -745h-260 v1462h266q226 0 342 -182q117 -183 117 -535z"/>
<glyph glyph-name="dcaron" horiz-adv-x="893" unicode="ď" d="M823 1249q7 30 25 137q17 101 24 170h113v-20q-10 -55 -50 -154q-39 -98 -75 -153h-37v20zM416 63q113 0 175 106t62 310v62q0 247 -60 361t-181 114q-117 0 -168 -122q-51 -123 -51 -355t53 -355q52 -121 170 -121zM410 -20q-316 0 -316 561q0 278 79 421 q79 144 233 144q72 0 138 -42t105 -116h8l-4 121v487h95v-1556h-78l-8 152h-9q-39 -83 -101 -128q-60 -44 -142 -44z"/>
<glyph glyph-name="Dcroat" horiz-adv-x="995" unicode="Đ" d="M782 739q0 310 -91 471q-92 162 -269 162h-164v-581h225v-91h-225v-610h156q191 0 279 166q89 167 89 483zM885 745q0 -745 -465 -745h-260v700h-99v91h99v671h266q226 0 342 -182q117 -183 117 -535z"/>
<glyph glyph-name="dcroat" horiz-adv-x="893" unicode="đ" d="M416 63q113 0 175 110t62 335v33q0 247 -60 361t-181 114q-117 0 -168 -122q-51 -123 -51 -355t53 -355q52 -121 170 -121zM410 -20q-316 0 -316 561q0 278 79 421q79 144 233 144q73 0 138 -43q66 -43 105 -117h8l-4 123v209h-262v82h262v196h95v-196h118v-82h-118 v-1278h-78l-11 154h-8q-83 -174 -241 -174z"/>
<glyph glyph-name="Emacron" horiz-adv-x="788" unicode="Ē" d="M202 1671h452v-82h-452v82zM690 0h-530v1462h530v-94h-432v-555h408v-94h-408v-625h432v-94z"/>
<glyph glyph-name="emacron" horiz-adv-x="803" unicode="ē" d="M184 1333h452v-82h-452v82zM410 1020q-196 0 -215 -391h417q0 179 -54 285t-148 106zM453 -20q-172 0 -264 146q-93 147 -93 409q0 277 83 425q82 146 237 146q136 0 213 -128q78 -129 78 -347v-88h-514q1 -235 67 -355q64 -118 197 -118q103 0 215 67v-92 q-104 -65 -219 -65z"/>
<glyph glyph-name="Ebreve" horiz-adv-x="788" unicode="Ĕ" d="M646 1817q-3 -108 -62 -172q-58 -62 -162 -62q-198 0 -211 234h68q8 -75 46 -112q40 -38 101 -38q128 0 148 150h72zM690 0h-530v1462h530v-94h-432v-555h408v-94h-408v-625h432v-94z"/>
<glyph glyph-name="ebreve" horiz-adv-x="803" unicode="ĕ" d="M624 1479q-3 -110 -61 -172t-163 -62q-198 0 -211 234h68q8 -75 46 -112q40 -38 101 -38q128 0 148 150h72zM410 1020q-196 0 -215 -391h417q0 179 -54 285t-148 106zM453 -20q-172 0 -264 146q-93 147 -93 409q0 277 83 425q82 146 237 146q136 0 213 -128 q78 -129 78 -347v-88h-514q1 -235 67 -355q64 -118 197 -118q103 0 215 67v-92q-104 -65 -219 -65z"/>
<glyph glyph-name="Edotaccent" horiz-adv-x="788" unicode="Ė" d="M375 1695q0 43 19 70q18 25 47 25q27 0 43 -25t16 -70q0 -44 -16 -69t-43 -25q-29 0 -47 25q-19 27 -19 69zM690 0h-530v1462h530v-94h-432v-555h408v-94h-408v-625h432v-94z"/>
<glyph glyph-name="edotaccent" horiz-adv-x="803" unicode="ė" d="M342 1386q0 43 19 70q18 25 47 25q27 0 43 -25t16 -70q0 -44 -16 -69t-43 -25q-29 0 -47 25q-19 27 -19 69zM410 1020q-196 0 -215 -391h417q0 179 -54 285t-148 106zM453 -20q-172 0 -264 146q-93 147 -93 409q0 277 83 425q82 146 237 146q136 0 213 -128 q78 -129 78 -347v-88h-514q1 -235 67 -355q64 -118 197 -118q103 0 215 67v-92q-104 -65 -219 -65z"/>
<glyph glyph-name="Eogonek" horiz-adv-x="788" unicode="Ę" d="M492 -260q0 -109 96 -109q39 0 57 9v-74q-30 -12 -75 -12q-168 0 -168 176q0 75 43 149q44 75 104 121h74q-71 -71 -101 -133q-30 -61 -30 -127zM690 0h-530v1462h530v-94h-432v-555h408v-94h-408v-625h432v-94z"/>
<glyph glyph-name="eogonek" horiz-adv-x="803" unicode="ę" d="M516 -225q0 -109 96 -109q39 0 57 9v-74q-30 -12 -75 -12q-168 0 -168 176q0 75 43 149q23 40 51 72q-33 -6 -67 -6q-172 0 -264 146q-93 147 -93 409q0 277 83 425q82 146 237 146q136 0 213 -128q78 -129 78 -347v-88h-514q1 -235 67 -355q64 -118 197 -118 q103 0 215 67v-92q-22 -14 -34 -20q-66 -69 -92 -123q-30 -61 -30 -127zM410 1020q-196 0 -215 -391h417q0 179 -54 285t-148 106z"/>
<glyph glyph-name="Ecaron" horiz-adv-x="788" unicode="Ě" d="M673 1907v-19q-56 -72 -112 -165q-54 -90 -78 -144h-95q-70 149 -186 309v19h43q42 -41 93 -99q73 -83 100 -114l49 55q111 133 139 158h47zM690 0h-530v1462h530v-94h-432v-555h408v-94h-408v-625h432v-94z"/>
<glyph glyph-name="ecaron" horiz-adv-x="803" unicode="ě" d="M650 1569v-19q-56 -72 -112 -165q-54 -90 -78 -144h-95q-71 149 -186 309v19h43q42 -41 93 -99q73 -83 100 -114l49 55q111 133 139 158h47zM410 1020q-196 0 -215 -391h417q0 179 -54 285t-148 106zM453 -20q-172 0 -264 146q-93 147 -93 409q0 277 83 425 q82 146 237 146q136 0 213 -128q78 -129 78 -347v-88h-514q1 -235 67 -355q64 -118 197 -118q103 0 215 67v-92q-104 -65 -219 -65z"/>
<glyph glyph-name="Gcircumflex" horiz-adv-x="1075" unicode="Ĝ" d="M801 1579q-42 42 -91 101l-97 112q-72 -80 -101 -114q-56 -65 -92 -99h-43v19q121 168 186 309h95q23 -54 78 -145q47 -79 112 -164v-19h-47zM641 737h320v-692q-168 -65 -347 -65q-239 0 -371 200t-132 555t137 552q136 196 383 196q167 0 313 -94l-47 -86 q-137 88 -266 88q-205 0 -311 -169q-105 -168 -105 -489q0 -314 107 -487q106 -172 301 -172q141 0 239 37v532h-221v94z"/>
<glyph glyph-name="gcircumflex" horiz-adv-x="741" unicode="ĝ" d="M560 1241q-42 42 -91 101l-97 112q-72 -80 -101 -114q-56 -65 -92 -99h-43v19q122 168 186 309h95q23 -54 78 -145q47 -79 112 -164v-19h-47zM188 731q0 -134 49 -202t130 -68q174 0 174 280q0 135 -45 211t-129 76q-87 0 -133 -78q-46 -77 -46 -219zM129 -195 q0 -104 53 -161q54 -58 162 -58q135 0 212 70q79 71 79 192q0 97 -54 151t-155 54h-70q-98 0 -163 -69q-64 -68 -64 -179zM713 1085v-67l-148 -17q29 -37 49 -112q19 -70 19 -148q0 -159 -72 -256q-72 -98 -188 -98h-24l-21 2q-52 -37 -76 -68q-27 -35 -27 -79q0 -46 36 -72 q35 -25 97 -25h68q146 0 225 -75q80 -75 80 -217q0 -159 -108 -252t-283 -93q-148 0 -226 74q-79 75 -79 215q0 103 52 174q54 74 163 115q-52 24 -81 61q-30 39 -30 93q0 49 32 87q34 40 93 83q-84 38 -126 123t-42 200q0 173 73 273t200 100q67 0 114 -21h230z"/>
<glyph glyph-name="Gbreve" horiz-adv-x="1075" unicode="Ğ" d="M828 1817q-3 -108 -62 -172q-58 -62 -162 -62q-198 0 -211 234h68q8 -75 46 -112q40 -38 101 -38q128 0 148 150h72zM641 737h320v-692q-168 -65 -347 -65q-239 0 -371 200t-132 555t137 552q136 196 383 196q167 0 313 -94l-47 -86q-137 88 -266 88q-205 0 -311 -169 q-105 -168 -105 -489q0 -314 107 -487q106 -172 301 -172q141 0 239 37v532h-221v94z"/>
<glyph glyph-name="gbreve" horiz-adv-x="741" unicode="ğ" d="M587 1479q-3 -108 -62 -172q-58 -62 -162 -62q-197 0 -211 234h68q8 -75 46 -112q40 -38 101 -38q129 0 148 150h72zM188 731q0 -134 49 -202t130 -68q174 0 174 280q0 135 -45 211t-129 76q-87 0 -133 -78q-46 -77 -46 -219zM129 -195q0 -104 53 -161q54 -58 162 -58 q135 0 212 70q79 71 79 192q0 97 -54 151t-155 54h-70q-98 0 -163 -69q-64 -68 -64 -179zM713 1085v-67l-148 -17q29 -37 49 -112q19 -70 19 -148q0 -159 -72 -256q-72 -98 -188 -98h-24l-21 2q-52 -37 -76 -68q-27 -35 -27 -79q0 -46 36 -72q35 -25 97 -25h68 q146 0 225 -75q80 -75 80 -217q0 -159 -108 -252t-283 -93q-148 0 -226 74q-79 75 -79 215q0 103 52 174q54 74 163 115q-52 24 -81 61q-30 39 -30 93q0 49 32 87q34 40 93 83q-84 38 -126 123t-42 200q0 173 73 273t200 100q67 0 114 -21h230z"/>
<glyph glyph-name="Gdot" horiz-adv-x="1075" unicode="Ġ" d="M563 1724q0 43 19 70q18 25 47 25q27 0 43 -25t16 -70q0 -43 -16 -68q-17 -26 -43 -26q-29 0 -47 26q-19 27 -19 68zM641 737h320v-692q-168 -65 -347 -65q-239 0 -371 200t-132 555t137 552q136 196 383 196q167 0 313 -94l-47 -86q-137 88 -266 88q-205 0 -311 -169 q-105 -168 -105 -489q0 -314 107 -487q106 -172 301 -172q141 0 239 37v532h-221v94z"/>
<glyph glyph-name="gdot" horiz-adv-x="741" unicode="ġ" d="M307 1386q0 44 18 70q18 25 48 25q27 0 43 -25t16 -70q0 -43 -16 -68q-17 -26 -43 -26q-30 0 -48 26t-18 68zM188 731q0 -134 49 -202t130 -68q174 0 174 280q0 135 -45 211t-129 76q-87 0 -133 -78q-46 -77 -46 -219zM129 -195q0 -104 53 -161q54 -58 162 -58 q135 0 212 70q79 71 79 192q0 97 -54 151t-155 54h-70q-98 0 -163 -69q-64 -68 -64 -179zM713 1085v-67l-148 -17q29 -37 49 -112q19 -70 19 -148q0 -159 -72 -256q-72 -98 -188 -98h-24l-21 2q-52 -37 -76 -68q-27 -35 -27 -79q0 -46 36 -72q35 -25 97 -25h68 q146 0 225 -75q80 -75 80 -217q0 -159 -108 -252t-283 -93q-148 0 -226 74q-79 75 -79 215q0 103 52 174q54 74 163 115q-52 24 -81 61q-30 39 -30 93q0 49 32 87q34 40 93 83q-84 38 -126 123t-42 200q0 173 73 273t200 100q67 0 114 -21h230z"/>
<glyph glyph-name="Gcommaaccent" horiz-adv-x="1075" unicode="Ģ" d="M514 -432q21 55 46 150q24 90 30 157h111v-20q-21 -78 -63 -165q-42 -86 -83 -143h-41v21zM641 737h320v-692q-168 -65 -347 -65q-239 0 -371 200t-132 555t137 552q136 196 383 196q167 0 313 -94l-47 -86q-137 88 -266 88q-205 0 -311 -169q-105 -168 -105 -489 q0 -314 107 -487q106 -172 301 -172q141 0 239 37v532h-221v94z"/>
<glyph glyph-name="gcommaaccent" horiz-adv-x="741" unicode="ģ" d="M528 1548q-25 -38 -58 -136q-34 -101 -41 -171h-106v21q12 64 60 162q48 97 102 145h43v-21zM188 731q0 -134 49 -202t130 -68q174 0 174 280q0 135 -45 211t-129 76q-87 0 -133 -78q-46 -77 -46 -219zM129 -195q0 -104 53 -161q54 -58 162 -58q135 0 212 70 q79 71 79 192q0 97 -54 151t-155 54h-70q-98 0 -163 -69q-64 -68 -64 -179zM713 1085v-67l-148 -17q29 -37 49 -112q19 -70 19 -148q0 -159 -72 -256q-72 -98 -188 -98h-24l-21 2q-52 -37 -76 -68q-27 -35 -27 -79q0 -46 36 -72q35 -25 97 -25h68q146 0 225 -75 q80 -75 80 -217q0 -159 -108 -252t-283 -93q-148 0 -226 74q-79 75 -79 215q0 103 52 174q54 74 163 115q-52 24 -81 61q-30 39 -30 93q0 49 32 87q34 40 93 83q-84 38 -126 123t-42 200q0 173 73 273t200 100q67 0 114 -21h230z"/>
<glyph glyph-name="Hcircumflex" horiz-adv-x="1026" unicode="Ĥ" d="M701 1579q-42 42 -91 101l-97 112q-72 -80 -101 -114q-56 -65 -92 -99h-43v19q121 168 186 309h95q23 -54 78 -145q47 -79 112 -164v-19h-47zM866 0h-98v719h-510v-719h-98v1462h98v-649h510v649h98v-1462z"/>
<glyph glyph-name="hcircumflex" horiz-adv-x="870" unicode="ĥ" d="M624 1634q-42 42 -91 101l-97 112q-27 -31 -100 -114q-51 -59 -93 -99h-43v19q122 168 186 309h95q19 -44 79 -144q54 -90 111 -165v-19h-47zM635 0v748q0 148 -38 208q-39 62 -126 62q-114 0 -173 -102q-58 -101 -58 -322v-594h-95v1556h95v-505q0 -74 -4 -115h8 q32 81 96 126q63 44 135 44q137 0 196 -90q58 -89 58 -268v-748h-94z"/>
<glyph glyph-name="Hbar" horiz-adv-x="1026" unicode="Ħ" d="M768 815v279h-510v-279h510zM866 1184h160v-90h-160v-1094h-98v717h-510v-717h-98v1094h-160v90h160v278h98v-278h510v278h98v-278z"/>
<glyph glyph-name="hbar" horiz-adv-x="870" unicode="ħ" d="M635 0v748q0 148 -38 208q-39 62 -126 62q-114 0 -173 -102q-58 -101 -58 -322v-594h-95v1270h-118v84h118v202h95v-202h262v-84h-262v-219q0 -74 -4 -115h8q32 81 96 126q63 44 135 44q137 0 196 -90q58 -89 58 -268v-748h-94z"/>
<glyph glyph-name="Itilde" horiz-adv-x="418" unicode="Ĩ" d="M330 1581q-34 0 -69 20q-33 19 -65 43q-35 27 -59 44q-28 20 -50 20q-32 0 -53 -36q-22 -38 -31 -93h-74q12 96 53 154q41 57 113 57q34 0 68 -20t64 -44q24 -19 57 -43q28 -20 53 -20q35 0 53 36q17 33 26 93h74q-9 -100 -51 -156q-42 -55 -109 -55zM160 0v1462h98 v-1462h-98z"/>
<glyph glyph-name="itilde" horiz-adv-x="385" unicode="ĩ" d="M330 1243q-34 0 -69 20q-33 19 -65 43q-35 27 -59 44q-28 20 -50 20q-32 0 -53 -36q-22 -38 -31 -93h-74q12 96 53 154q41 57 113 57q34 0 68 -20t64 -44q24 -19 57 -43q28 -20 53 -20q35 0 53 36q17 33 26 93h74q-9 -100 -51 -156q-42 -55 -109 -55zM240 0h-95v1085h95 v-1085z"/>
<glyph glyph-name="Imacron" horiz-adv-x="418" unicode="Ī" d="M-15 1671h452v-82h-452v82zM160 0v1462h98v-1462h-98z"/>
<glyph glyph-name="imacron" horiz-adv-x="385" unicode="ī" d="M-31 1333h452v-82h-452v82zM240 0h-95v1085h95v-1085z"/>
<glyph glyph-name="Ibreve" horiz-adv-x="418" unicode="Ĭ" d="M427 1817q-3 -110 -61 -172t-163 -62q-197 0 -211 234h68q8 -75 46 -112q40 -38 101 -38q129 0 148 150h72zM160 0v1462h98v-1462h-98z"/>
<glyph glyph-name="ibreve" horiz-adv-x="385" unicode="ĭ" d="M407 1479q-3 -110 -61 -172t-163 -62q-197 0 -211 234h68q8 -75 46 -112q40 -38 101 -38q129 0 148 150h72zM240 0h-95v1085h95v-1085z"/>
<glyph glyph-name="Iogonek" horiz-adv-x="418" unicode="Į" d="M128 -260q0 -109 96 -109q39 0 57 9v-74q-30 -12 -75 -12q-168 0 -168 176q0 75 43 149q44 75 104 121h74q-71 -71 -101 -133q-30 -61 -30 -127zM160 0v1462h98v-1462h-98z"/>
<glyph glyph-name="iogonek" horiz-adv-x="385" unicode="į" d="M110 -260q0 -109 96 -109q39 0 57 9v-74q-30 -12 -75 -12q-168 0 -168 176q0 75 43 149q44 75 104 121h74q-71 -71 -101 -133q-30 -61 -30 -127zM131 1386q0 43 19 70q18 25 47 25q27 0 43 -25t16 -70q0 -43 -16 -68q-17 -26 -43 -26q-29 0 -47 26q-19 27 -19 68zM240 0 h-95v1085h95v-1085z"/>
<glyph glyph-name="Idotaccent" horiz-adv-x="418" unicode="İ" d="M147 1724q0 43 19 70q18 25 47 25q27 0 43 -25t16 -70q0 -43 -16 -68q-17 -26 -43 -26q-29 0 -47 26q-19 27 -19 68zM160 0v1462h98v-1462h-98z"/>
<glyph glyph-name="dotlessi" horiz-adv-x="385" unicode="ı" d="M240 0h-95v1085h95v-1085z"/>
<glyph glyph-name="IJ" d="M445 -369q-68 0 -117 25v92q51 -20 115 -20q62 0 94 58q31 56 31 189v1487h98v-1485q0 -171 -56 -259q-56 -87 -165 -87zM160 0v1462h98v-1462h-98z" unicode="Ĳ"/>
<glyph glyph-name="ij" horiz-adv-x="770" unicode="ĳ" d="M516 1386q0 43 19 70q18 25 47 25q27 0 43 -25t16 -70q0 -43 -16 -68q-17 -26 -43 -26q-29 0 -47 26q-19 27 -19 68zM448 -492q-41 0 -67 17v90q31 -16 63 -16q47 0 67 45q19 44 19 141v1300h95v-1286q0 -150 -43 -220q-44 -71 -134 -71zM131 1386q0 43 19 70 q18 25 47 25q27 0 43 -25t16 -70q0 -43 -16 -68q-17 -26 -43 -26q-29 0 -47 26q-19 27 -19 68zM240 0h-95v1085h95v-1085z"/>
<glyph glyph-name="Jcircumflex" horiz-adv-x="401" unicode="Ĵ" d="M386 1579q-42 42 -91 101l-97 112q-27 -31 -100 -114q-51 -58 -93 -99h-43v19q122 168 186 309h95q21 -48 79 -145q51 -85 111 -164v-19h-47zM27 -369q-68 0 -117 25v92q51 -20 115 -20q62 0 94 58q31 56 31 189v1487h98v-1485q0 -171 -56 -259q-56 -87 -165 -87z"/>
<glyph glyph-name="jcircumflex" horiz-adv-x="385" unicode="ĵ" d="M382 1241q-42 42 -91 101l-97 112q-27 -31 -100 -114q-51 -58 -93 -99h-43v19q122 168 186 309h95q21 -48 79 -145q51 -85 111 -164v-19h-47zM63 -492q-41 0 -67 17v90q31 -16 63 -16q47 0 67 45q19 44 19 141v1300h95v-1286q0 -150 -43 -220q-44 -71 -134 -71z"/>
<glyph glyph-name="Kcommaaccent" horiz-adv-x="825" unicode="Ķ" d="M351 -432q21 55 46 150q24 90 30 157h111v-20q-21 -78 -63 -165q-42 -86 -83 -143h-41v21zM825 0h-110l-344 729l-113 -149v-580h-98v1462h98v-774q51 96 432 774h107l-367 -643z"/>
<glyph glyph-name="kcommaaccent" horiz-adv-x="711" unicode="ķ" d="M271 -432q21 55 46 150q24 90 30 157h111v-20q-21 -78 -63 -165q-42 -86 -83 -143h-41v21zM242 537l61 110l268 438h103l-250 -399l272 -686h-100l-236 598l-120 -158v-440h-95v1556h95v-837l-7 -182h9z"/>
<glyph glyph-name="kgreenlandic" horiz-adv-x="711" unicode="ĸ" d="M242 537q32 62 42 79q23 40 287 469h103l-250 -399l272 -686h-100l-236 598l-120 -158v-440h-95v1085h95v-366q0 -112 -7 -182h9z"/>
<glyph glyph-name="Lacute" horiz-adv-x="711" unicode="Ĺ" d="M185 1579v21q126 164 191 307h125v-17q-37 -66 -119 -161q-80 -91 -150 -150h-47zM160 0v1462h98v-1368h412v-94h-510z"/>
<glyph glyph-name="lacute" horiz-adv-x="385" unicode="ĺ" d="M138 1636v21q126 164 191 307h125v-17q-38 -69 -118 -161q-77 -89 -151 -150h-47zM240 0h-95v1556h95v-1556z"/>
<glyph glyph-name="Lcommaaccent" horiz-adv-x="711" unicode="Ļ" d="M285 -432q21 55 46 150q24 90 30 157h111v-20q-21 -78 -63 -165q-42 -86 -83 -143h-41v21zM160 0v1462h98v-1368h412v-94h-510z"/>
<glyph glyph-name="lcommaaccent" horiz-adv-x="385" unicode="ļ" d="M62 -432q21 55 46 150q24 90 30 157h111v-20q-21 -78 -63 -165q-42 -86 -83 -143h-41v21zM240 0h-95v1556h95v-1556z"/>
<glyph glyph-name="Lcaron" horiz-adv-x="711" unicode="Ľ" d="M422 1156q11 45 26 136q14 83 23 171h113v-20q-10 -55 -50 -154q-39 -97 -75 -153h-37v20zM160 0v1462h98v-1368h412v-94h-510z"/>
<glyph glyph-name="lcaron" horiz-adv-x="385" unicode="ľ" d="M321 1249q8 32 25 136q16 99 24 171h113v-20q-11 -60 -49 -154q-37 -93 -76 -153h-37v20zM240 0h-95v1556h95v-1556z"/>
<glyph glyph-name="Ldot" horiz-adv-x="711" unicode="Ŀ" d="M500 707q0 45 18 70t48 25q27 0 43 -25t16 -70q0 -44 -16 -69t-43 -25q-30 0 -48 25q-18 26 -18 69zM160 0v1462h98v-1368h412v-94h-510z"/>
<glyph glyph-name="ldot" horiz-adv-x="457" unicode="ŀ" d="M362 674q0 44 18 70q18 25 48 25q27 0 43 -25t16 -70q0 -43 -16 -68q-17 -26 -43 -26q-30 0 -48 26q-18 25 -18 68zM240 0h-95v1556h95v-1556z"/>
<glyph glyph-name="Lslash" horiz-adv-x="711" unicode="Ł" d="M160 0v502h-2l-105 -64l-47 72l154 92v860h98v-803l260 156l45 -76l-305 -180v-465h412v-94h-510z"/>
<glyph glyph-name="lslash" horiz-adv-x="385" unicode="ł" d="M240 838l135 100l51 -70l-186 -135v-733h-95v666l-131 -95l-49 70l180 129v786h95v-718z"/>
<glyph glyph-name="Nacute" horiz-adv-x="1090" unicode="Ń" d="M479 1579v21q126 164 191 307h125v-17q-37 -66 -119 -161q-80 -91 -150 -150h-47zM930 0h-125l-553 1311h-8q12 -137 12 -262v-1049h-96v1462h127l549 -1296h6q-8 174 -8 274v1022h96v-1462z"/>
<glyph glyph-name="nacute" horiz-adv-x="870" unicode="ń" d="M382 1241v21q126 164 191 307h125v-17q-37 -66 -119 -161q-79 -91 -150 -150h-47zM635 0v748q0 270 -160 270q-122 0 -179 -101q-56 -99 -56 -321v-596h-95v1085h80l8 -151h9q35 83 98 127q64 45 137 45q126 0 189 -84t63 -272v-750h-94z"/>
<glyph glyph-name="Ncommaaccent" horiz-adv-x="1090" unicode="Ņ" d="M407 -432q21 55 46 150q24 90 30 157h111v-20q-21 -78 -63 -165q-42 -86 -83 -143h-41v21zM930 0h-125l-553 1311h-8q12 -137 12 -262v-1049h-96v1462h127l549 -1296h6q-8 174 -8 274v1022h96v-1462z"/>
<glyph glyph-name="ncommaaccent" horiz-adv-x="870" unicode="ņ" d="M302 -432q21 55 46 150q24 90 30 157h111v-20q-21 -78 -63 -165q-42 -86 -83 -143h-41v21zM635 0v748q0 270 -160 270q-122 0 -179 -101q-56 -99 -56 -321v-596h-95v1085h80l8 -151h9q35 83 98 127q64 45 137 45q126 0 189 -84t63 -272v-750h-94z"/>
<glyph glyph-name="Ncaron" horiz-adv-x="1090" unicode="Ň" d="M755 1907v-19q-56 -72 -112 -165q-54 -90 -78 -144h-95q-70 149 -186 309v19h43q47 -46 93 -98q7 -8 44 -50.5t56 -64.5l49 55q111 133 139 158h47zM930 0h-125l-553 1311h-8q12 -137 12 -262v-1049h-96v1462h127l549 -1296h6q-8 174 -8 274v1022h96v-1462z"/>
<glyph glyph-name="ncaron" horiz-adv-x="870" unicode="ň" d="M664 1569v-19q-56 -72 -112 -165q-54 -90 -78 -144h-95q-71 149 -186 309v19h43q36 -34 92 -99q29 -34 101 -114l49 55q111 133 139 158h47zM635 0v748q0 270 -160 270q-122 0 -179 -101q-56 -99 -56 -321v-596h-95v1085h80l8 -151h9q35 83 98 127q64 45 137 45 q126 0 189 -84t63 -272v-750h-94z"/>
<glyph glyph-name="napostrophe" horiz-adv-x="944" unicode="ŉ" d="M230 1440q-66 -221 -166 -447h-63q74 252 100 469h115zM709 0v748q0 270 -160 270q-122 0 -179 -101q-56 -99 -56 -321v-596h-95v1085h80l8 -151h9q35 83 98 127q65 45 137 45q126 0 189 -84t63 -272v-750h-94z"/>
<glyph glyph-name="Eng" horiz-adv-x="1090" unicode="Ŋ" d="M930 -23q0 -171 -56 -259q-56 -87 -165 -87q-68 0 -117 25v92q51 -20 115 -20q63 0 95 58t32 189v25l-582 1311h-8q12 -137 12 -262v-1049h-96v1462h127l549 -1237h6q-8 162 -8 267v970h96v-1485z"/>
<glyph glyph-name="eng" horiz-adv-x="870" unicode="ŋ" d="M553 -492q-39 0 -68 17v90q33 -16 64 -16q86 0 86 186v963q0 264 -172 264q-118 0 -170 -100q-53 -101 -53 -316v-596h-95v1085h80l8 -151h7q33 79 98 126q64 46 139 46q134 0 193 -94t59 -303v-910q0 -291 -176 -291z"/>
<glyph glyph-name="Omacron" horiz-adv-x="1065" unicode="Ō" d="M315 1671h452v-82h-452v82zM213 733q0 -325 81 -492t238 -167t238 165q82 167 82 494q0 325 -80 491q-80 165 -237 165q-160 0 -241 -167q-81 -168 -81 -489zM954 733q0 -363 -108 -558t-314 -195q-207 0 -314 197t-107 558q0 379 106 563q107 185 318 185 q204 0 311 -194q108 -195 108 -556z"/>
<glyph glyph-name="omacron" horiz-adv-x="850" unicode="ō" d="M212 1333h452v-82h-452v82zM193 545q0 -234 56 -355q55 -120 175 -120q233 0 233 475q0 471 -233 471q-122 0 -176 -118q-55 -121 -55 -353zM756 545q0 -275 -86 -419q-87 -146 -248 -146q-160 0 -244 146t-84 419q0 561 332 561q156 0 243 -147t87 -414z"/>
<glyph glyph-name="Obreve" horiz-adv-x="1065" unicode="Ŏ" d="M757 1817q-3 -109 -61 -171q-58 -63 -163 -63q-197 0 -211 234h68q8 -75 46 -112q40 -38 101 -38q129 0 148 150h72zM213 733q0 -325 81 -492t238 -167t238 165q82 167 82 494q0 325 -80 491q-80 165 -237 165q-160 0 -241 -167q-81 -168 -81 -489zM954 733 q0 -363 -108 -558t-314 -195q-207 0 -314 197t-107 558q0 379 106 563q107 185 318 185q204 0 311 -194q108 -195 108 -556z"/>
<glyph glyph-name="obreve" horiz-adv-x="850" unicode="ŏ" d="M640 1479q-3 -107 -62 -171q-58 -63 -162 -63q-198 0 -211 234h68q8 -75 46 -112q40 -38 101 -38q128 0 148 150h72zM193 545q0 -234 56 -355q55 -120 175 -120q233 0 233 475q0 471 -233 471q-122 0 -176 -118q-55 -121 -55 -353zM756 545q0 -275 -86 -419 q-87 -146 -248 -146q-160 0 -244 146t-84 419q0 561 332 561q156 0 243 -147t87 -414z"/>
<glyph glyph-name="Ohungarumlaut" horiz-adv-x="1065" unicode="Ő" d="M621 1579v21q42 55 93 150q51 96 77 157h119v-17q-37 -72 -109 -164q-73 -93 -133 -147h-47zM355 1579v21q42 55 93 150q51 96 77 157h119v-17q-38 -68 -110 -164q-68 -90 -132 -147h-47zM213 733q0 -325 81 -492t238 -167t238 165q82 167 82 494q0 325 -80 491 q-80 165 -237 165q-160 0 -241 -167q-81 -168 -81 -489zM954 733q0 -363 -108 -558t-314 -195q-207 0 -314 197t-107 558q0 379 106 563q107 185 318 185q204 0 311 -194q108 -195 108 -556z"/>
<glyph glyph-name="ohungarumlaut" horiz-adv-x="850" unicode="ő" d="M480 1241v21q42 55 93 150q51 96 77 157h119v-17q-37 -72 -109 -164q-73 -93 -133 -147h-47zM214 1241v21q42 55 93 150q51 96 77 157h119v-17q-38 -68 -110 -164q-67 -90 -132 -147h-47zM193 545q0 -234 56 -355q55 -120 175 -120q233 0 233 475q0 471 -233 471 q-122 0 -176 -118q-55 -121 -55 -353zM756 545q0 -275 -86 -419q-87 -146 -248 -146q-160 0 -244 146t-84 419q0 561 332 561q156 0 243 -147t87 -414z"/>
<glyph glyph-name="OE" horiz-adv-x="1233" unicode="Œ" d="M215 733q0 -340 93 -493q92 -152 296 -152v1286q-202 0 -295 -150q-94 -152 -94 -491zM1135 0h-424l-125 -6q-475 0 -475 741q0 363 124 549q123 184 359 184l115 -6h426v-94h-433v-555h408v-94h-408v-625h433v-94z"/>
<glyph glyph-name="oe" horiz-adv-x="1362" unicode="œ" d="M969 1018q-195 0 -215 -389h417v12q0 169 -55 274q-54 103 -147 103zM193 545q0 -479 231 -479t231 454v25q0 471 -231 471q-123 0 -177 -118t-54 -353zM1012 -20q-218 0 -307 231q-79 -231 -283 -231q-160 0 -244 146t-84 419q0 561 332 561q193 0 276 -227 q80 227 273 227q136 0 213 -128q78 -129 78 -347v-88h-514q4 -477 264 -477q103 0 215 67v-88q-104 -65 -219 -65z"/>
<glyph glyph-name="Racute" horiz-adv-x="870" unicode="Ŕ" d="M355 1579v21q126 164 191 307h125v-17q-37 -66 -119 -161q-80 -91 -150 -150h-47zM258 729h137q133 0 205 82q72 83 72 244q0 164 -74 238q-73 73 -231 73h-109v-637zM258 639v-639h-98v1462h200q214 0 313 -101t99 -302q0 -153 -54 -250q-54 -98 -181 -147l290 -662 h-110l-273 639h-186z"/>
<glyph glyph-name="racute" horiz-adv-x="559" unicode="ŕ" d="M255 1241v21q126 164 191 307h125v-17q-37 -66 -119 -161q-80 -91 -150 -150h-47zM446 1106q50 0 95 -14l-23 -95q-36 15 -74 15q-55 0 -103 -57q-47 -55 -74 -157q-27 -100 -27 -223v-575h-95v1085h78l10 -190h7q76 211 206 211z"/>
<glyph glyph-name="Rcommaaccent" horiz-adv-x="870" unicode="Ŗ" d="M324 -432q21 55 46 150q24 90 30 157h111v-20q-21 -78 -63 -165q-42 -86 -83 -143h-41v21zM258 729h137q133 0 205 82q72 83 72 244q0 164 -74 238q-73 73 -231 73h-109v-637zM258 639v-639h-98v1462h200q214 0 313 -101t99 -302q0 -153 -54 -250q-54 -98 -181 -147 l290 -662h-110l-273 639h-186z"/>
<glyph glyph-name="rcommaaccent" horiz-adv-x="559" unicode="ŗ" d="M68 -432q21 55 46 150q24 90 30 157h111v-20q-21 -78 -63 -165q-42 -86 -83 -143h-41v21zM446 1106q50 0 95 -14l-23 -95q-36 15 -74 15q-55 0 -103 -57q-47 -55 -74 -157q-27 -100 -27 -223v-575h-95v1085h78l10 -190h7q76 211 206 211z"/>
<glyph glyph-name="Rcaron" horiz-adv-x="870" unicode="Ř" d="M673 1907v-19q-56 -72 -112 -165q-54 -90 -78 -144h-95q-70 149 -186 309v19h43q42 -41 93 -99q73 -83 100 -114l49 55q111 133 139 158h47zM258 729h137q133 0 205 82q72 83 72 244q0 164 -74 238q-73 73 -231 73h-109v-637zM258 639v-639h-98v1462h200q214 0 313 -101 t99 -302q0 -153 -54 -250q-54 -98 -181 -147l290 -662h-110l-273 639h-186z"/>
<glyph glyph-name="rcaron" horiz-adv-x="559" unicode="ř" d="M568 1569v-19q-56 -72 -112 -165q-54 -90 -78 -144h-95q-71 149 -186 309v19h43q36 -34 92 -99q29 -34 101 -114l49 55q111 133 139 158h47zM446 1106q50 0 95 -14l-23 -95q-36 15 -74 15q-55 0 -103 -57q-47 -55 -74 -157q-27 -100 -27 -223v-575h-95v1085h78l10 -190h7 q76 211 206 211z"/>
<glyph glyph-name="Sacute" horiz-adv-x="809" unicode="Ś" d="M380 1579v21q126 164 191 307h125v-17q-37 -66 -119 -161q-79 -91 -150 -150h-47zM721 383q0 -181 -100 -291q-101 -112 -254 -112q-175 0 -281 51v106q56 -30 129 -46q79 -17 152 -17q112 0 184 85t72 216q0 121 -51 192q-52 72 -195 142q-115 58 -169 111 q-57 55 -83 124q-27 70 -27 170q0 107 44 192t123 131t173 46q87 0 154 -19q74 -21 110 -41l-38 -94q-111 57 -226 57q-108 0 -176 -74q-67 -73 -67 -194q0 -124 49 -191q50 -67 192 -141q146 -71 216 -168q69 -96 69 -235z"/>
<glyph glyph-name="sacute" horiz-adv-x="645" unicode="ś" d="M273 1241v21q126 164 191 307h125v-17q-37 -66 -119 -161q-80 -91 -150 -150h-47zM571 272q0 -137 -72 -215q-71 -77 -208 -77q-76 0 -130 19q-55 19 -87 42v111q38 -38 98 -60t125 -22q84 0 132 55t48 147q0 71 -35 121q-36 52 -131 113q-111 70 -151 112q-43 44 -64 94 q-22 51 -22 124q0 117 79 193q80 77 201 77q130 0 219 -62l-49 -83q-82 55 -174 55q-84 0 -134 -50t-50 -130q0 -74 34 -121q34 -48 144 -117q103 -67 148 -114q40 -41 60 -94q19 -50 19 -118z"/>
<glyph glyph-name="Scircumflex" horiz-adv-x="809" unicode="Ŝ" d="M615 1579q-42 42 -91 101l-97 112q-72 -80 -101 -114q-56 -65 -92 -99h-43v19q121 168 186 309h95q22 -50 78 -144q50 -84 112 -165v-19h-47zM721 383q0 -181 -100 -291q-101 -112 -254 -112q-175 0 -281 51v106q56 -30 129 -46q79 -17 152 -17q112 0 184 85t72 216 q0 121 -51 192q-52 72 -195 142q-115 58 -169 111q-57 55 -83 124q-27 70 -27 170q0 107 44 192t123 131t173 46q87 0 154 -19q74 -21 110 -41l-38 -94q-111 57 -226 57q-108 0 -176 -74q-67 -73 -67 -194q0 -124 49 -191q50 -67 192 -141q146 -71 216 -168q69 -96 69 -235z "/>
<glyph glyph-name="scircumflex" horiz-adv-x="645" unicode="ŝ" d="M523 1241q-42 42 -91 101l-97 112q-33 -37 -101 -115q-51 -58 -92 -98h-43v19q121 168 186 309h95q23 -54 78 -145q47 -79 112 -164v-19h-47zM571 272q0 -137 -72 -215q-71 -77 -208 -77q-76 0 -130 19q-55 19 -87 42v111q38 -38 98 -60t125 -22q84 0 132 55t48 147 q0 71 -35 121q-36 52 -131 113q-111 70 -151 112q-43 44 -64 94q-22 51 -22 124q0 117 79 193q80 77 201 77q130 0 219 -62l-49 -83q-82 55 -174 55q-84 0 -134 -50t-50 -130q0 -74 34 -121q34 -48 144 -117q103 -67 148 -114q40 -41 60 -94q19 -50 19 -118z"/>
<glyph glyph-name="Scedilla" horiz-adv-x="809" unicode="Ş" d="M496 -291q0 -100 -62 -150q-63 -51 -172 -51q-61 0 -86 11v78q33 -11 78 -11q76 0 115 34q37 33 37 87q0 61 -44 91q-43 30 -122 42l64 142q-134 8 -218 49v106q56 -30 129 -46q79 -17 152 -17q112 0 184 85t72 216q0 121 -51 192q-52 72 -195 142q-115 58 -169 111 q-57 55 -83 124q-27 70 -27 170q0 107 44 192t123 131t173 46q87 0 154 -19q74 -21 110 -41l-38 -94q-111 57 -226 57q-108 0 -176 -74q-67 -73 -67 -194q0 -124 49 -191q50 -67 192 -141q146 -71 216 -168q69 -96 69 -235q0 -181 -100 -291q-96 -107 -243 -112l-42 -95 q160 -39 160 -176z"/>
<glyph glyph-name="scedilla" horiz-adv-x="645" unicode="ş" d="M451 -291q0 -100 -63 -151q-62 -50 -171 -50q-61 0 -86 11v78q33 -11 78 -11q77 0 115 33q37 33 37 88q0 60 -44 90q-45 31 -122 43l63 141q-53 3 -97 18q-55 19 -87 42v111q38 -38 98 -60t125 -22q84 0 132 55t48 147q0 71 -35 121q-36 52 -131 113q-111 70 -151 112 q-43 44 -64 94q-22 51 -22 124q0 117 79 193q80 77 201 77q130 0 219 -62l-49 -83q-82 55 -174 55q-84 0 -134 -50t-50 -130q0 -74 34 -121q34 -48 144 -117q103 -67 148 -114q40 -41 60 -94q19 -50 19 -118q0 -137 -72 -215q-60 -65 -165 -75l-43 -97q160 -39 160 -176z "/>
<glyph glyph-name="Scaron" horiz-adv-x="809" unicode="Š" d="M675 1907v-19q-56 -72 -112 -165q-54 -90 -78 -144h-95q-70 149 -186 309v19h43q41 -40 92 -98q68 -78 101 -115l49 55q111 133 139 158h47zM721 383q0 -181 -100 -291q-101 -112 -254 -112q-175 0 -281 51v106q56 -30 129 -46q79 -17 152 -17q112 0 184 85t72 216 q0 121 -51 192q-52 72 -195 142q-115 58 -169 111q-57 55 -83 124q-27 70 -27 170q0 107 44 192t123 131t173 46q87 0 154 -19q74 -21 110 -41l-38 -94q-111 57 -226 57q-108 0 -176 -74q-67 -73 -67 -194q0 -124 49 -191q50 -67 192 -141q146 -71 216 -168q69 -96 69 -235z "/>
<glyph glyph-name="scaron" horiz-adv-x="645" unicode="š" d="M572 1569v-19q-56 -72 -112 -165q-54 -90 -78 -144h-95q-71 149 -186 309v19h43q36 -34 92 -99q29 -34 101 -114l49 55q111 133 139 158h47zM571 272q0 -137 -72 -215q-71 -77 -208 -77q-76 0 -130 19q-55 19 -87 42v111q38 -38 98 -60t125 -22q84 0 132 55t48 147 q0 71 -35 121q-36 52 -131 113q-111 70 -151 112q-43 44 -64 94q-22 51 -22 124q0 117 79 193q80 77 201 77q130 0 219 -62l-49 -83q-82 55 -174 55q-84 0 -134 -50t-50 -130q0 -74 34 -121q34 -48 144 -117q103 -67 148 -114q40 -41 60 -94q19 -50 19 -118z"/>
<glyph glyph-name="Tcedilla" horiz-adv-x="711" unicode="Ţ" d="M504 -291q0 -101 -62 -151t-172 -50q-61 0 -86 11v78q33 -11 78 -11q76 0 115 34q37 33 37 87q0 61 -44 91q-43 30 -122 42l72 160h-15v1368h-291v94h680v-94h-291v-1368h-8l-51 -115q160 -39 160 -176z"/>
<glyph glyph-name="tcedilla" horiz-adv-x="449" unicode="ţ" d="M434 -291q0 -101 -62 -151t-172 -50q-61 0 -86 11v78q33 -11 78 -11q76 0 115 34q37 33 37 87q0 61 -44 91q-43 30 -122 42l68 151q30 -11 63 -11h7l-42 -95q160 -39 160 -176zM344 68q-60 0 -84 40t-24 150v743h172v84h-172v258h-66l-31 -258l-96 -28v-56h98v-770 q0 -198 105 -240l4 9h75l-9 -20q66 2 106 20v80q-34 -12 -78 -12z"/>
<glyph glyph-name="Tcaron" horiz-adv-x="711" unicode="Ť" d="M591 1907v-19q-56 -72 -112 -165q-54 -90 -78 -144h-95q-70 149 -186 309v19h43q42 -41 93 -99q73 -83 100 -114l49 55q111 133 139 158h47zM403 0h-98v1368h-291v94h680v-94h-291v-1368z"/>
<glyph glyph-name="tcaron" horiz-adv-x="449" unicode="ť" d="M378 1249q11 45 26 136q14 83 23 171h113v-20q-10 -55 -50 -154q-39 -98 -75 -153h-37v20zM344 68q44 0 78 12v-80q-45 -20 -113 -20q-168 0 -168 251v770h-98v56l96 28l31 258h66v-258h172v-84h-172v-743q0 -110 24 -150t84 -40z"/>
<glyph glyph-name="Tbar" horiz-adv-x="711" unicode="Ŧ" d="M403 0h-98v700h-225v91h225v575h-291v96h680v-96h-291v-575h226v-91h-226v-700z"/>
<glyph glyph-name="tbar" horiz-adv-x="449" unicode="ŧ" d="M43 688h98v313h-98v56l96 28l31 258h66v-258h172v-84h-172v-313h172v-84h-172v-346q0 -110 24 -150t84 -40q44 0 78 12v-80q-45 -20 -113 -20q-168 0 -168 251v373h-98v84z"/>
<glyph glyph-name="Utilde" horiz-adv-x="1012" unicode="Ũ" d="M636 1581q-34 0 -69 20q-28 16 -65 44q-10 7 -59 43q-28 20 -50 20q-32 0 -53 -36q-22 -38 -31 -93h-74q12 96 53 154q41 57 113 57q34 0 68 -20q35 -21 63 -43q27 -22 58 -44q28 -20 53 -20q34 0 52 36t27 93h74q-9 -100 -51 -156q-42 -55 -109 -55zM864 1462v-987 q0 -495 -354 -495q-177 0 -270 128q-93 127 -93 367v987h99v-999q0 -191 68 -289q70 -100 196 -100t191 100t65 293v995h98z"/>
<glyph glyph-name="utilde" horiz-adv-x="870" unicode="ũ" d="M570 1243q-34 0 -69 20q-33 19 -65 43q-35 27 -59 44q-28 20 -50 20q-33 0 -54 -36t-30 -93h-74q12 96 53 154q40 57 113 57q34 0 68 -20q31 -18 63 -44q14 -11 58 -43q28 -20 53 -20q34 0 52 36t27 93h74q-9 -100 -51 -156q-42 -55 -109 -55zM236 1085v-708 q0 -163 38 -235q39 -74 119 -74q122 0 180 100q58 101 58 321v596h94v-1085h-80l-12 152h-8q-34 -82 -97 -128q-60 -44 -135 -44q-131 0 -191 93q-61 95 -61 304v708h95z"/>
<glyph glyph-name="Umacron" horiz-adv-x="1012" unicode="Ū" d="M296 1671h452v-82h-452v82zM864 1462v-987q0 -495 -354 -495q-177 0 -270 128q-93 127 -93 367v987h99v-999q0 -191 68 -289q70 -100 196 -100t191 100t65 293v995h98z"/>
<glyph glyph-name="umacron" horiz-adv-x="870" unicode="ū" d="M218 1333h452v-82h-452v82zM236 1085v-708q0 -163 38 -235q39 -74 119 -74q122 0 180 100q58 101 58 321v596h94v-1085h-80l-12 152h-8q-34 -82 -97 -128q-60 -44 -135 -44q-131 0 -191 93q-61 95 -61 304v708h95z"/>
<glyph glyph-name="Ubreve" horiz-adv-x="1012" unicode="Ŭ" d="M720 1817q-3 -107 -62 -171q-58 -63 -162 -63q-198 0 -211 234h68q8 -76 45 -112q40 -38 102 -38q128 0 148 150h72zM864 1462v-987q0 -495 -354 -495q-177 0 -270 128q-93 127 -93 367v987h99v-999q0 -191 68 -289q70 -100 196 -100t191 100t65 293v995h98z"/>
<glyph glyph-name="ubreve" horiz-adv-x="870" unicode="ŭ" d="M644 1479q-3 -108 -62 -172q-58 -62 -162 -62q-198 0 -211 234h68q8 -76 45 -112q40 -38 102 -38q128 0 148 150h72zM236 1085v-708q0 -163 38 -235q39 -74 119 -74q122 0 180 100q58 101 58 321v596h94v-1085h-80l-12 152h-8q-34 -82 -97 -128q-60 -44 -135 -44 q-131 0 -191 93q-61 95 -61 304v708h95z"/>
<glyph glyph-name="Uring" horiz-adv-x="1012" unicode="Ů" d="M628 1776q0 52 -31 84t-90 32q-56 0 -88 -32q-33 -33 -33 -84q0 -54 30 -85q30 -32 91 -32q53 0 87 32t34 85zM706 1780q0 -89 -54 -140t-145 -51q-93 0 -146 51t-53 136q0 86 53 136t146 50q88 0 143 -49q56 -50 56 -133zM864 1462v-987q0 -495 -354 -495 q-177 0 -270 128q-93 127 -93 367v987h99v-999q0 -191 68 -289q70 -100 196 -100t191 100t65 293v995h98z"/>
<glyph glyph-name="uring" horiz-adv-x="870" unicode="ů" d="M554 1438q0 51 -31 83q-31 33 -90 33q-55 0 -88 -33t-33 -83q0 -54 30 -85q30 -32 91 -32q53 0 87 32t34 85zM632 1442q0 -89 -54 -140t-145 -51q-95 0 -146 50q-53 51 -53 137q0 85 53 135q54 51 146 51q87 0 143 -50t56 -132zM236 1085v-708q0 -163 38 -235 q39 -74 119 -74q122 0 180 100q58 101 58 321v596h94v-1085h-80l-12 152h-8q-34 -82 -97 -128q-60 -44 -135 -44q-131 0 -191 93q-61 95 -61 304v708h95z"/>
<glyph glyph-name="Uhungarumlaut" horiz-adv-x="1012" unicode="Ű" d="M555 1579v21q42 55 93 150q51 96 77 157h119v-17q-35 -69 -110 -164q-76 -96 -132 -147h-47zM289 1579v21q42 55 93 150q51 96 77 157h119v-17q-38 -68 -110 -164q-68 -90 -132 -147h-47zM864 1462v-987q0 -495 -354 -495q-177 0 -270 128q-93 127 -93 367v987h99v-999 q0 -191 68 -289q70 -100 196 -100t191 100t65 293v995h98z"/>
<glyph glyph-name="uhungarumlaut" horiz-adv-x="870" unicode="ű" d="M497 1241v21q42 55 93 150q51 96 77 157h119v-17q-35 -69 -110 -164q-76 -96 -132 -147h-47zM231 1241v21q44 57 93 149q49 93 77 158h119v-17q-41 -72 -110 -165q-65 -87 -132 -146h-47zM236 1085v-708q0 -163 38 -235q39 -74 119 -74q122 0 180 100q58 101 58 321v596 h94v-1085h-80l-12 152h-8q-34 -82 -97 -128q-60 -44 -135 -44q-131 0 -191 93q-61 95 -61 304v708h95z"/>
<glyph glyph-name="Uogonek" horiz-adv-x="1012" unicode="Ų" d="M484 -260q0 -109 96 -109q39 0 57 9v-74q-30 -12 -75 -12q-168 0 -168 176q0 75 43 149q33 57 80 101h-7q-177 0 -270 128q-93 127 -93 367v987h99v-999q0 -191 68 -289q70 -100 196 -100t191 100t65 293v995h98v-987q0 -423 -258 -484q-65 -68 -92 -124 q-30 -61 -30 -127z"/>
<glyph glyph-name="uogonek" horiz-adv-x="870" unicode="ų" d="M588 -260q0 -109 96 -109q39 0 57 9v-74q-30 -12 -75 -12q-168 0 -168 176q0 75 43 149q44 75 104 121h74q-71 -71 -101 -133q-30 -61 -30 -127zM236 1085v-708q0 -163 38 -235q39 -74 119 -74q122 0 180 100q58 101 58 321v596h94v-1085h-80l-12 152h-8 q-34 -82 -97 -128q-60 -44 -135 -44q-131 0 -191 93q-61 95 -61 304v708h95z"/>
<glyph glyph-name="Wcircumflex" horiz-adv-x="1395" unicode="Ŵ" d="M883 1579q-42 42 -91 101l-97 112q-27 -31 -100 -114q-51 -58 -93 -99h-43v19q121 168 186 309h95q21 -48 79 -145q51 -85 111 -164v-19h-47zM1284 1462h100l-311 -1462h-119l-223 1094q-7 32 -35 239l-14 -95l-23 -142l-219 -1096h-116l-314 1462h103l206 -1007 q49 -254 62 -344q22 159 57 340l205 1011h111l204 -1007q34 -179 46 -270l10 -74q28 209 57 344z"/>
<glyph glyph-name="wcircumflex" horiz-adv-x="1124" unicode="ŵ" d="M753 1241q-42 42 -91 101l-97 112q-72 -80 -101 -114q-56 -65 -92 -99h-43v19q121 168 186 309h95q23 -54 78 -145q47 -79 112 -164v-19h-47zM748 0l-150 735q0 2 -1.5 8t-2.5 9q0 1 -3.5 23t-11 68.5t-16.5 100.5h-2l-14 -85l-23 -124l-155 -735h-113l-236 1085h95 l135 -632l63 -330h6q19 149 58 332l135 630h100l136 -632q16 -71 57 -330h6q4 41 29 166q17 86 170 796h94l-244 -1085h-112z"/>
<glyph glyph-name="Ycircumflex" horiz-adv-x="686" unicode="Ŷ" d="M534 1579q-42 42 -91 101l-97 112q-27 -31 -100 -114q-51 -58 -93 -99h-43v19q122 168 186 309h95q21 -48 79 -145q51 -85 111 -164v-19h-47zM344 707l238 755h104l-295 -891v-571h-98v571l-293 891h104z"/>
<glyph glyph-name="ycircumflex" horiz-adv-x="653" unicode="ŷ" d="M517 1241q-42 42 -91 101l-97 112q-72 -80 -101 -114q-56 -65 -92 -99h-43v19q121 168 186 309h95q23 -54 78 -145q47 -79 112 -164v-19h-47zM281 2l-271 1083h96l164 -677q30 -129 56 -275h8q21 143 53 277l160 675h96l-317 -1290q-35 -144 -91 -215q-57 -72 -151 -72 q-37 0 -86 17v86q42 -14 78 -14q60 0 95 51q35 52 62 166z"/>
<glyph glyph-name="Ydieresis" horiz-adv-x="686" unicode="Ÿ" d="M435 1727q0 43 19 62t43 19q25 0 44 -19t19 -62q0 -45 -19 -64q-20 -20 -44 -20q-23 0 -43 20q-19 19 -19 64zM130 1727q0 42 20 62q19 19 44 19q23 0 42 -19t19 -62q0 -45 -19 -64q-20 -20 -42 -20q-24 0 -44 20t-20 64zM344 707l238 755h104l-295 -891v-571h-98v571 l-293 891h104z"/>
<glyph glyph-name="Zacute" horiz-adv-x="643" unicode="Ź" d="M238 1579v21q126 164 191 307h125v-17q-38 -69 -118 -161q-77 -89 -151 -150h-47zM602 0h-545v88l424 1278h-418v96h527v-90l-430 -1278h442v-94z"/>
<glyph glyph-name="zacute" horiz-adv-x="541" unicode="ź" d="M185 1241v21q126 164 191 307h125v-17q-37 -66 -119 -161q-80 -91 -150 -150h-47zM494 0h-435v76l320 925h-299v84h399v-77l-319 -924h334v-84z"/>
<glyph glyph-name="Zdotaccent" horiz-adv-x="643" unicode="Ż" d="M244 1724q0 44 18 70q18 25 48 25q27 0 43 -25t16 -70q0 -43 -16 -68q-17 -26 -43 -26q-30 0 -48 26t-18 68zM602 0h-545v88l424 1278h-418v96h527v-90l-430 -1278h442v-94z"/>
<glyph glyph-name="zdotaccent" horiz-adv-x="541" unicode="ż" d="M209 1386q0 43 19 70q18 25 47 25q27 0 43 -25t16 -70q0 -43 -16 -68q-17 -26 -43 -26q-29 0 -47 26q-19 27 -19 68zM494 0h-435v76l320 925h-299v84h399v-77l-319 -924h334v-84z"/>
<glyph glyph-name="Zcaron" horiz-adv-x="643" unicode="Ž" d="M562 1907v-19q-56 -72 -112 -165q-54 -90 -78 -144h-95q-71 149 -186 309v19h43q36 -34 92 -99q29 -34 101 -114l49 55q111 133 139 158h47zM602 0h-545v88l424 1278h-418v96h527v-90l-430 -1278h442v-94z"/>
<glyph glyph-name="zcaron" horiz-adv-x="541" unicode="ž" d="M521 1569v-19q-56 -72 -112 -165q-54 -90 -78 -144h-95q-70 149 -186 309v19h43q42 -41 93 -99q73 -83 100 -114l49 55q111 133 139 158h47zM494 0h-435v76l320 925h-299v84h399v-77l-319 -924h334v-84z"/>
<glyph glyph-name="longs" horiz-adv-x="389" unicode="ſ" d="M240 0h-95v1178q0 208 50 299q49 90 170 90q71 0 127 -25l-33 -88q-49 25 -94 25q-51 0 -76 -29t-37 -97q-12 -67 -12 -177v-1176z"/>
<glyph glyph-name="florin" d="M207 -492q-69 0 -127 13v94q72 -18 121 -18q83 0 118 63q35 64 35 193v993h-161v53l161 39v188q0 181 50 268q51 89 169 89q75 0 158 -39l-41 -86q-63 33 -112 33q-52 0 -77 -27t-39 -90q-13 -59 -13 -164v-180h190v-84h-190v-957q0 -199 -55 -290t-187 -91z" unicode="ƒ"/>
<glyph glyph-name="Ohorn" horiz-adv-x="1053" unicode="Ơ" d="M213 733q0 -327 81 -493t238 -166t238 165q82 167 82 494q0 324 -80 490t-237 166q-160 0 -241 -168t-81 -488zM954 733q0 -363 -108 -558t-314 -195q-208 0 -314 196q-107 197 -107 559q0 379 106 563q107 185 318 185q214 0 323 -217q73 16 106 82q34 67 35 208h86 l17 -26q-9 -146 -62 -229t-149 -113q63 -179 63 -455z"/>
<glyph glyph-name="ohorn" horiz-adv-x="850" unicode="ơ" d="M193 545q0 -479 231 -479q233 0 233 479q0 471 -233 471q-122 0 -176 -118q-55 -121 -55 -353zM756 545q0 -275 -86 -419q-87 -146 -248 -146q-159 0 -243 146q-85 147 -85 419q0 561 332 561q157 0 242 -148q62 26 88 94q27 70 28 191h86l17 -26q-8 -140 -52 -219 q-46 -80 -130 -113q51 -138 51 -340z"/>
<glyph glyph-name="Uhorn" horiz-adv-x="1077" unicode="Ư" d="M864 475q0 -495 -354 -495q-177 0 -270 128q-93 127 -93 367v987h99v-999q0 -191 68 -289q70 -100 196 -100t191 100t65 293v995h98v-200q88 15 123 81q36 68 37 213h86l16 -26q-18 -320 -262 -354v-701z"/>
<glyph glyph-name="uhorn" horiz-adv-x="950" unicode="ư" d="M236 1085v-708q0 -163 38 -235q39 -74 119 -74q122 0 180 100q58 101 58 321v596h94v-137q86 15 122 80q37 67 38 215h86l16 -26q-11 -171 -73 -251q-63 -81 -189 -102v-864h-80l-12 152h-8q-34 -82 -97 -128q-60 -44 -135 -44q-131 0 -191 93q-61 95 -61 304v708h95z "/>
<glyph glyph-name="uni01F0" horiz-adv-x="385" unicode="ǰ" d="M433 1569v-19q-56 -72 -112 -165q-54 -90 -78 -144h-95q-70 149 -186 309v19h43q42 -41 93 -99q73 -83 100 -114l49 55q111 133 139 158h47zM63 -492q-41 0 -67 17v90q31 -16 63 -16q47 0 67 45q19 44 19 141v1300h95v-1286q0 -150 -43 -220q-44 -71 -134 -71z"/>
<glyph glyph-name="Aringacute" horiz-adv-x="813" unicode="Ǻ" d="M326 1683l49 61q102 124 141 216h125v-16q-23 -45 -85 -113q-58 -65 -183 -168h-47v20zM281 1434q0 -54 30 -85q30 -32 90 -32q53 0 87 32t34 85q0 52 -31 84t-90 32q-55 0 -87 -32q-33 -33 -33 -84zM569 522l-137 527q-22 98 -31 153q-4 -52 -12 -85q-15 -67 -149 -595 h329zM600 1438q0 -73 -37 -121q-35 -45 -96 -62l346 -1255h-104l-113 424h-383l-107 -424h-106l336 1255q-63 17 -98 61t-35 118q0 86 53 136t145 50q87 0 143 -50t56 -132z"/>
<glyph glyph-name="aringacute" horiz-adv-x="784" unicode="ǻ" d="M333 1626v21q126 164 191 307h125v-17q-37 -66 -119 -161q-80 -92 -150 -150h-47zM530 1398q0 52 -31 84t-90 32q-55 0 -87 -32q-34 -34 -34 -84q0 -54 30 -85q30 -32 91 -32q53 0 87 32t34 85zM608 1402q0 -89 -54 -140t-145 -51q-93 0 -146 51t-53 136t54 136 q53 50 145 50q88 0 143 -49q56 -50 56 -133zM334 61q101 0 158 101q57 100 57 284v113l-113 -6q-133 -8 -194 -72q-64 -67 -64 -192q0 -117 42 -173q42 -55 114 -55zM565 0l-12 152h-4q-78 -172 -236 -172q-105 0 -170 85t-65 226q0 156 93 246q94 91 261 98l117 6v90 q0 151 -38 221t-126 70q-93 0 -190 -61l-41 75q112 70 237 70q135 0 193 -84q59 -85 59 -283v-739h-78z"/>
<glyph glyph-name="AEacute" horiz-adv-x="1153" unicode="Ǽ" d="M559 1579v21q126 164 191 307h125v-17q-37 -66 -119 -161q-80 -91 -150 -150h-47zM283 629h241v735h-28zM1055 0h-531v530h-268l-152 -530h-104l434 1462h621v-96h-432v-553h407v-94h-407v-625h432v-94z"/>
<glyph glyph-name="aeacute" horiz-adv-x="1260" unicode="ǽ" d="M543 1241v21q126 164 191 307h125v-17q-37 -66 -119 -161q-80 -91 -150 -150h-47zM385 1022q-93 0 -190 -61l-41 75q49 30 102 50t133 20q178 0 229 -172q84 172 250 172q137 0 216 -127t79 -348v-88h-514q9 -477 258 -477q49 0 109 18q61 18 112 49v-88 q-101 -65 -223 -65q-104 0 -185 63t-120 178q-47 -130 -117 -185q-71 -56 -170 -56q-106 0 -171 85q-64 83 -64 226q0 156 93 246q94 91 261 98l117 6v90q0 147 -39 219t-125 72zM866 1018q-194 0 -215 -389h418v12q0 174 -55 275q-56 102 -148 102zM334 61q101 0 158 101 q57 100 57 284v113l-113 -6q-134 -8 -195 -69q-63 -63 -63 -195q0 -117 42 -173q42 -55 114 -55z"/>
<glyph glyph-name="Oslashacute" horiz-adv-x="1065" unicode="Ǿ" d="M429 1579v21q126 164 191 307h125v-17q-38 -69 -118 -161q-77 -89 -151 -150h-47zM532 74q158 0 239 165t81 494q0 253 -49 412l-481 -955q77 -116 210 -116zM213 733q0 -281 59 -440l484 958q-80 138 -221 138q-160 0 -241 -167q-81 -168 -81 -489zM954 733 q0 -363 -108 -558t-314 -195q-158 0 -260 114l-94 -188l-82 37l119 237q-104 194 -104 555q0 379 106 563q107 185 318 185q163 0 270 -131l96 190l82 -41l-123 -239q94 -189 94 -529z"/>
<glyph glyph-name="oslashacute" horiz-adv-x="850" unicode="ǿ" d="M300 1241v21q126 164 191 307h125v-17q-37 -66 -119 -161q-79 -91 -150 -150h-47zM657 545q0 179 -32 284l-342 -692q51 -67 141 -67q233 0 233 475zM193 545q0 -200 38 -314l347 699q-56 86 -154 86q-123 0 -177 -118t-54 -353zM68 -102l112 227q-86 146 -86 420 q0 561 332 561q117 0 197 -86l84 170l75 -41l-102 -209q76 -148 76 -395q0 -273 -87 -419t-247 -146q-114 0 -184 69l-95 -192z"/>
<glyph glyph-name="Scommaaccent" horiz-adv-x="809" unicode="Ș" d="M257 -432q21 55 46 150q24 90 30 157h111v-20q-21 -78 -63 -165q-42 -86 -83 -143h-41v21zM721 383q0 -181 -100 -291q-101 -112 -254 -112q-175 0 -281 51v106q56 -30 129 -46q79 -17 152 -17q112 0 184 85t72 216q0 121 -51 192q-52 72 -195 142q-115 58 -169 111 q-57 55 -83 124q-27 70 -27 170q0 107 44 192t123 131t173 46q87 0 154 -19q74 -21 110 -41l-38 -94q-111 57 -226 57q-108 0 -176 -74q-67 -73 -67 -194q0 -124 49 -191q50 -67 192 -141q146 -71 216 -168q69 -96 69 -235z"/>
<glyph glyph-name="scommaaccent" horiz-adv-x="645" unicode="ș" d="M181 -432q21 55 46 150q24 90 30 157h111v-20q-21 -78 -63 -165q-42 -86 -83 -143h-41v21zM571 272q0 -137 -72 -215q-71 -77 -208 -77q-76 0 -130 19q-55 19 -87 42v111q38 -38 98 -60t125 -22q84 0 132 55t48 147q0 71 -35 121q-36 52 -131 113q-111 70 -151 112 q-43 44 -64 94q-22 51 -22 124q0 117 79 193q80 77 201 77q130 0 219 -62l-49 -83q-82 55 -174 55q-84 0 -134 -50t-50 -130q0 -74 34 -121q34 -48 144 -117q103 -67 148 -114q40 -41 60 -94q19 -50 19 -118z"/>
<glyph glyph-name="Tcommaaccent" horiz-adv-x="711" unicode="Ț" d="M222 -432q21 55 46 150q24 90 30 157h111v-20q-21 -78 -63 -165q-42 -86 -83 -143h-41v21zM403 0h-98v1368h-291v94h680v-94h-291v-1368z"/>
<glyph glyph-name="tcommaaccent" horiz-adv-x="449" unicode="ț" d="M140 -432q21 55 46 150q24 90 30 157h111v-20q-21 -78 -63 -165q-42 -86 -83 -143h-41v21zM344 68q44 0 78 12v-80q-45 -20 -113 -20q-168 0 -168 251v770h-98v56l96 28l31 258h66v-258h172v-84h-172v-743q0 -110 24 -150t84 -40z"/>
<glyph glyph-name="dotlessj" horiz-adv-x="385" unicode="ȷ" d="M63 -492q-41 0 -67 17v90q31 -16 63 -16q47 0 67 45q19 44 19 141v1300h95v-1286q0 -150 -43 -220q-44 -71 -134 -71z"/>
<glyph glyph-name="uni02BC" horiz-adv-x="315" unicode="ʼ" d="M272 1440q-66 -221 -166 -447h-63q74 252 100 469h115z"/>
<glyph glyph-name="circumflex" horiz-adv-x="1157" unicode="ˆ" d="M766 1241q-42 42 -91 101l-97 112q-27 -31 -100 -114q-51 -58 -93 -99h-43v19q122 168 186 309h95q21 -48 79 -145q51 -85 111 -164v-19h-47z"/>
<glyph glyph-name="caron" horiz-adv-x="1157" unicode="ˇ" d="M813 1569v-19q-56 -72 -112 -165q-54 -90 -78 -144h-95q-70 149 -186 309v19h43q42 -41 93 -99q73 -83 100 -114l49 55q111 133 139 158h47z"/>
<glyph glyph-name="macron" horiz-adv-x="1112" unicode="ˉ" d="M330 1333h452v-82h-452v82z"/>
<glyph glyph-name="breve" horiz-adv-x="1157" unicode="˘" d="M795 1479q-3 -110 -61 -172t-163 -62q-197 0 -211 234h68q8 -75 46 -112q40 -38 101 -38q129 0 148 150h72z"/>
<glyph glyph-name="dotaccent" horiz-adv-x="385" unicode="˙" d="M131 1386q0 43 19 70q18 25 47 25q27 0 43 -25t16 -70q0 -43 -16 -68q-17 -26 -43 -26q-29 0 -47 26q-19 27 -19 68z"/>
<glyph glyph-name="ring" horiz-adv-x="1182" unicode="˚" d="M713 1438q0 51 -31 83q-32 33 -90 33q-55 0 -88 -33t-33 -83q0 -52 31 -85q30 -32 90 -32q54 0 88 32q33 31 33 85zM791 1442q0 -89 -54 -140t-145 -51q-95 0 -146 50q-53 51 -53 137t53 136t146 50q87 0 143 -50t56 -132z"/>
<glyph glyph-name="ogonek" horiz-adv-x="383" unicode="˛" d="M158 -260q0 -109 96 -109q39 0 57 9v-74q-30 -12 -75 -12q-168 0 -168 176q0 75 43 149q44 75 104 121h74q-71 -71 -101 -133q-30 -61 -30 -127z"/>
<glyph glyph-name="tilde" horiz-adv-x="1157" unicode="˜" d="M698 1243q-34 0 -69 20q-33 19 -65 43q-35 27 -59 44q-28 20 -50 20q-32 0 -53 -36q-22 -38 -31 -93h-74q12 96 53 154q40 57 113 57q34 0 68 -20t64 -44q24 -19 57 -43q28 -20 53 -20q35 0 53 36q17 33 26 93h74q-9 -100 -51 -156q-42 -55 -109 -55z"/>
<glyph glyph-name="hungarumlaut" horiz-adv-x="1161" unicode="˝" d="M555 1241v21q42 55 93 150q51 96 77 157h119v-17q-37 -72 -109 -164q-73 -93 -133 -147h-47zM289 1241v21q42 55 93 150q51 96 77 157h119v-17q-38 -68 -110 -164q-68 -90 -132 -147h-47z"/>
<glyph glyph-name="uni02F3" horiz-adv-x="682" unicode="˳" d="M461 -319q0 51 -31 83q-32 33 -90 33q-55 0 -88 -33t-33 -83q0 -52 31 -85q30 -32 90 -32q54 0 88 32q33 32 33 85zM539 -315q0 -89 -54 -140t-145 -51q-95 0 -146 50q-53 51 -53 137q0 85 53 135q54 51 146 51q88 0 143 -49q56 -50 56 -133z"/>
<glyph glyph-name="uni0300" horiz-adv-x="0" unicode="̀" d="M-475 1241q-63 51 -149 148q-80 90 -119 163v17h125q29 -67 82 -152t109 -155v-21h-48z"/>
<glyph glyph-name="uni0301" horiz-adv-x="0" unicode="́" d="M-614 1241v21q126 164 191 307h125v-17q-38 -69 -118 -161q-77 -89 -151 -150h-47z"/>
<glyph glyph-name="uni0303" horiz-adv-x="0" unicode="̃" d="M-395 1243q-34 0 -69 20q-33 19 -65 43q-35 27 -59 44q-28 20 -50 20q-32 0 -53 -36q-22 -38 -31 -93h-74q12 96 53 154q41 57 113 57q34 0 68 -20t64 -44q14 -11 58 -43q28 -20 52 -20q34 0 52 36t27 93h74q-9 -100 -51 -156q-42 -55 -109 -55z"/>
<glyph glyph-name="hook" horiz-adv-x="0" unicode="̉" d="M-430 1505q0 -139 -156 -176l-10 -121h-70l-6 178q65 0 111 32q45 32 45 83q0 101 -137 101q-39 0 -84 -9v70q48 12 100 12q102 0 154 -43q53 -44 53 -127z"/>
<glyph glyph-name="uni030F" horiz-adv-x="0" unicode="̏" d="M-711 1241q-57 51 -129 144q-74 96 -112 167v17h118q92 -203 170 -307v-21h-47zM-444 1241q-53 44 -128 141t-114 170v17h119q33 -79 87 -177q46 -83 83 -130v-21h-47z"/>
<glyph glyph-name="dotbelow" horiz-adv-x="0" unicode="̣" d="M-657 -225q0 45 18 69q19 25 47 25q27 0 44 -25q16 -23 16 -69q0 -44 -16 -69t-44 -25q-29 0 -47 25q-18 26 -18 69z"/>
<glyph glyph-name="tonos" horiz-adv-x="1182" unicode="΄" d="M537 1262q23 63 55 179q29 104 41 169h110v-21q-23 -70 -66 -167q-49 -112 -85 -181h-55v21z"/>
<glyph glyph-name="dieresistonos" horiz-adv-x="1126" unicode="΅" d="M666 1286q0 43 19 62q20 20 42 20q24 0 44 -20t20 -62t-20 -64q-19 -20 -44 -20q-23 0 -42 20t-19 64zM336 1286q0 43 19 62q20 20 44 20q22 0 42 -20t20 -62t-20 -64q-19 -20 -42 -20q-25 0 -44 20t-19 64zM516 1307q19 49 47 155q24 92 29 152h104v-21 q-12 -57 -54 -155q-45 -104 -77 -152h-49v21z"/>
<glyph glyph-name="Alphatonos" horiz-adv-x="813" unicode="Ά" d="M1 1157q23 63 55 179q29 104 41 169h110v-21q-25 -74 -66 -168q-46 -105 -85 -180h-55v21zM561 629l-129 545q-22 103 -31 174q-9 -91 -28 -174l-125 -545h313zM713 0l-129 530h-355l-127 -530h-102l352 1462h101l360 -1462h-100z"/>
<glyph glyph-name="anoteleia" horiz-adv-x="422" unicode="·" d="M133 721q0 107 78 107q33 0 55 -24q23 -25 23 -83q0 -56 -23 -81t-55 -25q-78 0 -78 106z"/>
<glyph glyph-name="Epsilontonos" horiz-adv-x="922" unicode="Έ" d="M1 1157q23 63 55 179q29 104 41 169h110v-21q-25 -74 -66 -168q-46 -105 -85 -180h-55v21zM823 0h-530v1462h530v-94h-432v-555h408v-94h-408v-625h432v-94z"/>
<glyph glyph-name="Etatonos" horiz-adv-x="1163" unicode="Ή" d="M1 1157q23 63 55 179q29 104 41 169h110v-21q-25 -74 -66 -168q-46 -105 -85 -180h-55v21zM1003 0h-98v719h-510v-719h-98v1462h98v-649h510v649h98v-1462z"/>
<glyph glyph-name="Iotatonos" horiz-adv-x="559" unicode="Ί" d="M1 1157q23 63 55 179q29 104 41 169h110v-21q-25 -74 -66 -168q-46 -105 -85 -180h-55v21zM301 0v1462h98v-1462h-98z"/>
<glyph glyph-name="Omicrontonos" horiz-adv-x="1167" unicode="Ό" d="M1 1157q23 63 55 179q29 104 41 169h110v-21q-23 -70 -66 -167q-49 -112 -85 -181h-55v21zM315 733q0 -325 81 -492t238 -167t238 165q82 167 82 494q0 325 -80 491q-80 165 -237 165q-160 0 -241 -167q-81 -168 -81 -489zM1056 733q0 -363 -108 -558t-314 -195 q-207 0 -314 197t-107 558q0 379 106 563q107 185 318 185q204 0 311 -194q108 -195 108 -556z"/>
<glyph glyph-name="Upsilontonos" horiz-adv-x="924" unicode="Ύ" d="M1 1157q23 63 55 179q29 104 41 169h110v-21q-25 -74 -66 -168q-46 -105 -85 -180h-55v21zM582 707l238 755h104l-295 -891v-571h-98v571l-293 891h104z"/>
<glyph glyph-name="Omegatonos" horiz-adv-x="1184" unicode="Ώ" d="M1 1157q23 63 55 179q29 104 41 169h110v-21q-23 -70 -66 -167q-49 -112 -85 -181h-55v21zM643 1389q-156 0 -238 -151t-82 -427q0 -262 53 -433t185 -327v-51h-393v94h256q-93 112 -148 298q-55 187 -55 419q0 326 107 499t315 173q200 0 311 -179t111 -493 q0 -460 -203 -717h256v-94h-393v51q137 179 188 337q49 153 49 423q0 278 -84 428t-235 150z"/>
<glyph glyph-name="iotadieresistonos" horiz-adv-x="446" unicode="ΐ" d="M300 1286q0 43 19 62q20 20 42 20q24 0 44 -20t20 -62t-20 -64q-19 -20 -44 -20q-23 0 -42 20t-19 64zM-30 1286q0 43 19 62q20 20 44 20q22 0 42 -20t20 -62t-20 -64q-19 -20 -42 -20q-25 0 -44 20t-19 64zM150 1307q19 49 47 155q24 92 29 152h104v-21 q-12 -57 -54 -155q-45 -104 -77 -152h-49v21zM240 1085v-864q0 -84 18 -117q19 -34 64 -34q22 0 54 6q29 6 38 10v-86q-52 -20 -111 -20q-83 0 -121 58q-37 56 -37 183v864h95z"/>
<glyph glyph-name="Alpha" horiz-adv-x="813" unicode="Α" d="M561 629l-129 545q-22 103 -31 174q-9 -91 -28 -174l-125 -545h313zM713 0l-129 530h-355l-127 -530h-102l352 1462h101l360 -1462h-100z"/>
<glyph glyph-name="Beta" horiz-adv-x="907" unicode="Β" d="M258 721v-631h225q242 0 242 328q0 146 -71 225q-70 78 -199 78h-197zM258 811h184q136 0 195 76t59 229q0 123 -65 190q-65 66 -191 66h-182v-561zM160 1462h280q172 0 264 -88q93 -88 93 -260q0 -297 -217 -340v-8q124 -25 186 -112q61 -85 61 -238q0 -196 -87 -306 t-244 -110h-336v1462z"/>
<glyph glyph-name="Gamma" horiz-adv-x="686" unicode="Γ" d="M670 1462v-94h-412v-1368h-98v1462h510z"/>
<glyph glyph-name="uni0394" horiz-adv-x="805" unicode="Δ" d="M397 1315q-22 -111 -25 -127q-20 -95 -241 -1094h543l-195 842q-58 259 -82 379zM23 96l325 1366h103l331 -1378v-84h-759v96z"/>
<glyph glyph-name="Epsilon" horiz-adv-x="788" unicode="Ε" d="M690 0h-530v1462h530v-94h-432v-555h408v-94h-408v-625h432v-94z"/>
<glyph glyph-name="Zeta" horiz-adv-x="643" unicode="Ζ" d="M602 0h-545v88l424 1278h-418v96h527v-90l-430 -1278h442v-94z"/>
<glyph glyph-name="Eta" horiz-adv-x="1026" unicode="Η" d="M866 0h-98v719h-510v-719h-98v1462h98v-649h510v649h98v-1462z"/>
<glyph glyph-name="Theta" horiz-adv-x="1065" unicode="Θ" d="M340 793h385v-95h-385v95zM213 733q0 -325 81 -492t238 -167t238 165q82 167 82 494q0 325 -80 491q-80 165 -237 165q-160 0 -241 -167q-81 -168 -81 -489zM954 733q0 -363 -108 -558t-314 -195q-207 0 -314 197t-107 558q0 379 106 563q107 185 318 185q204 0 311 -194 q108 -195 108 -556z"/>
<glyph glyph-name="Iota" horiz-adv-x="418" unicode="Ι" d="M160 0v1462h98v-1462h-98z"/>
<glyph glyph-name="Kappa" horiz-adv-x="825" unicode="Κ" d="M825 0h-110l-344 729l-113 -149v-580h-98v1462h98v-774q51 96 432 774h107l-367 -643z"/>
<glyph glyph-name="Lambda" horiz-adv-x="813" unicode="Λ" d="M401 1348q-7 -76 -28 -174l-271 -1174h-102l352 1462h101l360 -1462h-100l-281 1174q-22 103 -31 174z"/>
<glyph glyph-name="Mu" horiz-adv-x="1395" unicode="Μ" d="M641 0l-389 1331h-8q10 -200 10 -266v-1065h-94v1462h145l328 -1118q43 -148 57 -252h8q12 82 62 250l325 1120h150v-1462h-98v1057q0 72 10 272h-8l-387 -1329h-111z"/>
<glyph glyph-name="Nu" horiz-adv-x="1090" unicode="Ν" d="M930 0h-125l-553 1311h-8q12 -137 12 -262v-1049h-96v1462h127l549 -1296h6q-8 174 -8 274v1022h96v-1462z"/>
<glyph glyph-name="Xi" horiz-adv-x="758" unicode="Ξ" d="M156 813h446v-94h-446v94zM659 94v-94h-561v94h561zM119 1462h520v-94h-520v94z"/>
<glyph glyph-name="Omicron" horiz-adv-x="1065" unicode="Ο" d="M213 733q0 -325 81 -492t238 -167t238 165q82 167 82 494q0 325 -80 491q-80 165 -237 165q-160 0 -241 -167q-81 -168 -81 -489zM954 733q0 -363 -108 -558t-314 -195q-207 0 -314 197t-107 558q0 379 106 563q107 185 318 185q204 0 311 -194q108 -195 108 -556z"/>
<glyph glyph-name="Pi" horiz-adv-x="1026" unicode="Π" d="M866 0h-98v1368h-510v-1368h-98v1462h706v-1462z"/>
<glyph glyph-name="Rho" horiz-adv-x="840" unicode="Ρ" d="M258 694h98q172 0 244 81t72 267q0 179 -74 254q-75 76 -231 76h-109v-678zM772 1042q0 -225 -104 -332q-103 -106 -306 -106h-104v-604h-98v1462h200q214 0 313 -101t99 -319z"/>
<glyph glyph-name="Sigma" horiz-adv-x="754" unicode="Σ" d="M61 0v84l340 676l-327 620v82h604v-94h-492l326 -608l-342 -666h539v-94h-648z"/>
<glyph glyph-name="Tau" horiz-adv-x="711" unicode="Τ" d="M403 0h-98v1368h-291v94h680v-94h-291v-1368z"/>
<glyph glyph-name="Upsilon" horiz-adv-x="686" unicode="Υ" d="M344 707l238 755h104l-295 -891v-571h-98v571l-293 891h104z"/>
<glyph glyph-name="Phi" horiz-adv-x="1204" unicode="Φ" d="M553 1212q-167 0 -256 -117q-88 -116 -88 -329q0 -226 88 -348q89 -123 256 -123v917zM651 295q167 0 256 123q88 122 88 348q0 446 -344 446v-917zM553 1483h98v-180q210 0 328 -144q119 -145 119 -393q0 -258 -119 -410q-118 -151 -328 -151v-225h-98v225 q-138 0 -239 71q-100 70 -154 198t-54 292q0 153 54 276t156 192t237 69v180z"/>
<glyph glyph-name="Chi" horiz-adv-x="715" unicode="Χ" d="M694 0h-102l-219 672l-254 -672h-99l306 776l-263 686h103l217 -608l211 608h100l-258 -708z"/>
<glyph glyph-name="Psi" horiz-adv-x="1180" unicode="Ψ" d="M639 0h-98v451q-209 0 -304 133q-94 131 -94 420v458h99v-456q0 -168 30 -268q29 -99 92 -146q62 -47 177 -47v917h98v-917q113 0 176 45t93 146q30 100 30 270v456h98v-458q0 -289 -94 -420q-95 -133 -303 -133v-451z"/>
<glyph glyph-name="uni03A9" horiz-adv-x="1081" unicode="Ω" d="M541 1389q-156 0 -238 -151t-82 -427q0 -262 53 -433t185 -327v-51h-393v94h256q-93 112 -148 298q-55 187 -55 419q0 326 107 499t315 173q200 0 311 -179t111 -493q0 -460 -203 -717h256v-94h-393v51q137 179 188 337q49 153 49 423q0 278 -84 428t-235 150z"/>
<glyph glyph-name="Iotadieresis" horiz-adv-x="418" unicode="Ϊ" d="M300 1727q0 42 20 62q19 19 42 19q25 0 44 -19t19 -62q0 -45 -19 -64q-20 -20 -44 -20q-22 0 -42 20t-20 64zM-5 1727q0 43 19 62t45 19q23 0 42 -19t19 -62q0 -45 -19 -64q-20 -20 -42 -20q-25 0 -45 20q-19 19 -19 64zM160 0v1462h98v-1462h-98z"/>
<glyph glyph-name="Upsilondieresis" horiz-adv-x="686" unicode="Ϋ" d="M435 1727q0 43 19 62t43 19q25 0 44 -19t19 -62q0 -45 -19 -64q-20 -20 -44 -20q-23 0 -43 20q-19 19 -19 64zM130 1727q0 42 20 62q19 19 44 19q23 0 42 -19t19 -62q0 -45 -19 -64q-20 -20 -42 -20q-24 0 -44 20t-20 64zM344 707l238 755h104l-295 -891v-571h-98v571 l-293 891h104z"/>
<glyph glyph-name="alphatonos" horiz-adv-x="907" unicode="ά" d="M370 1262q23 63 55 179q29 104 41 169h110v-21q-23 -70 -66 -167q-49 -112 -85 -181h-55v21zM422 66q113 0 174 118q59 115 59 330v27q0 249 -59 361q-60 114 -182 114q-117 0 -168 -122q-51 -123 -51 -355q0 -246 55 -361q54 -112 172 -112zM750 213q0 -156 77 -156 q37 0 64 13v-74q-25 -16 -68 -16q-72 0 -111 40t-48 136h-9q-38 -84 -104 -130t-143 -46q-151 0 -232 138q-80 136 -80 423t84 426t232 139q165 0 252 -180h8q3 38 16 82q12 40 31 77h65q-34 -101 -34 -348v-524z"/>
<glyph glyph-name="epsilontonos" horiz-adv-x="643" unicode="έ" d="M325 1262q22 60 55 180q29 106 41 168h110v-21q-23 -70 -66 -167q-49 -112 -85 -181h-55v21zM449 618v-86h-56q-103 0 -156 -63q-53 -64 -53 -180q0 -73 24 -121q23 -46 67 -73q41 -25 94 -25q49 0 109 17q58 17 102 48v-94q-44 -30 -96 -45q-56 -16 -128 -16 q-122 0 -196 85t-74 230q0 109 49 180q49 72 139 100v9q-149 62 -149 254q0 120 74 194t192 74q104 0 199 -62l-47 -79q-73 51 -154 51q-84 0 -127 -49t-43 -133q0 -104 49 -160t138 -56h43z"/>
<glyph glyph-name="etatonos" horiz-adv-x="870" unicode="ή" d="M376 1262q23 63 55 179q29 104 41 169h110v-21q-23 -70 -66 -167q-49 -112 -85 -181h-55v21zM635 -492v1240q0 270 -160 270q-122 0 -179 -101q-56 -99 -56 -321v-596h-95v1085h80l8 -151h9q35 83 98 127q64 45 137 45q126 0 189 -84t63 -272v-1242h-94z"/>
<glyph glyph-name="iotatonos" horiz-adv-x="446" unicode="ί" d="M139 1262q23 63 55 179q29 104 41 169h110v-21q-23 -70 -66 -167q-49 -112 -85 -181h-55v21zM240 1085v-864q0 -84 18 -117q19 -34 64 -34q22 0 54 6q29 6 38 10v-86q-52 -20 -111 -20q-83 0 -121 58q-37 56 -37 183v864h95z"/>
<glyph glyph-name="upsilondieresistonos" horiz-adv-x="834" unicode="ΰ" d="M524 1286q0 43 19 62q20 20 42 20q24 0 44 -20t20 -62t-20 -64q-19 -20 -44 -20q-23 0 -42 20t-19 64zM194 1286q0 43 19 62q20 20 44 20q22 0 42 -20t20 -62t-20 -64q-19 -20 -42 -20q-25 0 -44 20t-19 64zM374 1307q19 49 47 155q24 92 29 152h104v-21 q-11 -53 -55 -155q-46 -108 -76 -152h-49v21zM236 444q0 -207 41 -290q42 -86 143 -86q233 0 233 454q0 168 -14 302q-13 123 -49 261h96q36 -173 44 -237q10 -77 14 -154q4 -73 4 -170q0 -265 -82 -404q-83 -140 -240 -140q-107 0 -168 46q-60 45 -88 146q-29 104 -29 279 v634h95v-641z"/>
<glyph glyph-name="alpha" horiz-adv-x="907" unicode="α" d="M422 66q113 0 174 118q59 115 59 330v27q0 249 -59 361q-60 114 -182 114q-117 0 -168 -122q-51 -123 -51 -355q0 -246 55 -361q54 -112 172 -112zM750 213q0 -156 77 -156q37 0 64 13v-74q-25 -16 -68 -16q-72 0 -111 40t-48 136h-9q-38 -84 -104 -130t-143 -46 q-151 0 -232 138q-80 136 -80 423t84 426t232 139q165 0 252 -180h8q3 38 16 82q12 40 31 77h65q-34 -101 -34 -348v-524z"/>
<glyph glyph-name="beta" horiz-adv-x="889" unicode="β" d="M449 1477q-98 0 -153 -79q-56 -80 -56 -224v-1027q49 -39 105 -58q57 -19 112 -19q125 0 182 84t57 256q0 187 -65 276q-66 90 -203 90h-43v90h37q119 0 171 76t52 244q0 145 -52 218t-144 73zM451 1567q135 0 212 -99q76 -98 76 -274t-49 -262q-49 -87 -164 -105v-8 q140 -18 205 -121q64 -101 64 -301q0 -203 -87 -310t-247 -107q-61 0 -111 14q-49 14 -110 57v-543h-95v1661q0 190 82 295q81 103 224 103z"/>
<glyph glyph-name="gamma" horiz-adv-x="645" unicode="γ" d="M319 -492h-94q0 100 17 229q18 137 39 234l-271 1114h96l130 -540q44 -193 52 -227q26 -108 36 -199h8q27 186 82 430l125 536h96l-238 -1003q-38 -169 -57 -312q-21 -159 -21 -262z"/>
<glyph glyph-name="delta" horiz-adv-x="866" unicode="δ" d="M674 453q0 116 -46 220t-151 212q-136 -53 -208 -171q-74 -121 -74 -276q0 -161 66 -266q67 -106 169 -106q118 0 181 101t63 286zM422 944q-125 131 -168 208t-43 159q0 111 78 177t203 66q77 0 140 -20q58 -18 99 -43l-41 -84q-94 57 -203 57q-82 0 -131 -43t-49 -112 q0 -47 19 -91q19 -45 59 -95q41 -52 145 -156q136 -136 189 -254t53 -262q0 -222 -92 -347q-91 -124 -250 -124q-154 0 -244 125t-90 337q0 174 90 310t236 192z"/>
<glyph glyph-name="epsilon" horiz-adv-x="643" unicode="ε" d="M449 618v-86h-56q-103 0 -156 -63q-53 -64 -53 -180q0 -73 24 -121q23 -46 67 -73q41 -25 94 -25q49 0 109 17q58 17 102 48v-94q-44 -30 -96 -45q-56 -16 -128 -16q-122 0 -196 85t-74 230q0 109 49 180q49 72 139 100v9q-149 62 -149 254q0 120 74 194t192 74 q104 0 199 -62l-47 -79q-73 51 -154 51q-84 0 -127 -49t-43 -133q0 -104 49 -160t138 -56h43z"/>
<glyph glyph-name="zeta" horiz-adv-x="637" unicode="ζ" d="M129 1470v86h471v-79q-141 -187 -233 -367q-88 -171 -130 -322q-42 -150 -42 -319q0 -102 15 -165q16 -65 49 -106q34 -42 112 -85q84 -48 133 -89q46 -39 64 -76q18 -38 18 -104q0 -46 -33 -122q-32 -75 -86 -144h-100q56 73 87 140q33 70 33 120q0 57 -41 103 q-39 44 -122 88q-96 52 -140 105q-44 52 -66 129q-22 75 -22 194q0 245 90 468t318 552q-71 -7 -209 -7h-166z"/>
<glyph glyph-name="eta" horiz-adv-x="870" unicode="η" d="M635 -492v1240q0 270 -160 270q-122 0 -179 -101q-56 -99 -56 -321v-596h-95v1085h80l8 -151h9q35 83 98 127q64 45 137 45q126 0 189 -84t63 -272v-1242h-94z"/>
<glyph glyph-name="theta" horiz-adv-x="891" unicode="θ" d="M444 1489q-121 0 -181 -163q-61 -163 -68 -480h503q-7 314 -70 480q-61 163 -184 163zM444 70q244 0 254 690h-503q11 -690 249 -690zM797 782q0 -802 -355 -802q-346 0 -346 800q0 395 91 596q92 203 262 203q348 0 348 -797z"/>
<glyph glyph-name="iota" horiz-adv-x="446" unicode="ι" d="M240 1085v-864q0 -84 18 -117q19 -34 64 -34q22 0 54 6q29 6 38 10v-86q-52 -20 -111 -20q-83 0 -121 58q-37 56 -37 183v864h95z"/>
<glyph glyph-name="kappa" horiz-adv-x="711" unicode="κ" d="M242 537q32 62 42 79q23 40 287 469h103l-250 -399l272 -686h-100l-236 598l-120 -158v-440h-95v1085h95v-366q0 -112 -7 -182h9z"/>
<glyph glyph-name="lambda" horiz-adv-x="715" unicode="λ" d="M348 920h-8q-7 -43 -25 -123q-12 -51 -200 -797h-95l287 1090l-47 225q-18 91 -45 129q-27 39 -78 39q-38 0 -59 -10v83q27 13 69 13q82 0 129 -59q48 -60 70 -167l232 -1110q18 -88 40 -127q22 -40 64 -40q34 0 53 10v-84q-27 -12 -65 -12q-73 0 -114 59q-42 60 -64 166 l-97 463q-13 62 -24 129q-12 79 -23 123z"/>
<glyph glyph-name="uni03BC" horiz-adv-x="874" unicode="μ" d="M240 1085v-733q0 -284 157 -284q123 0 181 100q57 99 57 321v596h94v-1085h-80l-12 152h-8q-35 -82 -95 -126q-63 -46 -128 -46q-118 0 -166 106h-9q9 -120 9 -183v-395h-95v1577h95z"/>
<glyph glyph-name="nu" horiz-adv-x="723" unicode="ν" d="M31 1085h96l142 -692q40 -192 50 -284h9q243 394 243 976h95q0 -326 -76 -584t-242 -501h-88z"/>
<glyph glyph-name="xi" horiz-adv-x="643" unicode="ξ" d="M360 1477q-69 -7 -147 -7h-104v86h462v-79h-22q-140 0 -230 -92q-90 -91 -90 -234q0 -156 56 -220q56 -63 182 -63h74v-92h-90q-121 0 -189 -86q-67 -85 -67 -264q0 -134 39 -203t137 -110q113 -50 164 -110t51 -159q0 -46 -33 -123q-31 -73 -86 -143h-100q57 75 87 139 q33 70 33 121q0 127 -163 191q-123 50 -176 140q-52 89 -52 243q0 168 66 278q67 111 184 127v8q-112 19 -162 96q-49 76 -49 230q0 115 63 205q63 89 162 121z"/>
<glyph glyph-name="omicron" horiz-adv-x="850" unicode="ο" d="M193 545q0 -234 56 -355q55 -120 175 -120q233 0 233 475q0 471 -233 471q-122 0 -176 -118q-55 -121 -55 -353zM756 545q0 -275 -86 -419q-87 -146 -248 -146q-160 0 -244 146t-84 419q0 561 332 561q156 0 243 -147t87 -414z"/>
<glyph glyph-name="pi" horiz-adv-x="870" unicode="π" d="M766 76l53 4v-84q-21 -8 -76 -8q-84 0 -121 61q-38 62 -38 184v766h-322v-999h-96v999h-152v35l78 51h742v-86h-154v-766q0 -87 20 -121q21 -36 66 -36z"/>
<glyph glyph-name="rho" horiz-adv-x="885" unicode="ρ" d="M461 1016q-117 0 -171 -112q-54 -111 -54 -341v-393q77 -104 204 -104q132 0 192 124t60 357q0 231 -56 351q-55 118 -175 118zM791 547q0 -278 -86 -423q-85 -144 -252 -144q-148 0 -220 92h-8l5 -87q6 -114 6 -180v-297h-95v1059q0 539 326 539q157 0 241 -138 q83 -136 83 -421z"/>
<glyph glyph-name="sigma1" horiz-adv-x="614" unicode="ς" d="M367 -422q56 73 87 140q33 70 33 120q0 57 -41 103q-39 44 -122 88q-98 51 -143 113q-43 59 -64 156q-21 96 -21 239q0 277 84 423t246 146q101 0 168 -37l-35 -86q-79 33 -125 33q-239 0 -239 -477q0 -128 14 -207q13 -75 47 -124t115 -95q84 -48 133 -89q46 -39 64 -76 q18 -38 18 -104q0 -43 -34 -122q-34 -78 -85 -144h-100z"/>
<glyph glyph-name="sigma" horiz-adv-x="860" unicode="σ" d="M647 506q0 258 -92 493h-63q-154 0 -225 -113q-72 -114 -72 -358q0 -462 225 -462q113 0 170 112t57 328zM745 506q0 -264 -86 -394q-87 -132 -241 -132t-238 138t-84 404q0 563 398 563h329v-86h-182q104 -199 104 -493z"/>
<glyph glyph-name="tau" horiz-adv-x="547" unicode="τ" d="M274 999v-700q0 -116 30 -176t97 -60q56 0 105 17v-84q-9 -6 -48 -14q-35 -7 -63 -7q-114 0 -165 78q-50 76 -50 238v708h-180v35l76 51h440v-86h-242z"/>
<glyph glyph-name="upsilon" horiz-adv-x="834" unicode="υ" d="M236 444q0 -207 41 -290q42 -86 143 -86q233 0 233 454q0 168 -14 302q-13 123 -49 261h96q36 -173 44 -237q10 -77 14 -154q4 -73 4 -170q0 -265 -82 -404q-83 -140 -240 -140q-107 0 -168 46q-60 45 -88 146q-29 104 -29 279v634h95v-641z"/>
<glyph glyph-name="phi" horiz-adv-x="1083" unicode="φ" d="M891 582q0 132 -24 232q-24 101 -67 154q-44 54 -95 54q-66 0 -93 -62q-26 -59 -26 -190v-704q92 11 161 75q69 65 107 178q37 111 37 263zM492 -492v472q-195 16 -296 161q-100 143 -100 412q0 307 201 537l74 -58q-176 -196 -176 -479q0 -224 75 -347t222 -140v716 q0 328 215 328q129 0 206 -142q76 -140 76 -384q0 -270 -106 -428q-107 -160 -297 -176v-472h-94z"/>
<glyph glyph-name="chi" horiz-adv-x="692" unicode="χ" d="M365 489l200 596h99l-265 -745l136 -578q20 -89 41 -127q23 -41 63 -41q29 0 53 11v-84q-29 -13 -65 -13q-63 0 -107 53q-44 54 -71 173l-109 461l-229 -687h-101l295 836l-117 500q-23 101 -45 134q-23 34 -59 34q-33 0 -53 -11v84q25 13 65 13q65 0 108 -52t70 -174z "/>
<glyph glyph-name="psi" horiz-adv-x="977" unicode="ψ" d="M227 520q0 -218 55 -329q56 -113 171 -123v1488h94v-1488q120 7 177 139q56 128 56 387q0 240 -63 491h96q66 -258 66 -495q0 -291 -85 -446q-86 -157 -247 -164v-472h-94v472q-155 4 -238 141q-82 136 -82 391v573h94v-565z"/>
<glyph glyph-name="omega" horiz-adv-x="971" unicode="ω" d="M483 156q-17 -82 -63 -129q-47 -47 -115 -47q-99 0 -153 140t-54 404q0 294 97 561h92q-94 -269 -94 -563q0 -452 129 -452q58 0 88 86q30 87 30 247v273h90v-273q0 -160 30 -247q30 -86 89 -86q129 0 129 452q0 294 -94 563h92q96 -265 96 -561q0 -173 -26 -297 q-26 -122 -73 -184q-48 -63 -114 -63t-111 47q-44 46 -61 129h-4z"/>
<glyph glyph-name="iotadieresis" horiz-adv-x="446" unicode="ϊ" d="M292 1389q0 42 20 62q19 19 42 19q25 0 44 -19t19 -62q0 -45 -19 -64q-20 -20 -44 -20q-22 0 -42 20t-20 64zM-13 1389q0 43 19 62t45 19q23 0 42 -19t19 -62q0 -45 -19 -64q-20 -20 -42 -20q-25 0 -45 20q-19 19 -19 64zM240 1085v-864q0 -84 18 -117q19 -34 64 -34 q22 0 54 6q29 6 38 10v-86q-52 -20 -111 -20q-83 0 -121 58q-37 56 -37 183v864h95z"/>
<glyph glyph-name="upsilondieresis" horiz-adv-x="834" unicode="ϋ" d="M517 1389q0 43 19 62t43 19q25 0 44 -19t19 -62q0 -45 -19 -64q-20 -20 -44 -20q-23 0 -43 20q-19 19 -19 64zM212 1389q0 43 19 62t45 19q23 0 42 -19t19 -62q0 -45 -19 -64q-20 -20 -42 -20q-25 0 -45 20q-19 19 -19 64zM236 444q0 -207 41 -290q42 -86 143 -86 q233 0 233 454q0 168 -14 302q-13 123 -49 261h96q36 -173 44 -237q10 -77 14 -154q4 -73 4 -170q0 -265 -82 -404q-83 -140 -240 -140q-107 0 -168 46q-60 45 -88 146q-29 104 -29 279v634h95v-641z"/>
<glyph glyph-name="omicrontonos" horiz-adv-x="850" unicode="ό" d="M358 1262q23 63 55 179q29 104 41 169h110v-21q-23 -70 -66 -167q-49 -112 -85 -181h-55v21zM193 545q0 -234 56 -355q55 -120 175 -120q233 0 233 475q0 471 -233 471q-122 0 -176 -118q-55 -121 -55 -353zM756 545q0 -275 -86 -419q-87 -146 -248 -146q-160 0 -244 146 t-84 419q0 561 332 561q156 0 243 -147t87 -414z"/>
<glyph glyph-name="upsilontonos" horiz-adv-x="834" unicode="ύ" d="M368 1262q23 63 55 179q29 104 41 169h110v-21q-23 -70 -66 -167q-49 -112 -85 -181h-55v21zM236 444q0 -207 41 -290q42 -86 143 -86q233 0 233 454q0 168 -14 302q-13 123 -49 261h96q36 -173 44 -237q10 -77 14 -154q4 -73 4 -170q0 -265 -82 -404q-83 -140 -240 -140 q-107 0 -168 46q-60 45 -88 146q-29 104 -29 279v634h95v-641z"/>
<glyph glyph-name="omegatonos" horiz-adv-x="971" unicode="ώ" d="M429 1262q23 63 55 179q29 104 41 169h110v-21q-23 -70 -66 -167q-49 -112 -85 -181h-55v21zM483 156q-17 -82 -63 -129q-47 -47 -115 -47q-99 0 -153 140t-54 404q0 294 97 561h92q-94 -269 -94 -563q0 -452 129 -452q58 0 88 86q30 87 30 247v273h90v-273 q0 -160 30 -247q30 -86 89 -86q129 0 129 452q0 294 -94 563h92q96 -265 96 -561q0 -173 -26 -297q-26 -122 -73 -184q-48 -63 -114 -63t-111 47q-44 46 -61 129h-4z"/>
<glyph glyph-name="uni03D1" horiz-adv-x="971" unicode="ϑ" d="M702 952q-19 254 -83 396q-63 141 -160 141q-73 0 -110 -54q-38 -55 -38 -157q0 -156 101 -240q101 -85 290 -86zM811 862l4 -104q0 -386 -94 -581q-95 -197 -281 -197q-133 0 -202 89q-68 87 -68 261q0 82 10 192t10 166q0 55 -16 81q-15 24 -49 24q-30 0 -78 -23 l-31 78q26 14 58 22q36 9 67 9q79 0 114 -48q34 -47 34 -143l-3 -78q-18 -213 -18 -286q0 -121 44 -188q44 -66 130 -66q139 0 204 175t65 511v56l-2 50q-238 3 -367 111t-129 307q0 134 63 216q63 83 175 83q148 0 235 -154q88 -157 121 -473h139v-90h-135z"/>
<glyph glyph-name="uni03D2" horiz-adv-x="686" unicode="ϒ" d="M391 0h-98v571l-293 891h104l240 -760q94 411 124 514q32 110 54 162q22 51 52 75q28 22 75 22q22 0 47 -11v-90q-18 6 -34 6q-31 0 -52 -36q-19 -33 -49 -127q-28 -88 -72 -257q-49 -188 -98 -389v-571z"/>
<glyph glyph-name="uni03D6" horiz-adv-x="946" unicode="ϖ" d="M745 500q0 133 -16 235q-17 109 -65 264h-381q-50 -155 -66 -257q-16 -100 -16 -242q0 -213 32 -324q32 -110 91 -110q58 0 81 92q23 94 23 286v232h90v-232q0 -196 23 -288q23 -90 82 -90q58 0 90 110q32 111 32 324zM754 999q51 -165 68 -273q18 -114 18 -226 q0 -255 -56 -388q-56 -132 -155 -132q-63 0 -99 37q-37 38 -53 118h-8q-16 -77 -52 -117q-34 -38 -100 -38q-103 0 -157 134t-54 386q0 118 20 238t64 261h-174v35l78 51h815v-86h-155z"/>
<glyph glyph-name="uni0400" horiz-adv-x="788" unicode="Ѐ" d="M467 1579q-63 51 -149 148q-80 90 -119 163v17h125q29 -67 82 -152t109 -155v-21h-48zM690 0h-530v1462h530v-94h-432v-555h408v-94h-408v-625h432v-94z"/>
<glyph glyph-name="afii10023" horiz-adv-x="788" unicode="Ё" d="M507 1727q0 43 19 62t43 19q25 0 44 -19t19 -62q0 -45 -19 -64q-20 -20 -44 -20q-23 0 -43 20q-19 19 -19 64zM202 1727q0 42 20 62q19 19 44 19q23 0 42 -19t19 -62q0 -45 -19 -64q-20 -20 -42 -20q-24 0 -44 20t-20 64zM690 0h-530v1462h530v-94h-432v-555h408v-94 h-408v-625h432v-94z"/>
<glyph glyph-name="afii10051" horiz-adv-x="930" unicode="Ђ" d="M815 299q0 -154 -61 -236q-62 -83 -172 -83q-54 0 -97 20v94q51 -20 95 -20q68 0 103 56q34 55 34 173v240q0 125 -54 182t-176 57h-135v-782h-98v1368h-240v94h617v-94h-279v-491h131q170 0 251 -81t81 -253v-244z"/>
<glyph glyph-name="afii10052" horiz-adv-x="686" unicode="Ѓ" d="M324 1579v21q126 164 191 307h125v-17q-38 -69 -118 -161q-77 -89 -151 -150h-47zM670 1462v-94h-412v-1368h-98v1462h510z"/>
<glyph glyph-name="afii10053" horiz-adv-x="860" unicode="Є" d="M559 1391q-149 0 -241 -153q-91 -152 -103 -425h457v-94h-459q1 -299 97 -473q94 -172 255 -172q77 0 123 15q45 14 84 38v-90q-86 -57 -215 -57q-133 0 -235 90t-156 263q-55 176 -55 402q0 348 120 549t330 201q143 0 250 -74l-47 -84q-94 64 -205 64z"/>
<glyph glyph-name="afii10054" horiz-adv-x="809" unicode="Ѕ" d="M721 383q0 -181 -100 -291q-101 -112 -254 -112q-175 0 -281 51v106q56 -30 129 -46q79 -17 152 -17q112 0 184 85t72 216q0 121 -51 192q-52 72 -195 142q-115 58 -169 111q-57 55 -83 124q-27 70 -27 170q0 107 44 192t123 131t173 46q87 0 154 -19q74 -21 110 -41 l-38 -94q-111 57 -226 57q-108 0 -176 -74q-67 -73 -67 -194q0 -124 49 -191q50 -67 192 -141q146 -71 216 -168q69 -96 69 -235z"/>
<glyph glyph-name="afii10055" horiz-adv-x="418" unicode="І" d="M160 0v1462h98v-1462h-98z"/>
<glyph glyph-name="afii10056" horiz-adv-x="418" unicode="Ї" d="M300 1727q0 42 20 62q19 19 42 19q25 0 44 -19t19 -62q0 -45 -19 -64q-20 -20 -44 -20q-22 0 -42 20t-20 64zM-5 1727q0 43 19 62t45 19q23 0 42 -19t19 -62q0 -45 -19 -64q-20 -20 -42 -20q-25 0 -45 20q-19 19 -19 64zM160 0v1462h98v-1462h-98z"/>
<glyph glyph-name="afii10057" horiz-adv-x="401" unicode="Ј" d="M27 -369q-68 0 -117 25v92q51 -20 115 -20q62 0 94 58q31 56 31 189v1487h98v-1485q0 -171 -56 -259q-56 -87 -165 -87z"/>
<glyph glyph-name="afii10058" horiz-adv-x="1284" unicode="Љ" d="M709 90h120q136 0 206 82q71 83 71 238q0 160 -68 237q-67 76 -211 76h-118v-633zM1206 410q0 -191 -100 -300q-101 -110 -281 -110h-215v1368h-225l-39 -476q-44 -528 -71 -655q-28 -134 -77 -193q-48 -58 -143 -58q-47 0 -75 18v92q22 -16 69 -16q33 0 55 13 q25 15 42 51q17 35 32 107q14 66 28 184q14 115 93 1027h410v-649h114q194 0 289 -96q94 -95 94 -307z"/>
<glyph glyph-name="afii10059" horiz-adv-x="1341" unicode="Њ" d="M770 90h121q135 0 205 82q71 83 71 238q0 161 -67 237t-211 76h-119v-633zM770 813h115q197 0 290 -97q93 -98 93 -306q0 -193 -101 -301q-102 -109 -280 -109h-215v723h-414v-723h-98v1462h98v-649h414v649h98v-649z"/>
<glyph glyph-name="afii10060" horiz-adv-x="950" unicode="Ћ" d="M352 877h135q166 0 247 -81t81 -253v-543h-98v543q0 125 -54 182t-176 57h-135v-782h-98v1368h-240v94h617v-94h-279v-491z"/>
<glyph glyph-name="afii10061" horiz-adv-x="811" unicode="Ќ" d="M359 1579v21q126 164 191 307h125v-17q-37 -66 -119 -161q-80 -91 -150 -150h-47zM258 756l414 706h106l-418 -706l451 -756h-113l-440 748v-748h-98v1462h98v-706z"/>
<glyph glyph-name="uni040D" horiz-adv-x="1090" unicode="Ѝ" d="M603 1579q-63 51 -149 148q-80 90 -119 163v17h125q29 -67 82 -152t109 -155v-21h-48zM160 1462h96v-1022v-68q0 -14 -10 -206h8l549 1296h127v-1462h-96v1049q0 125 12 262h-8l-553 -1311h-125v1462z"/>
<glyph glyph-name="afii10062" horiz-adv-x="686" unicode="Ў" d="M349 1579q-121 0 -186 66q-63 65 -74 215h92q11 -113 50 -160t118 -47q84 0 123 50q38 48 47 157h92q-17 -281 -262 -281zM313 428l-313 1034h102l222 -749q15 -57 34 -144h9q12 89 28 144l189 749h102l-326 -1220q-38 -141 -92 -201q-55 -61 -143 -61q-46 0 -88 20v92 q43 -18 86 -18q50 0 84 44q35 45 63 148z"/>
<glyph glyph-name="afii10145" horiz-adv-x="1026" unicode="Џ" d="M160 1462h98v-1368h510v1368h98v-1462h-305v-369h-94v369h-307v1462z"/>
<glyph glyph-name="afii10017" horiz-adv-x="813" unicode="А" d="M561 629l-129 545q-22 103 -31 174q-9 -91 -28 -174l-125 -545h313zM713 0l-129 530h-355l-127 -530h-102l352 1462h101l360 -1462h-100z"/>
<glyph glyph-name="afii10018" horiz-adv-x="864" unicode="Б" d="M258 90h162q135 0 205 82q71 83 71 238q0 161 -67 237t-211 76h-160v-633zM258 1368v-555h156q197 0 290 -97q93 -98 93 -306q0 -193 -101 -301q-102 -109 -280 -109h-256v1462h571v-94h-473z"/>
<glyph glyph-name="afii10019" horiz-adv-x="907" unicode="В" d="M258 721v-631h225q242 0 242 328q0 146 -71 225q-70 78 -199 78h-197zM258 811h184q136 0 195 76t59 229q0 123 -65 190q-65 66 -191 66h-182v-561zM160 1462h280q172 0 264 -88q93 -88 93 -260q0 -297 -217 -340v-8q124 -25 186 -112q61 -85 61 -238q0 -196 -87 -306 t-244 -110h-336v1462z"/>
<glyph glyph-name="afii10020" horiz-adv-x="686" unicode="Г" d="M670 1462v-94h-412v-1368h-98v1462h510z"/>
<glyph glyph-name="afii10021" horiz-adv-x="938" unicode="Д" d="M674 94v1274h-260q-23 -709 -215 -1274h475zM897 -369h-94v369h-699v-369h-94v463h88q118 358 168 670q49 307 49 698h457v-1368h125v-463z"/>
<glyph glyph-name="afii10022" horiz-adv-x="788" unicode="Е" d="M690 0h-530v1462h530v-94h-432v-555h408v-94h-408v-625h432v-94z"/>
<glyph glyph-name="afii10024" horiz-adv-x="1122" unicode="Ж" d="M512 1462h98v-706l394 706h106l-399 -706l411 -756h-110l-402 748v-748h-98v748l-401 -748h-111l412 756l-400 706h107l393 -706v706z"/>
<glyph glyph-name="afii10025" horiz-adv-x="813" unicode="З" d="M686 391q0 -194 -98 -303q-97 -108 -275 -108q-142 0 -256 55v108q55 -34 119 -51q68 -18 137 -18q271 0 271 315q0 166 -78 244t-242 78h-100v94h106q142 0 218 82q77 83 77 241q0 131 -59 196t-164 65q-59 0 -109 -26q-46 -24 -83 -67l-66 68q110 119 266 119 q148 0 232 -95t84 -260q0 -143 -68 -240q-68 -96 -182 -126v-8q133 -16 202 -111q68 -93 68 -252z"/>
<glyph glyph-name="afii10026" horiz-adv-x="1090" unicode="И" d="M160 1462h96v-1022v-68q0 -14 -10 -206h8l549 1296h127v-1462h-96v1049q0 125 12 262h-8l-553 -1311h-125v1462z"/>
<glyph glyph-name="afii10027" horiz-adv-x="1090" unicode="Й" d="M544 1579q-122 0 -186 66q-63 65 -74 215h92q11 -114 49 -160q39 -47 119 -47q83 0 122 50q39 49 48 157h92q-17 -281 -262 -281zM160 1462h96v-1022v-68q0 -14 -10 -206h8l549 1296h127v-1462h-96v1049q0 125 12 262h-8l-553 -1311h-125v1462z"/>
<glyph glyph-name="afii10028" horiz-adv-x="811" unicode="К" d="M258 756l414 706h106l-418 -706l451 -756h-113l-440 748v-748h-98v1462h98v-706z"/>
<glyph glyph-name="afii10029" horiz-adv-x="930" unicode="Л" d="M770 0h-98v1368h-287l-39 -476q-44 -528 -71 -655q-28 -134 -77 -193q-48 -58 -143 -58q-47 0 -75 18v92q22 -16 69 -16q33 0 55 13q25 15 42 51q17 35 32 107q14 66 28 184q14 115 93 1027h471v-1462z"/>
<glyph glyph-name="afii10030" horiz-adv-x="1395" unicode="М" d="M641 0l-389 1331h-8q10 -200 10 -266v-1065h-94v1462h145l328 -1118q43 -148 57 -252h8q12 82 62 250l325 1120h150v-1462h-98v1057q0 72 10 272h-8l-387 -1329h-111z"/>
<glyph glyph-name="afii10031" horiz-adv-x="1026" unicode="Н" d="M866 0h-98v719h-510v-719h-98v1462h98v-649h510v649h98v-1462z"/>
<glyph glyph-name="afii10032" horiz-adv-x="1065" unicode="О" d="M213 733q0 -325 81 -492t238 -167t238 165q82 167 82 494q0 325 -80 491q-80 165 -237 165q-160 0 -241 -167q-81 -168 -81 -489zM954 733q0 -363 -108 -558t-314 -195q-207 0 -314 197t-107 558q0 379 106 563q107 185 318 185q204 0 311 -194q108 -195 108 -556z"/>
<glyph glyph-name="afii10033" horiz-adv-x="1026" unicode="П" d="M866 0h-98v1368h-510v-1368h-98v1462h706v-1462z"/>
<glyph glyph-name="afii10034" horiz-adv-x="840" unicode="Р" d="M258 694h98q172 0 244 81t72 267q0 179 -74 254q-75 76 -231 76h-109v-678zM772 1042q0 -225 -104 -332q-103 -106 -306 -106h-104v-604h-98v1462h200q214 0 313 -101t99 -319z"/>
<glyph glyph-name="afii10035" horiz-adv-x="860" unicode="С" d="M573 1391q-164 0 -262 -175t-98 -483q0 -201 45 -350q45 -150 129 -229q85 -80 195 -80q112 0 196 41v-90q-78 -45 -205 -45q-138 0 -243 90t-162 261t-57 404q0 350 125 550t339 200q133 0 234 -62l-45 -86q-84 54 -191 54z"/>
<glyph glyph-name="afii10036" horiz-adv-x="711" unicode="Т" d="M403 0h-98v1368h-291v94h680v-94h-291v-1368z"/>
<glyph glyph-name="afii10037" horiz-adv-x="686" unicode="У" d="M313 428l-313 1034h102l222 -749q15 -57 34 -144h9q12 89 28 144l189 749h102l-326 -1220q-38 -141 -92 -201q-55 -61 -143 -61q-46 0 -88 20v92q43 -18 86 -18q50 0 84 44q35 45 63 148z"/>
<glyph glyph-name="afii10038" horiz-adv-x="1204" unicode="Ф" d="M553 1212q-167 0 -256 -117q-88 -116 -88 -329q0 -226 88 -348q89 -123 256 -123v917zM651 295q167 0 256 123q88 122 88 348q0 446 -344 446v-917zM553 1483h98v-180q210 0 328 -144q119 -145 119 -393q0 -258 -119 -410q-118 -151 -328 -151v-225h-98v225 q-138 0 -239 71q-100 70 -154 198t-54 292q0 153 54 276t156 192t237 69v180z"/>
<glyph glyph-name="afii10039" horiz-adv-x="715" unicode="Х" d="M694 0h-102l-219 672l-254 -672h-99l306 776l-263 686h103l217 -608l211 608h100l-258 -708z"/>
<glyph glyph-name="afii10040" horiz-adv-x="1032" unicode="Ц" d="M866 94h111v-463h-94v369h-723v1462h98v-1368h510v1368h98v-1368z"/>
<glyph glyph-name="afii10041" horiz-adv-x="1001" unicode="Ч" d="M842 0h-99v627q-169 -95 -319 -95q-289 0 -289 367v563h98v-567q0 -134 49 -201t150 -67q74 0 144 17q68 17 167 69v749h99v-1462z"/>
<glyph glyph-name="afii10042" horiz-adv-x="1407" unicode="Ш" d="M1247 0h-1087v1462h98v-1368h395v1368h99v-1368h397v1368h98v-1462z"/>
<glyph glyph-name="afii10043" horiz-adv-x="1413" unicode="Щ" d="M752 94h397v1368h98v-1368h111v-463h-94v369h-1104v1462h98v-1368h395v1368h99v-1368z"/>
<glyph glyph-name="afii10044" horiz-adv-x="1030" unicode="Ъ" d="M414 90h161q136 0 206 82q71 83 71 238q0 160 -68 237q-67 76 -211 76h-159v-633zM25 1366v96h389v-649h155q195 0 289 -96q94 -95 94 -307q0 -191 -100 -300q-101 -110 -281 -110h-256v1366h-290z"/>
<glyph glyph-name="afii10045" horiz-adv-x="1284" unicode="Ы" d="M1124 0h-98v1462h98v-1462zM258 90h162q135 0 205 82q71 83 71 238q0 161 -67 237t-211 76h-160v-633zM797 410q0 -193 -101 -301q-102 -109 -280 -109h-256v1462h98v-649h156q197 0 290 -97q93 -98 93 -306z"/>
<glyph glyph-name="afii10046" horiz-adv-x="874" unicode="Ь" d="M258 90h162q135 0 205 82q71 83 71 238q0 161 -67 237t-211 76h-160v-633zM797 410q0 -193 -101 -301q-102 -109 -280 -109h-256v1462h98v-649h156q197 0 290 -97q93 -98 93 -306z"/>
<glyph glyph-name="afii10047" horiz-adv-x="860" unicode="Э" d="M283 1485q141 0 247 -91t163 -263q57 -171 57 -402q0 -346 -125 -548q-125 -201 -340 -201q-58 0 -116 11q-54 10 -87 29v95q85 -41 205 -41q165 0 260 170t100 475h-461v94h459q-13 269 -111 425q-96 153 -251 153q-103 0 -187 -54l-45 84q103 64 232 64z"/>
<glyph glyph-name="afii10048" horiz-adv-x="1384" unicode="Ю" d="M602 733q0 -327 73 -492q74 -167 212 -167q140 0 212 168t72 491q0 329 -71 492q-72 164 -211 164q-143 0 -215 -166q-72 -167 -72 -490zM1274 733q0 -359 -100 -557q-99 -196 -287 -196q-185 0 -285 189q-101 189 -102 550h-242v-719h-98v1462h98v-649h242 q16 670 389 670q186 0 285 -193q100 -195 100 -557z"/>
<glyph glyph-name="afii10049" horiz-adv-x="877" unicode="Я" d="M618 1372h-124q-156 0 -224 -77q-67 -76 -67 -248q0 -166 63 -244t201 -78h151v647zM426 639l-272 -639h-111l291 653q-110 29 -172 133t-62 256q0 420 379 420h238v-1462h-99v637z"/>
<glyph glyph-name="afii10065" horiz-adv-x="784" unicode="а" d="M334 61q101 0 158 101q57 100 57 284v113l-113 -6q-133 -8 -194 -72q-64 -67 -64 -192q0 -117 42 -173q42 -55 114 -55zM565 0l-12 152h-4q-78 -172 -236 -172q-105 0 -170 85t-65 226q0 156 93 246q94 91 261 98l117 6v90q0 151 -38 221t-126 70q-93 0 -190 -61l-41 75 q112 70 237 70q135 0 193 -84q59 -85 59 -283v-739h-78z"/>
<glyph glyph-name="afii10066" horiz-adv-x="864" unicode="б" d="M106 711q0 304 55 481q54 174 184 260q129 86 400 111l15 -86q-222 -17 -333 -78q-112 -62 -162 -188q-53 -132 -60 -369h8q37 77 101 121q62 43 137 43q151 0 235 -132t84 -380q0 -246 -89 -380t-259 -134q-164 0 -240 180q-76 179 -76 551zM205 690q5 -321 57 -472 q53 -152 162 -152q248 0 248 428q0 421 -238 421q-73 0 -137 -64q-64 -63 -92 -161z"/>
<glyph glyph-name="afii10067" horiz-adv-x="784" unicode="в" d="M569 825q0 174 -192 174h-137v-385h157q94 0 133 50t39 161zM600 328q0 111 -50 157q-52 47 -149 47h-161v-446h157q106 0 155 58q48 57 48 184zM668 825q0 -98 -36 -158q-36 -59 -114 -85v-9q87 -15 134 -81q46 -65 46 -166q0 -155 -79 -240q-80 -86 -224 -86h-250v1085 h230q144 0 218 -67q75 -68 75 -193z"/>
<glyph glyph-name="afii10068" horiz-adv-x="592" unicode="г" d="M575 1085v-90h-335v-995h-95v1085h430z"/>
<glyph glyph-name="afii10069" horiz-adv-x="788" unicode="д" d="M743 -369h-94v369h-545v-369h-94v459h84q83 193 127 451q43 254 43 544h369v-995h110v-459zM539 90v909h-187q-3 -246 -50 -503q-48 -260 -116 -406h353z"/>
<glyph glyph-name="afii10070" horiz-adv-x="803" unicode="е" d="M410 1020q-196 0 -215 -391h417q0 179 -54 285t-148 106zM453 -20q-172 0 -264 146q-93 147 -93 409q0 277 83 425q82 146 237 146q136 0 213 -128q78 -129 78 -347v-88h-514q1 -235 67 -355q64 -118 197 -118q103 0 215 67v-92q-104 -65 -219 -65z"/>
<glyph glyph-name="afii10072" horiz-adv-x="958" unicode="ж" d="M526 1085v-510l289 510h107l-301 -510l327 -575h-110l-312 567v-567h-94v567l-311 -567h-111l328 575l-301 510h106l289 -510v510h94z"/>
<glyph glyph-name="afii10073" horiz-adv-x="643" unicode="з" d="M258 618q45 0 85 26q39 26 62 74q23 49 23 113q0 94 -44 143q-44 48 -116 48q-77 0 -153 -49l-45 74q95 59 209 59q117 0 182 -71t65 -199q0 -90 -42 -156q-43 -67 -105 -92v-8q86 -29 130 -98q46 -72 46 -177q0 -148 -80 -237q-79 -88 -207 -88q-140 0 -217 71v99 q41 -32 94 -58q54 -26 123 -26q91 0 140 61t49 178q0 104 -55 165q-56 62 -150 62h-49v86h55z"/>
<glyph glyph-name="afii10074" horiz-adv-x="883" unicode="и" d="M240 1085v-733l-7 -205l385 938h119v-1085h-94v702l4 236l-385 -938h-117v1085h95z"/>
<glyph glyph-name="afii10075" horiz-adv-x="883" unicode="й" d="M446 1241q-121 0 -186 67q-63 65 -74 214h92q11 -114 49 -160q39 -47 119 -47q83 0 122 50q39 49 48 157h92q-17 -281 -262 -281zM240 1085v-733l-7 -205l385 938h119v-1085h-94v702l4 236l-385 -938h-117v1085h95z"/>
<glyph glyph-name="afii10076" horiz-adv-x="692" unicode="к" d="M547 1085h108l-319 -510l346 -575h-113l-329 567v-567h-95v1085h95v-510z"/>
<glyph glyph-name="afii10077" horiz-adv-x="776" unicode="л" d="M303 995q-10 -262 -31 -473q-20 -196 -48 -311q-29 -116 -70 -168q-42 -53 -119 -53q-23 0 -45 8v88q12 -6 35 -6q59 0 95 100q35 99 58 314q24 229 37 591h416v-1085h-94v995h-234z"/>
<glyph glyph-name="afii10078" horiz-adv-x="1055" unicode="м" d="M469 0l-236 938h-8q11 -242 11 -279v-659h-91v1085h138l180 -708q38 -158 57 -271h8q3 27 18 92q21 88 226 887h137v-1085h-94v653q0 85 10 285h-8l-237 -938h-111z"/>
<glyph glyph-name="afii10079" horiz-adv-x="883" unicode="н" d="M240 1085v-475h403v475h94v-1085h-94v524h-403v-524h-95v1085h95z"/>
<glyph glyph-name="afii10080" horiz-adv-x="850" unicode="о" d="M193 545q0 -234 56 -355q55 -120 175 -120q233 0 233 475q0 471 -233 471q-122 0 -176 -118q-55 -121 -55 -353zM756 545q0 -275 -86 -419q-87 -146 -248 -146q-160 0 -244 146t-84 419q0 561 332 561q156 0 243 -147t87 -414z"/>
<glyph glyph-name="afii10081" horiz-adv-x="883" unicode="п" d="M737 1085v-1085h-94v999h-403v-999h-95v1085h592z"/>
<glyph glyph-name="afii10082" horiz-adv-x="893" unicode="р" d="M475 1016q-119 0 -177 -105q-58 -104 -58 -329v-31q0 -250 59 -368q59 -117 180 -117q112 0 166 116q55 119 55 363q0 235 -51 353t-174 118zM494 -20q-81 0 -150 46q-68 45 -102 124h-9l7 -119v-523h-95v1577h78l10 -149h9q41 84 102 126q64 44 137 44q318 0 318 -561 q0 -271 -78 -418t-227 -147z"/>
<glyph glyph-name="afii10083" horiz-adv-x="635" unicode="с" d="M424 -20q-163 0 -246 142q-82 140 -82 415q0 277 84 423t246 146q101 0 168 -37l-37 -84q-66 31 -123 31q-239 0 -239 -477q0 -473 239 -473q70 0 154 32v-80q-31 -17 -81 -28q-46 -10 -83 -10z"/>
<glyph glyph-name="afii10084" horiz-adv-x="512" unicode="т" d="M496 1085v-86h-193v-999h-94v999h-193v86h480z"/>
<glyph glyph-name="afii10085" horiz-adv-x="653" unicode="у" d="M281 2l-271 1083h96l164 -677q30 -129 56 -275h8q21 143 53 277l160 675h96l-317 -1290q-35 -144 -91 -215q-57 -72 -151 -72q-37 0 -86 17v86q42 -14 78 -14q60 0 95 51q35 52 62 166z"/>
<glyph glyph-name="afii10086" horiz-adv-x="997" unicode="ф" d="M805 545q0 212 -67 334q-67 123 -191 141v-954q122 17 190 144t68 335zM195 545q0 -212 69 -338t189 -141v954q-126 -16 -192 -139t-66 -336zM903 545q0 -251 -92 -398t-264 -167v-472h-94v472q-170 15 -264 160q-93 144 -93 405q0 248 92 396q91 147 265 165v450h94 v-450q173 -18 264 -165q92 -148 92 -396z"/>
<glyph glyph-name="afii10087" horiz-adv-x="676" unicode="х" d="M293 563l-238 522h103l182 -440l190 440h99l-242 -534l254 -551h-100l-203 469l-205 -469h-98z"/>
<glyph glyph-name="afii10088" horiz-adv-x="893" unicode="ц" d="M737 90h111v-459h-94v369h-609v1085h95v-995h403v995h94v-995z"/>
<glyph glyph-name="afii10089" horiz-adv-x="862" unicode="ч" d="M217 1085v-448q0 -92 39 -134t104 -42q76 0 144 39q67 39 119 100v485h94v-1085h-94v498q-52 -59 -123 -92q-72 -33 -154 -33q-223 0 -223 286v426h94z"/>
<glyph glyph-name="afii10090" horiz-adv-x="1180" unicode="ш" d="M145 0v1085h95v-995h303v995h94v-995h303v995h94v-1085h-889z"/>
<glyph glyph-name="afii10091" horiz-adv-x="1190" unicode="щ" d="M1145 90v-459h-94v369h-906v1085h95v-995h303v995h94v-995h303v995h94v-995h111z"/>
<glyph glyph-name="afii10092" horiz-adv-x="889" unicode="ъ" d="M344 524v-438h139q230 0 230 219t-228 219h-141zM344 610h141q157 0 242 -80q84 -80 84 -225t-86 -225t-242 -80h-233v999h-234v86h328v-475z"/>
<glyph glyph-name="afii10093" horiz-adv-x="1114" unicode="ы" d="M240 524v-438h139q229 0 229 219t-227 219h-141zM240 610h141q157 0 242 -80q84 -80 84 -225t-86 -225t-242 -80h-234v1085h95v-475zM969 0h-95v1085h95v-1085z"/>
<glyph glyph-name="afii10094" horiz-adv-x="784" unicode="ь" d="M240 524v-438h139q229 0 229 219t-227 219h-141zM240 610h141q157 0 242 -80q84 -80 84 -225t-86 -225t-242 -80h-234v1085h95v-475z"/>
<glyph glyph-name="afii10095" horiz-adv-x="682" unicode="э" d="M225 -20q-48 0 -94 10t-80 28v91q85 -39 168 -39q131 0 197 108q66 109 71 346h-294v86h292q-16 406 -252 406q-32 0 -71 -12q-41 -13 -58 -23l-36 86q81 39 176 39q167 0 254 -141q88 -143 88 -416q0 -281 -90 -425t-271 -144z"/>
<glyph glyph-name="afii10096" horiz-adv-x="1174" unicode="ю" d="M549 545q0 -479 215 -479q217 0 217 479q0 471 -217 471q-113 0 -164 -118t-51 -353zM1079 545q0 -271 -81 -418t-236 -147q-150 0 -230 143q-79 142 -81 401h-211v-524h-95v1085h95v-475h211q15 496 315 496q149 0 231 -146t82 -415z"/>
<glyph glyph-name="afii10097" horiz-adv-x="797" unicode="я" d="M557 565v434h-127q-242 0 -242 -217t240 -217h129zM557 479h-125l-272 -479h-111l289 485q-122 23 -185 98t-63 199q0 146 90 224q91 79 250 79h221v-1085h-94v479z"/>
<glyph glyph-name="uni0450" horiz-adv-x="803" unicode="ѐ" d="M465 1241q-59 48 -148 148q-83 93 -120 163v17h125q27 -62 83 -152q57 -91 108 -155v-21h-48zM410 1020q-196 0 -215 -391h417q0 179 -54 285t-148 106zM453 -20q-172 0 -264 146q-93 147 -93 409q0 277 83 425q82 146 237 146q136 0 213 -128q78 -129 78 -347v-88h-514 q1 -235 67 -355q64 -118 197 -118q103 0 215 67v-92q-104 -65 -219 -65z"/>
<glyph glyph-name="afii10071" horiz-adv-x="803" unicode="ё" d="M500 1389q0 42 20 62q19 19 42 19q25 0 44 -19t19 -62q0 -45 -19 -64q-20 -20 -44 -20q-22 0 -42 20t-20 64zM195 1389q0 42 20 62q19 19 44 19q23 0 42 -19t19 -62q0 -45 -19 -64q-20 -20 -42 -20q-24 0 -44 20t-20 64zM410 1020q-196 0 -215 -391h417q0 179 -54 285 t-148 106zM453 -20q-172 0 -264 146q-93 147 -93 409q0 277 83 425q82 146 237 146q136 0 213 -128q78 -129 78 -347v-88h-514q1 -235 67 -355q64 -118 197 -118q103 0 215 67v-92q-104 -65 -219 -65z"/>
<glyph glyph-name="afii10099" horiz-adv-x="870" unicode="ђ" d="M635 748q0 148 -38 208q-39 62 -126 62q-114 0 -173 -102q-58 -101 -58 -322v-594h-95v1270h-118v84h118v202h95v-202h262v-84h-262v-219q0 -74 -4 -115h8q31 80 97 126q63 44 134 44q137 0 196 -90q58 -89 58 -268v-949q0 -291 -176 -291q-39 0 -68 17v90q33 -16 64 -16 q86 0 86 186v963z"/>
<glyph glyph-name="afii10100" horiz-adv-x="592" unicode="ѓ" d="M275 1241v21q126 164 191 307h125v-17q-37 -66 -119 -161q-80 -91 -150 -150h-47zM575 1085v-90h-335v-995h-95v1085h430z"/>
<glyph glyph-name="afii10101" horiz-adv-x="682" unicode="є" d="M195 524q4 -454 258 -454q83 0 165 39v-91q-34 -18 -82 -28q-47 -10 -92 -10q-173 0 -260 141q-88 143 -88 416q0 277 89 423t261 146q98 0 179 -39l-35 -86q-24 14 -60 24q-41 11 -75 11q-241 0 -260 -406h294v-86h-294z"/>
<glyph glyph-name="afii10102" horiz-adv-x="645" unicode="ѕ" d="M571 272q0 -137 -72 -215q-71 -77 -208 -77q-76 0 -130 19q-55 19 -87 42v111q38 -38 98 -60t125 -22q84 0 132 55t48 147q0 71 -35 121q-36 52 -131 113q-111 70 -151 112q-43 44 -64 94q-22 51 -22 124q0 117 79 193q80 77 201 77q130 0 219 -62l-49 -83 q-82 55 -174 55q-84 0 -134 -50t-50 -130q0 -74 34 -121q34 -48 144 -117q103 -67 148 -114q40 -41 60 -94q19 -50 19 -118z"/>
<glyph glyph-name="afii10103" horiz-adv-x="385" unicode="і" d="M131 1386q0 43 19 70q18 25 47 25q27 0 43 -25t16 -70q0 -43 -16 -68q-17 -26 -43 -26q-29 0 -47 26q-19 27 -19 68zM240 0h-95v1085h95v-1085z"/>
<glyph glyph-name="afii10104" horiz-adv-x="385" unicode="ї" d="M285 1389q0 43 19 62t43 19q25 0 44 -19t19 -62q0 -45 -19 -64q-20 -20 -44 -20q-23 0 -43 20q-19 19 -19 64zM-20 1389q0 42 20 62q19 19 44 19q23 0 42 -19t19 -62q0 -45 -19 -64q-20 -20 -42 -20q-24 0 -44 20t-20 64zM240 0h-95v1085h95v-1085z"/>
<glyph glyph-name="afii10105" horiz-adv-x="385" unicode="ј" d="M131 1386q0 43 19 70q18 25 47 25q27 0 43 -25t16 -70q0 -43 -16 -68q-17 -26 -43 -26q-29 0 -47 26q-19 27 -19 68zM63 -492q-41 0 -67 17v90q31 -16 63 -16q47 0 67 45q19 44 19 141v1300h95v-1286q0 -150 -43 -220q-44 -71 -134 -71z"/>
<glyph glyph-name="afii10106" horiz-adv-x="1143" unicode="љ" d="M598 524v-438h139q230 0 230 219t-228 219h-141zM598 610h141q157 0 242 -80q84 -80 84 -225t-86 -225t-242 -80h-233v995h-201q-10 -262 -31 -473q-20 -196 -48 -311q-29 -116 -70 -168q-42 -53 -119 -53q-23 0 -45 8v88q12 -6 35 -6q59 0 95 100q35 99 58 314 q24 229 37 591h383v-475z"/>
<glyph glyph-name="afii10107" horiz-adv-x="1257" unicode="њ" d="M713 524v-438h139q229 0 229 219t-227 219h-141zM713 610h141q157 0 242 -80q84 -80 84 -225t-86 -225t-242 -80h-234v524h-378v-524h-95v1085h95v-475h378v475h95v-475z"/>
<glyph glyph-name="afii10108" horiz-adv-x="870" unicode="ћ" d="M635 0v748q0 148 -38 208q-39 62 -126 62q-114 0 -173 -102q-58 -101 -58 -322v-594h-95v1270h-118v84h118v202h95v-202h262v-84h-262v-219q0 -74 -4 -115h8q32 81 96 126q63 44 135 44q137 0 196 -90q58 -89 58 -268v-748h-94z"/>
<glyph glyph-name="afii10109" horiz-adv-x="692" unicode="ќ" d="M351 1241v21q126 164 191 307h125v-17q-37 -66 -119 -161q-80 -91 -150 -150h-47zM547 1085h108l-319 -510l346 -575h-113l-329 567v-567h-95v1085h95v-510z"/>
<glyph glyph-name="uni045D" horiz-adv-x="883" unicode="ѝ" d="M490 1241q-59 48 -148 148q-83 93 -120 163v17h125q27 -62 83 -152q57 -91 108 -155v-21h-48zM240 1085v-733l-7 -205l385 938h119v-1085h-94v702l4 236l-385 -938h-117v1085h95z"/>
<glyph glyph-name="afii10110" horiz-adv-x="653" unicode="ў" d="M329 1241q-121 0 -186 67q-63 65 -74 214h92q11 -114 49 -160q39 -47 119 -47q83 0 122 50q39 49 48 157h92q-17 -281 -262 -281zM281 2l-271 1083h96l164 -677q30 -129 56 -275h8q21 143 53 277l160 675h96l-317 -1290q-35 -144 -91 -215q-57 -72 -151 -72q-37 0 -86 17 v86q42 -14 78 -14q60 0 95 51q35 52 62 166z"/>
<glyph glyph-name="afii10193" horiz-adv-x="883" unicode="џ" d="M145 0v1085h95v-995h403v995h94v-1085h-250v-369h-94v369h-248z"/>
<glyph glyph-name="uni0460" horiz-adv-x="1380" unicode="Ѡ" d="M690 76q-52 -54 -102 -75t-113 -21q-109 0 -191 90q-83 90 -128 262q-45 171 -45 403q0 345 94 548q93 202 256 202q94 0 186 -62l-47 -82q-56 50 -131 50q-118 0 -187 -175q-69 -174 -69 -483q0 -200 34 -353q33 -149 94 -228q60 -78 140 -78q87 0 160 82v471h98v-471 q69 -82 162 -82q78 0 138 80q59 79 94 229q34 148 34 350q0 310 -69 484t-187 174q-75 0 -131 -50l-47 82q92 62 187 62q163 0 256 -201q94 -203 94 -549q0 -233 -45 -404t-129 -261t-193 -90q-62 0 -112 22q-53 24 -101 74z"/>
<glyph glyph-name="uni0461" horiz-adv-x="1161" unicode="ѡ" d="M588 518l-223 -518h-89l-245 1085h96l125 -571q37 -160 78 -391h8l223 526l-92 436h92l143 -692q44 -195 54 -284h8q244 395 244 976h94q0 -326 -76 -584t-242 -501h-88z"/>
<glyph glyph-name="uni0462" horiz-adv-x="936" unicode="Ѣ" d="M319 90h162q133 0 205 82q72 83 72 238q0 160 -68 237q-67 76 -211 76h-160v-633zM858 410q0 -191 -100 -300q-101 -110 -281 -110h-256v1155h-211v82h211v319h98v-319h263v-82h-263v-342h156q195 0 289 -96q94 -95 94 -307z"/>
<glyph glyph-name="uni0463" horiz-adv-x="784" unicode="ѣ" d="M240 524v-438h139q229 0 229 219t-227 219h-141zM10 1085h135v234h95v-234h172v-81h-172v-394h141q157 0 242 -80q84 -80 84 -225t-86 -225t-242 -80h-234v1004h-135v81z"/>
<glyph glyph-name="uni0464" horiz-adv-x="1249" unicode="Ѥ" d="M948 1391q-150 0 -241 -153q-91 -152 -103 -425h457v-94h-459q1 -298 97 -471q96 -174 255 -174q114 0 207 57v-94q-85 -57 -215 -57q-204 0 -324 198q-121 199 -122 541h-242v-719h-98v1462h98v-649h244q13 314 132 493t316 179q141 0 248 -74l-45 -84q-94 64 -205 64z "/>
<glyph glyph-name="uni0465" horiz-adv-x="1034" unicode="ѥ" d="M547 524q4 -454 258 -454q83 0 166 39v-91q-36 -19 -81 -28q-49 -10 -93 -10q-344 0 -348 544h-209v-524h-95v1085h95v-475h209q10 242 100 370q89 126 250 126q97 0 178 -39l-35 -86q-24 14 -60 24q-41 11 -75 11q-241 0 -260 -406h295v-86h-295z"/>
<glyph glyph-name="uni0466" horiz-adv-x="895" unicode="Ѧ" d="M315 813h258l-94 354q-25 90 -37 174q-9 -90 -34 -174zM496 0h-95v719h-110l-189 -719h-102l397 1462h92l406 -1462h-100l-195 719h-104v-719z"/>
<glyph glyph-name="uni0467" horiz-adv-x="778" unicode="ѧ" d="M287 610h202l-47 162q-18 61 -33 127q-14 64 -16 86h-8q-6 -44 -14 -77q-12 -49 -84 -298zM516 524h-84v-524h-90v524h-82l-154 -524h-96l332 1085h98l328 -1085h-96z"/>
<glyph glyph-name="uni0468" horiz-adv-x="1284" unicode="Ѩ" d="M705 813h258l-95 354q-25 90 -37 174q-9 -90 -34 -174zM989 719h-104v-719h-94v719h-111l-188 -719h-103l195 719h-326v-719h-98v1462h98v-649h352l176 649h93l405 -1462h-100z"/>
<glyph glyph-name="uni0469" horiz-adv-x="1126" unicode="ѩ" d="M635 610h203l-47 162q-19 66 -32 121q-16 69 -18 92h-8q-11 -89 -51 -213zM864 524h-84v-524h-90v524h-82l-153 -524h-97l160 524h-278v-524h-95v1085h95v-475h305l145 475h98l328 -1085h-96z"/>
<glyph glyph-name="uni046A" horiz-adv-x="1010" unicode="Ѫ" d="M778 1368h-547l273 -520zM895 1462v-86l-299 -545q118 -4 190 -90q73 -87 113 -284l100 -457h-104l-102 483q-32 151 -79 205q-48 55 -153 55h-8v-743h-98v743h-9q-71 0 -111 -22q-42 -23 -68 -76q-28 -56 -50 -162l-102 -483h-105l101 457q42 204 111 286q70 83 190 88 l-297 545v86h780z"/>
<glyph glyph-name="uni046B" horiz-adv-x="961" unicode="ѫ" d="M713 999h-467l233 -354zM831 1085v-71l-256 -383q73 -8 119 -36q47 -29 80 -81q30 -48 72 -186l98 -328h-104l-95 344q-33 120 -75 161q-41 40 -121 40h-23v-545h-94v545h-20q-52 0 -88 -17q-34 -16 -58 -54q-23 -36 -49 -128l-96 -346h-105l99 328q41 137 73 188 q33 53 79 81q45 28 118 34l-258 383v71h704z"/>
<glyph glyph-name="uni046C" horiz-adv-x="1430" unicode="Ѭ" d="M1198 1368h-549l275 -545zM1315 1462v-86l-299 -569q79 -4 136 -42q57 -37 95 -112q37 -73 72 -221l100 -432h-104l-103 459q-34 151 -81 205q-47 55 -150 55h-8v-719h-99v719h-8q-71 0 -111 -23t-67 -76q-27 -52 -51 -161l-102 -459h-105l100 432q48 208 115 287h-387 v-719h-98v1462h98v-649h571l-294 563v86h780z"/>
<glyph glyph-name="uni046D" horiz-adv-x="1329" unicode="ѭ" d="M1081 999h-467l234 -366zM1200 1085v-71l-258 -404q71 -5 118 -32q46 -27 80 -79t74 -182l99 -317h-105l-98 334q-33 113 -72 152q-38 38 -120 38h-23v-524h-94v524h-21q-82 0 -119 -36q-39 -37 -71 -152l-101 -336h-104l98 317q47 149 90 207h-333v-524h-95v1085h95 v-475h514l-258 404v71h704z"/>
<glyph glyph-name="uni046E" horiz-adv-x="813" unicode="Ѯ" d="M666 1128q0 -143 -68 -240q-68 -96 -182 -126v-8q138 -16 204 -110q66 -93 66 -243q0 -192 -96 -294q-95 -101 -277 -107q-73 -3 -113 -40t-40 -99q0 -70 41 -108t118 -38q51 0 87 7q42 8 83 8q56 0 107 -13v-98q-42 16 -104 16q-39 0 -78 -7t-90 -7q-132 0 -197 64 q-66 64 -66 176q0 105 64 167q63 61 188 66q137 4 204 78q67 73 67 227q0 162 -76 237t-244 75h-100v94h106q142 0 218 82q77 83 77 241q0 132 -58 196q-59 65 -165 65q-57 0 -109 -26q-51 -25 -83 -67l-66 68q76 85 188 111q-16 36 -62 119q-40 74 -75 120v17h72 q67 -79 153 -222q60 122 106 171q43 46 87 46q27 0 51 -12v-84q-16 10 -33 10q-26 0 -55 -32q-27 -30 -76 -135q109 -25 168 -116q58 -89 58 -229z"/>
<glyph glyph-name="uni046F" horiz-adv-x="643" unicode="ѯ" d="M555 315q0 -140 -69 -221q-70 -82 -207 -94q-75 -8 -106 -36q-34 -31 -34 -89q0 -53 29 -82t96 -29q41 0 74 6q27 5 72 5q51 0 92 -11v-94q-36 15 -92 15q-38 0 -69 -5q-37 -6 -81 -6q-103 0 -159 53t-56 148q0 93 56 149q55 55 161 66q107 9 151 65t44 167q0 97 -55 153 q-56 57 -138 57h-69v86h55q46 0 87 26q42 26 64 74q23 49 23 111q0 193 -172 193q-88 0 -146 -45l-45 74q48 34 121 47q-56 118 -141 237v17h72q67 -80 153 -222q62 123 105 171q43 47 88 47q26 0 51 -13v-84q-19 11 -33 11q-59 0 -137 -166q87 -23 134 -90q48 -69 48 -175 q0 -86 -40 -150q-40 -65 -111 -93v-8q97 -37 141 -104q43 -65 43 -161z"/>
<glyph glyph-name="uni0470" horiz-adv-x="1180" unicode="Ѱ" d="M639 0h-98v451q-209 0 -304 133q-94 131 -94 420v458h99v-456q0 -168 30 -268q29 -99 92 -146q62 -47 177 -47v917h98v-917q113 0 176 45t93 146q30 100 30 270v456h98v-458q0 -289 -94 -420q-95 -133 -303 -133v-451z"/>
<glyph glyph-name="uni0471" horiz-adv-x="977" unicode="ѱ" d="M227 520q0 -218 55 -329q56 -113 171 -123v1488h94v-1488q120 7 177 139q56 128 56 387q0 240 -63 491h96q66 -258 66 -495q0 -291 -85 -446q-86 -157 -247 -164v-472h-94v472q-155 4 -238 141q-82 136 -82 391v573h94v-565z"/>
<glyph glyph-name="uni0472" horiz-adv-x="1065" unicode="Ѳ" d="M535 1389q-305 0 -322 -596h637q-6 295 -86 446q-80 150 -229 150zM532 74q154 0 235 158q80 157 85 466h-639q1 -299 83 -462q81 -162 236 -162zM954 733q0 -363 -108 -558t-314 -195q-207 0 -314 197t-107 558q0 379 106 563q107 185 318 185q204 0 311 -194 q108 -195 108 -556z"/>
<glyph glyph-name="uni0473" horiz-adv-x="852" unicode="ѳ" d="M424 1016q-113 0 -169 -102q-54 -100 -62 -304h462q-16 406 -231 406zM424 66q227 0 233 458h-464q2 -458 231 -458zM756 545q0 -275 -86 -419q-87 -146 -248 -146q-160 0 -244 146t-84 419q0 561 332 561q156 0 243 -147t87 -414z"/>
<glyph glyph-name="uni0474" horiz-adv-x="887" unicode="Ѵ" d="M397 121q19 127 49 249l183 783q28 124 59 196q30 69 69 99q38 29 101 29q38 0 70 -15v-90q-31 14 -62 14q-49 0 -78 -47q-28 -46 -63 -188l-272 -1151h-109l-344 1462h102l240 -1028q35 -148 55 -313z"/>
<glyph glyph-name="uni0475" horiz-adv-x="733" unicode="ѵ" d="M705 1102q33 0 65 -15v-86q-32 15 -61 15q-35 0 -59 -22q-21 -20 -41 -70q-19 -50 -42 -144l-188 -780h-113l-256 1085h96l162 -698q28 -121 54 -264h8q18 123 53 266l92 393q29 125 58 192t69 98q39 30 103 30z"/>
<glyph glyph-name="uni0476" horiz-adv-x="887" unicode="Ѷ" d="M323 1579q-57 51 -129 144q-74 96 -112 167v17h118q92 -203 170 -307v-21h-47zM590 1579q-53 44 -128 141t-114 170v17h119q33 -79 87 -177q46 -83 83 -130v-21h-47zM397 121q19 127 49 249l183 783q28 124 59 196q30 69 69 99q38 29 101 29q38 0 70 -15v-90 q-31 14 -62 14q-49 0 -78 -47q-28 -46 -63 -188l-272 -1151h-109l-344 1462h102l240 -1028q35 -148 55 -313z"/>
<glyph glyph-name="uni0477" horiz-adv-x="733" unicode="ѷ" d="M247 1241q-57 51 -129 144q-74 96 -112 167v17h118q92 -203 170 -307v-21h-47zM514 1241q-53 44 -128 141t-114 170v17h119q33 -79 87 -177q46 -83 83 -130v-21h-47zM705 1102q33 0 65 -15v-86q-32 15 -61 15q-35 0 -59 -22q-21 -20 -41 -70q-19 -50 -42 -144l-188 -780 h-113l-256 1085h96l162 -698q28 -121 54 -264h8q18 123 53 266l92 393q29 125 58 192t69 98q39 30 103 30z"/>
<glyph glyph-name="uni0478" horiz-adv-x="1718" unicode="Ѹ" d="M1346 2l-271 1083h96l164 -677q30 -129 56 -275h8q21 143 53 277l160 675h96l-317 -1290q-35 -144 -91 -215q-57 -72 -151 -72q-37 0 -86 17v86q42 -14 78 -14q60 0 95 52t62 165zM213 733q0 -325 81 -492t238 -167t238 165q82 167 82 494q0 325 -80 491 q-80 165 -237 165q-160 0 -241 -167q-81 -168 -81 -489zM954 733q0 -363 -108 -558t-314 -195q-207 0 -314 197t-107 558q0 379 106 563q107 185 318 185q204 0 311 -194q108 -195 108 -556z"/>
<glyph glyph-name="uni0479" horiz-adv-x="1503" unicode="ѹ" d="M1131 2l-271 1083h96l164 -677q30 -129 56 -275h8q21 143 53 277l160 675h96l-317 -1290q-35 -144 -91 -215q-57 -72 -151 -72q-37 0 -86 17v86q42 -14 78 -14q60 0 95 52t62 165zM193 545q0 -234 56 -355q55 -120 175 -120q233 0 233 475q0 471 -233 471 q-122 0 -176 -118q-55 -121 -55 -353zM756 545q0 -275 -86 -419q-87 -146 -248 -146q-160 0 -244 146t-84 419q0 561 332 561q156 0 243 -147t87 -414z"/>
<glyph glyph-name="uni047A" horiz-adv-x="1167" unicode="Ѻ" d="M213 733q0 -287 75 -453q75 -167 220 -198q15 84 76 84q62 0 73 -86q297 69 297 653q0 585 -297 647q-11 -84 -73 -84q-61 0 -76 84q-145 -34 -220 -198t-75 -449zM1057 733q0 -332 -103 -523q-104 -193 -297 -224q-15 -80 -73 -80q-59 0 -74 80q-193 28 -296 220 q-103 191 -103 529q0 348 101 532q101 183 298 210q15 79 74 79q58 0 73 -79q193 -29 297 -219q103 -190 103 -525z"/>
<glyph glyph-name="uni047B" horiz-adv-x="940" unicode="ѻ" d="M193 545q0 -412 202 -469q10 88 76 88q62 0 72 -88q205 61 205 469q0 400 -205 461q-10 -88 -72 -88q-66 0 -76 88q-106 -28 -154 -143t-48 -318zM846 545q0 -246 -79 -388t-224 -169q-15 -82 -72 -82q-60 0 -74 80q-147 25 -225 170q-78 144 -78 389q0 504 303 555 q13 76 74 76q57 0 72 -78q147 -30 225 -172t78 -381z"/>
<glyph glyph-name="uni047C" horiz-adv-x="1489" unicode="Ѽ" d="M782 1769q0 -85 -46 -135q-47 -52 -144 -80v56q113 36 113 106q0 25 -13 35q-18 14 -29 20q-17 9 -29 20q-13 12 -13 38q0 31 18 49t49 18q42 0 68 -35t26 -92zM1001 1892h-10q-91 0 -188 49q-96 47 -131 60q-33 12 -64 12q-53 0 -74 -29q-20 -27 -20 -92h-86 q0 199 164 199q82 0 184 -51q87 -44 131 -57q45 -13 94 -13v-78zM690 80q-90 -100 -215 -100q-107 0 -190 92q-84 94 -129 263q-45 171 -45 400q0 354 94 551q95 199 264 199q86 0 178 -62l-49 -82q-56 50 -129 50q-118 0 -187 -175q-69 -174 -69 -483q0 -197 35 -349 q35 -151 96 -230q62 -80 137 -80q62 0 112 34q48 33 97 97q48 -64 96 -97q49 -34 115 -34q77 0 138 80q63 82 95 230q33 150 33 349q0 310 -69 484t-187 174q-73 0 -129 -50l-49 82q92 62 180 62q169 0 263 -198q94 -197 94 -552q0 -225 -46 -400q-45 -172 -129 -263 q-84 -92 -192 -92q-134 0 -213 100z"/>
<glyph glyph-name="uni047D" horiz-adv-x="1126" unicode="ѽ" d="M659 1442q0 -85 -46 -135q-47 -52 -144 -80v55q113 36 113 107q0 25 -13 35q-18 14 -29 20q-17 9 -29 20q-13 12 -13 37q0 32 18 50t49 18q43 0 69 -35q25 -34 25 -92zM879 1565h-11q-88 0 -188 48l-51 25q-67 31 -90 38q-33 10 -54 10q-51 0 -72 -28q-22 -30 -22 -93 h-86q0 198 164 198q82 0 184 -51q81 -41 132 -56q48 -14 94 -14v-77zM563 74q-87 -94 -207 -94q-127 0 -195 146q-67 144 -67 411q0 275 70 423q69 146 207 146q74 0 141 -43l-31 -82q-47 35 -98 35q-190 0 -190 -477q0 -225 46 -348q47 -125 128 -125q101 0 196 129 q96 -129 191 -129q86 0 133 123q47 124 47 350q0 477 -191 477q-51 0 -98 -35l-31 82q67 43 142 43q137 0 206 -146q70 -148 70 -423q0 -268 -68 -413q-68 -144 -198 -144q-115 0 -203 94z"/>
<glyph glyph-name="uni047E" horiz-adv-x="1380" unicode="Ѿ" d="M690 76q-52 -54 -102 -75t-113 -21q-109 0 -191 90q-83 90 -128 262q-45 171 -45 403q0 345 94 548q93 202 256 202q94 0 186 -62l-47 -82q-56 50 -131 50q-118 0 -187 -175q-69 -174 -69 -483q0 -200 34 -353q33 -149 94 -228q60 -78 140 -78q87 0 160 82v471h98v-471 q69 -82 162 -82q78 0 138 80q59 79 94 229q34 148 34 350q0 310 -69 484t-187 174q-75 0 -131 -50l-47 82q92 62 187 62q163 0 256 -201q94 -203 94 -549q0 -233 -45 -404t-129 -261t-193 -90q-62 0 -112 22q-53 24 -101 74zM981 1776v-27l-59 -152h-13l-37 97h-141l-39 -97 h-12l-39 97h-141l-37 -97h-12l-60 152v27h590z"/>
<glyph glyph-name="uni047F" horiz-adv-x="1161" unicode="ѿ" d="M862 1421v-26l-59 -152h-12l-37 96h-142l-39 -96h-12l-39 96h-141l-37 -96h-12l-60 152v26h590zM588 518l-223 -518h-89l-245 1085h96l125 -571q37 -160 78 -391h8l223 526l-92 436h92l143 -692q44 -195 54 -284h8q244 395 244 976h94q0 -326 -76 -584t-242 -501h-88z "/>
<glyph glyph-name="uni0480" horiz-adv-x="844" unicode="Ҁ" d="M559 1391q-158 0 -252 -173t-94 -485q0 -306 87 -483q87 -176 235 -176q99 0 170 41v-607h-99v480q-34 -8 -84 -8q-126 0 -218 91q-94 93 -143 263q-50 174 -50 401q0 349 120 550q119 200 328 200q132 0 227 -62l-41 -86q-30 21 -79 37q-51 17 -107 17z"/>
<glyph glyph-name="uni0481" horiz-adv-x="651" unicode="ҁ" d="M401 -20q-150 0 -228 141q-77 139 -77 416q0 279 83 423q84 146 247 146q101 0 168 -37l-35 -84q-23 11 -61 21q-40 10 -64 10q-239 0 -239 -477q0 -473 219 -473q65 0 141 32v-590h-94v478q-31 -6 -60 -6z"/>
<glyph glyph-name="uni0482" horiz-adv-x="924" unicode="҂" d="M401 330l-108 -324l-88 29l108 321l-243 84l26 82l242 -86l156 445l-246 86l26 80l246 -86l109 319l88 -29l-113 -321l250 -82l-29 -82l-247 86l-150 -444l246 -86l-23 -80z"/>
<glyph glyph-name="uni0483" horiz-adv-x="1112" unicode="҃" d="M799 1346q0 -74 -62 -74h-284q0 -45 -19 -64q-20 -20 -43 -20q-24 0 -44 20q-19 19 -19 64q0 74 63 74h283q0 42 20 64q19 20 43 20t43 -20t19 -64z"/>
<glyph glyph-name="uni0484" horiz-adv-x="1126" unicode="҄" d="M266 1335q47 0 92 13q44 13 134 57q102 51 184 51q164 0 164 -199h-86q0 63 -21 92t-74 29q-28 0 -65 -13q-31 -11 -129 -59q-97 -49 -189 -49h-10v78z"/>
<glyph glyph-name="uni0485" horiz-adv-x="1182" unicode="҅" d="M502 1462q0 57 26 92t68 35q32 0 50 -18t18 -49q0 -25 -13 -37q-15 -13 -29 -21q-11 -6 -29 -20q-13 -10 -13 -35q0 -69 112 -106v-56q-96 28 -144 81q-46 50 -46 134z"/>
<glyph glyph-name="uni0486" horiz-adv-x="1182" unicode="҆" d="M686 1462q0 -85 -46 -135q-47 -52 -144 -80v56q112 37 112 106q0 25 -13 35q-18 14 -29 20q-17 9 -29 20q-13 12 -13 38q0 31 18 49t50 18q42 0 68 -35t26 -92z"/>
<glyph glyph-name="uni0488" horiz-adv-x="1927" unicode="҈" d="M1294 -41q3 89 56 142t149 53q188 0 197 -195h-68q-15 111 -133 111q-57 0 -91 -26q-33 -25 -42 -85h-68zM229 -41q3 89 56 142t149 53q188 0 197 -195h-68q-15 111 -133 111q-57 0 -91 -26q-33 -25 -42 -85h-68zM1294 946q3 89 56 142t149 53q188 0 197 -195h-68 q-15 111 -133 111q-57 0 -91 -26q-33 -25 -42 -85h-68zM229 946q3 89 56 142t149 53q188 0 197 -195h-68q-15 111 -133 111q-57 0 -91 -26q-33 -25 -42 -85h-68zM1485 457q3 88 56 141t149 53q187 0 196 -194h-67q-15 110 -133 110q-59 0 -91 -25t-43 -85h-67zM41 457 q3 88 56 141t149 53q187 0 196 -194h-67q-15 110 -133 110q-59 0 -91 -25q-33 -25 -42 -85h-68zM754 -319q3 88 56 141t148 53q188 0 197 -194h-68q-15 110 -133 110q-56 0 -90 -26q-32 -25 -43 -84h-67zM754 1231q3 89 56 142q52 52 148 52q188 0 197 -194h-68 q-15 110 -133 110q-58 0 -90 -25t-43 -85h-67z"/>
<glyph glyph-name="uni0489" horiz-adv-x="1958" unicode="҉" d="M1053 1448q-36 -156 -49 -307h-113v20q11 61 49 153q41 99 76 154h37v-20zM907 -342q36 156 49 307h113v-20q-12 -65 -48 -153q-39 -95 -77 -154h-37v20zM1872 481q-57 14 -156 29q-88 13 -151 18v113h20q62 -11 161 -51q100 -41 146 -72v-37h-20zM86 625 q157 -37 307 -50v-112h-20q-61 11 -153 49q-99 41 -154 76v37h20zM1411 950l-78 80l15 14q51 38 141 76q92 39 164 54l26 -25l-16 -14q-33 -22 -124 -87q-84 -60 -128 -98zM547 154l80 -80l-15 -15q-44 -32 -141 -74q-90 -39 -164 -55l-26 27l14 14q55 34 130 89 q74 53 122 94zM1376 121l80 78l14 -15q37 -50 77 -146q43 -101 55 -157l-27 -26l-14 14q-74 119 -185 252zM580 985l-80 -80l-15 15q-31 43 -74 142q-40 91 -55 163l27 26l14 -14q32 -52 93 -136q60 -83 90 -116z"/>
<glyph glyph-name="uni048A" horiz-adv-x="1090" unicode="Ҋ" d="M543 1579q-121 0 -186 66q-63 65 -74 215h88q11 -112 48 -156q39 -47 124 -47q83 0 124 48q41 49 50 155h88q-17 -281 -262 -281zM1036 94l-116 -463h-107l117 369h-96v1049q0 125 12 262h-8l-553 -1311h-125v1462h96v-1022v-68q0 -14 -10 -206h8l549 1296h127v-1368h106 z"/>
<glyph glyph-name="uni048B" horiz-adv-x="883" unicode="ҋ" d="M444 1241q-120 0 -185 67q-65 66 -75 214h88q14 -115 51 -158q39 -45 121 -45q84 0 125 48q40 47 49 155h89q-20 -281 -263 -281zM844 94l-117 -463h-106l116 369h-94v702l4 236l-385 -938h-117v1085h95v-733l-7 -205l385 938h119v-991h107z"/>
<glyph glyph-name="uni048C" horiz-adv-x="874" unicode="Ҍ" d="M258 90h162q135 0 205 82q71 83 71 238q0 161 -67 237t-211 76h-160v-633zM797 410q0 -193 -101 -301q-102 -109 -280 -109h-256v1155h-160v82h160v225h98v-225h242v-82h-242v-342h156q197 0 290 -97q93 -98 93 -306z"/>
<glyph glyph-name="uni048D" horiz-adv-x="784" unicode="ҍ" d="M240 524v-438h139q229 0 229 219t-227 219h-141zM10 1290h135v266h95v-266h172v-82h-172v-598h141q157 0 242 -80q84 -80 84 -225t-86 -225t-242 -80h-234v1208h-135v82z"/>
<glyph glyph-name="uni048E" horiz-adv-x="840" unicode="Ҏ" d="M258 694h98q80 0 131 15l-118 168l69 51l129 -183q53 40 79 113t26 184q0 178 -74 253q-75 77 -231 77h-109v-678zM772 1042q0 -267 -149 -372l120 -168l-69 -53l-131 182q-73 -27 -181 -27h-104v-604h-98v1462h200q214 0 313 -101t99 -319z"/>
<glyph glyph-name="uni048F" horiz-adv-x="893" unicode="ҏ" d="M614 129q84 110 84 416q0 247 -52 358q-53 113 -171 113q-119 0 -177 -105q-58 -104 -58 -329v-31q0 -249 59 -367t180 -118q38 0 64 10l-111 243l80 37zM494 -20q-81 0 -150 46q-68 45 -102 124h-9l11 -119v-523h-99v1577h78l10 -149h9q41 84 102 126q64 44 137 44 q318 0 318 -561q0 -193 -39 -319q-39 -125 -107 -187l74 -160l-78 -39l-69 154q-36 -14 -86 -14z"/>
<glyph glyph-name="afii10050" horiz-adv-x="686" unicode="Ґ" d="M258 1368v-1368h-98v1462h383v301h94v-395h-379z"/>
<glyph glyph-name="afii10098" horiz-adv-x="592" unicode="ґ" d="M453 1085v326h90v-416h-303v-995h-95v1085h308z"/>
<glyph glyph-name="uni0492" horiz-adv-x="686" unicode="Ғ" d="M670 1462v-94h-412v-598h225v-90h-225v-680h-98v680h-99v90h99v692h510z"/>
<glyph glyph-name="uni0493" horiz-adv-x="592" unicode="ғ" d="M575 1085v-90h-335v-401h172v-82h-172v-512h-95v512h-135v82h135v491h430z"/>
<glyph glyph-name="uni0494" horiz-adv-x="909" unicode="Ҕ" d="M160 0v1462h510v-94h-412v-588q72 23 145 23q192 0 300 -175q108 -176 108 -474q0 -316 -94 -492q-93 -174 -266 -174q-104 0 -181 49v101q89 -56 168 -56q126 0 198 149q73 151 73 425q0 265 -83 411t-227 146q-70 0 -141 -25v-688h-98z"/>
<glyph glyph-name="uni0495" horiz-adv-x="805" unicode="ҕ" d="M145 1085h430v-90h-335v-385q66 27 125 27q182 0 272 -147t90 -433q0 -268 -76 -413q-77 -146 -219 -146q-110 0 -180 58v100q86 -68 168 -68q102 0 156 124q53 121 53 347q0 238 -67 363q-68 127 -197 127q-70 0 -125 -29v-520h-95v1085z"/>
<glyph glyph-name="uni0496" horiz-adv-x="1171" unicode="Җ" d="M412 756l-400 706h107l393 -706v706h98v-706l394 706h106l-399 -706l360 -662h84v-463h-94v369h-49l-402 748v-748h-98v748l-401 -748h-111z"/>
<glyph glyph-name="uni0497" horiz-adv-x="991" unicode="җ" d="M432 1085h94v-510l289 510h107l-301 -510l276 -485h78v-459h-94v369h-43l-312 567v-567h-94v567l-311 -567h-111l328 575l-301 510h106l289 -510v510z"/>
<glyph glyph-name="uni0498" horiz-adv-x="813" unicode="Ҙ" d="M355 -260q0 61 -31 126q-29 59 -85 118q32 -4 74 -4h12q45 -43 79 -105q41 -77 41 -145q0 -176 -168 -176q-46 0 -76 12v74q18 -9 57 -9q97 0 97 109zM686 391q0 159 -68 252q-69 95 -202 111v8q114 30 182 126q68 97 68 240q0 165 -84 260t-232 95q-156 0 -266 -119 l66 -68q37 43 83 67q50 26 109 26q105 0 164 -65t59 -196q0 -158 -77 -241q-76 -82 -218 -82h-106v-94h100q164 0 242 -78t78 -244q0 -315 -271 -315q-69 0 -137 18q-64 17 -119 51v-108q84 -40 182 -51l-16 16h78q8 -6 24 -20q169 3 263 108q98 109 98 303z"/>
<glyph glyph-name="uni0499" horiz-adv-x="643" unicode="ҙ" d="M312 -260q0 61 -31 126q-28 59 -87 120q34 -6 74 -6h14q45 -43 79 -105q41 -77 41 -145q0 -176 -168 -176q-46 0 -76 12v74q18 -9 57 -9q97 0 97 109zM258 618h-55v-86h49q94 0 150 -62q55 -61 55 -165q0 -117 -49 -178t-140 -61q-69 0 -123 26q-53 26 -94 58v-99 q54 -50 143 -65l-14 14h78q8 -6 24 -20q118 4 193 88q80 89 80 237q0 105 -46 177q-44 69 -130 98v8q62 25 105 92q42 66 42 156q0 128 -65 199t-182 71q-114 0 -209 -59l45 -74q76 49 153 49q72 0 116 -48q44 -49 44 -143q0 -64 -23 -113q-23 -48 -62 -74q-40 -26 -85 -26z "/>
<glyph glyph-name="uni049A" horiz-adv-x="877" unicode="Қ" d="M856 94v-463h-94v369h-47l-344 729l-113 -149v-580h-98v1462h98v-774q51 96 432 774h107l-367 -643l348 -725h78z"/>
<glyph glyph-name="uni049B" horiz-adv-x="721" unicode="қ" d="M547 1085h108l-319 -510l291 -485h78v-459h-95v369h-41l-329 567v-567h-95v1085h95v-510z"/>
<glyph glyph-name="uni049C" horiz-adv-x="825" unicode="Ҝ" d="M825 0h-110l-269 567v-276h-86v424l-102 -135v-580h-98v1462h98v-774l102 186v365h86v-211l244 434h107l-351 -614v-64z"/>
<glyph glyph-name="uni049D" horiz-adv-x="795" unicode="ҝ" d="M342 106v324l-102 137v-567h-95v1085h95v-510l102 130v309h82v-207l221 278h113l-334 -409v-207l360 -469h-116l-244 322v-216h-82z"/>
<glyph glyph-name="uni049E" horiz-adv-x="825" unicode="Ҟ" d="M825 0h-110l-344 729l-113 -149v-580h-98v1182h-133v90h133v190h98v-190h193v-90h-193v-494q51 96 432 774h107l-367 -643z"/>
<glyph glyph-name="uni049F" horiz-adv-x="711" unicode="ҟ" d="M242 537q25 51 92 163l237 385h103l-250 -399l272 -686h-100l-236 598l-120 -158v-440h-95v1270h-118v84h118v202h95v-202h262v-84h-262v-551l-7 -182h9z"/>
<glyph glyph-name="uni04A0" horiz-adv-x="971" unicode="Ҡ" d="M403 688l97 176l336 598h106l-367 -643l396 -819h-111l-344 729l-113 -149v-580h-98v1368h-291v94h389v-774z"/>
<glyph glyph-name="uni04A1" horiz-adv-x="756" unicode="ҡ" d="M303 575l307 510h109l-320 -510l346 -575h-112l-330 567v-567h-94v999h-193v86h287v-510z"/>
<glyph glyph-name="uni04A2" horiz-adv-x="1036" unicode="Ң" d="M866 94h111v-463h-94v369h-115v719h-510v-719h-98v1462h98v-649h510v649h98v-1368z"/>
<glyph glyph-name="uni04A3" horiz-adv-x="893" unicode="ң" d="M240 1085v-475h403v475h94v-995h111v-459h-94v369h-111v524h-403v-524h-95v1085h95z"/>
<glyph glyph-name="uni04A4" horiz-adv-x="1174" unicode="Ҥ" d="M1157 1368h-291v-1368h-98v719h-510v-719h-98v1462h98v-649h510v649h389v-94z"/>
<glyph glyph-name="uni04A5" horiz-adv-x="946" unicode="ҥ" d="M240 1085v-475h403v475h287v-86h-193v-999h-94v524h-403v-524h-95v1085h95z"/>
<glyph glyph-name="uni04A6" horiz-adv-x="1462" unicode="Ҧ" d="M815 0h-98v1368h-459v-1368h-98v1462h655v-682q72 23 146 23q191 0 299 -175q108 -176 108 -474q0 -316 -94 -492q-93 -174 -266 -174q-104 0 -181 49v101q89 -56 168 -56q127 0 199 149q72 148 72 425q0 266 -82 411q-83 146 -228 146q-70 0 -141 -25v-688z"/>
<glyph glyph-name="uni04A7" horiz-adv-x="1288" unicode="ҧ" d="M723 610q69 27 125 27q182 0 272 -147t90 -433q0 -268 -76 -413q-77 -146 -219 -146q-110 0 -180 58v100q86 -68 168 -68q102 0 156 124q53 121 53 347q0 238 -67 363q-68 127 -197 127q-69 0 -125 -29v-520h-94v995h-389v-995h-95v1085h578v-475z"/>
<glyph glyph-name="uni04A8" horiz-adv-x="1145" unicode="Ҩ" d="M944 680q0 210 -41 314q-42 106 -123 106q-75 0 -118 -112q-44 -114 -44 -310q0 -335 146 -535q85 73 133 215q47 138 47 322zM1047 678q0 -183 -58 -347q-58 -163 -160 -253q68 -68 148 -68q49 0 102 21v-92q-43 -23 -110 -23q-119 0 -226 107q-31 -17 -83 -30t-103 -13 q-202 0 -324 202t-122 543q0 228 55 404q54 172 155 264t234 92q107 0 184 -41l-37 -88q-58 35 -147 35q-158 0 -250 -179q-92 -178 -92 -489q0 -199 45 -347q45 -149 124 -225q80 -77 181 -77q65 0 119 22q-77 95 -121 250q-43 151 -43 332q0 244 70 380t192 136 q129 0 198 -134t69 -382z"/>
<glyph glyph-name="uni04A9" horiz-adv-x="983" unicode="ҩ" d="M848 -53q-114 0 -201 78q-71 -45 -180 -45q-176 0 -275 147q-98 146 -98 408q0 269 93 420t264 151q68 0 116 -19l-20 -90q-51 19 -98 19q-121 0 -189 -124q-67 -122 -67 -357q0 -214 73 -339q74 -126 203 -126q75 0 113 22q-136 154 -136 406q0 183 60 282t164 99 q107 0 161 -99t54 -278q0 -127 -45 -241q-44 -112 -123 -179q19 -19 56 -32q38 -13 77 -13q53 0 86 12v-88q-39 -14 -88 -14zM545 496q0 -123 28 -207q29 -88 80 -150q62 53 97 143q36 93 36 220q0 138 -27 212t-89 74q-59 0 -92 -74t-33 -218z"/>
<glyph glyph-name="uni04AA" horiz-adv-x="860" unicode="Ҫ" d="M588 -260q0 63 -30 126q-30 62 -99 131q48 -16 99 -17q49 -45 80 -104q40 -76 40 -146q0 -176 -168 -176q-46 0 -76 12v74q18 -9 57 -9q97 0 97 109zM573 1391q107 0 191 -54l45 86q-101 62 -234 62q-214 0 -339 -200t-125 -550q0 -233 57 -404t162 -261q60 -51 129 -73 l-3 3h78q8 -6 24 -20h15q127 0 205 45v90q-84 -41 -196 -41q-110 0 -195 80q-84 79 -129 229q-45 149 -45 350q0 308 98 483t262 175z"/>
<glyph glyph-name="uni04AB" horiz-adv-x="635" unicode="ҫ" d="M431 -250q0 61 -31 126q-29 60 -94 127q49 -22 105 -23q41 -41 69 -94q41 -77 41 -146q0 -176 -168 -176q-46 0 -76 12v74q18 -9 57 -9q97 0 97 109zM424 -20q37 0 83 10q50 11 81 28v80q-84 -32 -154 -32q-239 0 -239 473q0 477 239 477q57 0 123 -31l37 84 q-67 37 -168 37q-162 0 -246 -146t-84 -423q0 -275 82 -415q50 -84 128 -119l-7 7h78q16 -12 34 -30h13z"/>
<glyph glyph-name="uni04AC" horiz-adv-x="711" unicode="Ҭ" d="M514 94v-463h-94v369h-115v1368h-291v94h680v-94h-291v-1274h111z"/>
<glyph glyph-name="uni04AD" horiz-adv-x="512" unicode="ҭ" d="M414 90v-459h-95v369h-110v999h-193v86h480v-86h-193v-909h111z"/>
<glyph glyph-name="uni04AE" horiz-adv-x="686" unicode="Ү" d="M344 707l238 755h104l-295 -891v-571h-98v571l-293 891h104z"/>
<glyph glyph-name="uni04AF" horiz-adv-x="653" unicode="ү" d="M369 0v-492h-95v492l-264 1085h96q67 -283 152 -641q53 -222 64 -301h8q14 103 53 267l164 675h96z"/>
<glyph glyph-name="uni04B0" horiz-adv-x="686" unicode="Ұ" d="M344 707l238 755h104l-295 -891v-75h174v-90h-174v-406h-98v406h-174v90h174v75l-293 891h104z"/>
<glyph glyph-name="uni04B1" horiz-adv-x="653" unicode="ұ" d="M369 0h163v-82h-163v-410h-95v410h-163v82h163l-264 1085h96q67 -283 152 -641q53 -222 64 -301h8q14 103 53 267l164 675h96z"/>
<glyph glyph-name="uni04B2" horiz-adv-x="762" unicode="Ҳ" d="M662 94h83v-463h-94v369h-59l-219 672l-254 -672h-99l306 776l-263 686h103l217 -608l211 608h100l-258 -708z"/>
<glyph glyph-name="uni04B3" horiz-adv-x="694" unicode="ҳ" d="M338 469l-205 -469h-98l258 563l-238 522h103l182 -440l190 440h99l-242 -534l213 -461h78v-459h-94v369h-43z"/>
<glyph glyph-name="uni04B4" horiz-adv-x="1178" unicode="Ҵ" d="M1012 94h110v-463h-94v369h-723v1368h-291v94h680v-94h-291v-1274h510v1368h99v-1368z"/>
<glyph glyph-name="uni04B5" horiz-adv-x="956" unicode="ҵ" d="M496 999h-193v-909h404v995h94v-995h110v-459h-94v369h-608v999h-193v86h480v-86z"/>
<glyph glyph-name="uni04B6" horiz-adv-x="1012" unicode="Ҷ" d="M842 94h110v-463h-94v369h-115v627q-80 -46 -164 -71q-79 -24 -155 -24q-145 0 -217 92t-72 275v563h98v-567q0 -134 49 -201t150 -67q74 0 144 17q68 17 167 69v749h99v-1368z"/>
<glyph glyph-name="uni04B7" horiz-adv-x="872" unicode="ҷ" d="M827 90v-459h-94v369h-110v498q-52 -59 -123 -92q-72 -33 -154 -33q-223 0 -223 286v426h94v-448q0 -92 39 -134t104 -42q76 0 144 39q67 39 119 100v485h94v-995h110z"/>
<glyph glyph-name="uni04B8" horiz-adv-x="1001" unicode="Ҹ" d="M444 213v319h-20q-289 0 -289 367v563h98v-567q0 -134 49 -201t150 -67h12v372h86v-366q98 18 213 80v749h99v-1462h-99v627q-101 -59 -213 -84v-330h-86z"/>
<glyph glyph-name="uni04B9" horiz-adv-x="862" unicode="ҹ" d="M379 129v244h-33q-223 0 -223 286v426h94v-448q0 -92 39 -134t104 -42h19v313h82v-295q90 37 162 121v485h94v-1085h-94v498q-64 -73 -162 -107v-262h-82z"/>
<glyph glyph-name="uni04BA" horiz-adv-x="1001" unicode="Һ" d="M160 1462h98v-626q78 44 162 69q82 25 158 25q288 0 288 -367v-563h-98v567q0 135 -48 202t-151 67q-80 0 -145 -16q-63 -15 -166 -70v-750h-98v1462z"/>
<glyph glyph-name="uni04BB" horiz-adv-x="862" unicode="һ" d="M645 0v449q0 92 -39 134t-104 42q-76 0 -143 -40q-69 -42 -119 -100v-485h-95v1085h95v-497q51 59 124 92q72 33 152 33q223 0 223 -287v-426h-94z"/>
<glyph glyph-name="uni04BC" horiz-adv-x="1186" unicode="Ҽ" d="M682 1391q-146 0 -232 -159t-96 -450h617q0 296 -74 453q-73 156 -215 156zM717 76q74 0 134 19q66 21 134 55v-99q-137 -71 -283 -71q-214 0 -330 182t-122 526q-110 0 -170 48t-60 143q0 25 7 69q6 37 14 53h98q-20 -46 -20 -114q0 -56 33 -80q34 -25 98 -25 q9 328 124 515q116 188 312 188q194 0 291 -184q98 -185 98 -551v-62h-721q26 -612 363 -612z"/>
<glyph glyph-name="uni04BD" horiz-adv-x="944" unicode="ҽ" d="M551 1018q-195 0 -215 -389h418q0 182 -55 285q-56 104 -148 104zM594 -20q-170 0 -263 145t-93 410v8q-106 1 -162 47q-56 45 -56 143q0 70 21 115h90q-20 -48 -20 -115q0 -104 129 -104q14 233 94 355t223 122q136 0 213 -128q78 -129 78 -347v-88h-514 q4 -477 264 -477q103 0 215 67v-88q-104 -65 -219 -65z"/>
<glyph glyph-name="uni04BE" horiz-adv-x="1186" unicode="Ҿ" d="M682 1391q-146 0 -232 -159t-96 -450h617q0 296 -74 453q-73 156 -215 156zM717 76q74 0 134 19q66 21 134 55v-99q-114 -60 -240 -69v-351h-94v353q-191 20 -292 200q-103 183 -109 504q-110 0 -170 48t-60 143q0 25 7 69q6 37 14 53h98q-20 -46 -20 -114q0 -56 33 -80 q34 -25 98 -25q9 328 124 515q116 188 312 188q194 0 291 -184q98 -185 98 -551v-62h-721q26 -612 363 -612z"/>
<glyph glyph-name="uni04BF" horiz-adv-x="944" unicode="ҿ" d="M551 1018q-195 0 -215 -389h418q0 182 -55 285q-56 104 -148 104zM813 45q-89 -57 -186 -63v-351h-95v355q-141 24 -217 166q-77 143 -77 383v8q-106 1 -162 47q-56 45 -56 143q0 70 21 115h90q-20 -48 -20 -115q0 -104 129 -104q14 233 94 355t223 122q136 0 213 -128 q78 -129 78 -347v-88h-514q4 -477 264 -477q103 0 215 67v-88z"/>
<glyph glyph-name="uni04C0" horiz-adv-x="418" unicode="Ӏ" d="M160 0v1462h98v-1462h-98z"/>
<glyph glyph-name="uni04C1" horiz-adv-x="1122" unicode="Ӂ" d="M564 1579q-121 0 -186 67q-63 65 -74 214h92q11 -114 49 -160q39 -47 119 -47q83 0 122 50q39 49 48 157h92q-17 -281 -262 -281zM512 1462h98v-706l394 706h106l-399 -706l411 -756h-110l-402 748v-748h-98v748l-401 -748h-111l412 756l-400 706h107l393 -706v706z"/>
<glyph glyph-name="uni04C2" horiz-adv-x="958" unicode="ӂ" d="M478 1241q-121 0 -186 67q-63 65 -74 214h92q11 -114 49 -160q39 -47 119 -47q83 0 122 50q39 49 48 157h92q-17 -281 -262 -281zM526 1085v-510l289 510h107l-301 -510l327 -575h-110l-312 567v-567h-94v567l-311 -567h-111l328 575l-301 510h106l289 -510v510h94z"/>
<glyph glyph-name="uni04C3" horiz-adv-x="905" unicode="Ӄ" d="M258 780l414 682h106l-405 -661l15 2h15q192 0 300 -175q108 -176 108 -474q0 -316 -94 -492q-93 -174 -266 -174q-104 0 -181 49v101q89 -56 168 -56q126 0 198 149q73 151 73 425q0 265 -83 411t-227 146q-70 0 -141 -25v-688h-98v1462h98v-682z"/>
<glyph glyph-name="uni04C4" horiz-adv-x="809" unicode="ӄ" d="M240 0h-95v1085h95v-510l307 510h108l-280 -448q356 -9 356 -580q0 -268 -76 -413q-77 -146 -219 -146q-110 0 -180 58v100q86 -68 168 -68q102 0 156 124q53 121 53 347q0 238 -67 363q-68 127 -197 127q-83 0 -129 -29v-520z"/>
<glyph glyph-name="uni04C5" horiz-adv-x="930" unicode="Ӆ" d="M874 94l-116 -463h-107l117 369h-96v1368h-287l-39 -476q-44 -528 -71 -655q-28 -134 -77 -193q-48 -58 -143 -58q-47 0 -75 18v92q22 -16 69 -16q33 0 55 13q25 15 42 51q17 35 32 107q14 66 28 184q14 115 93 1027h471v-1368h104z"/>
<glyph glyph-name="uni04C6" horiz-adv-x="776" unicode="ӆ" d="M737 94l-116 -463h-107l117 369h-94v995h-234q-10 -262 -31 -473q-20 -196 -48 -311q-29 -116 -70 -168q-42 -53 -119 -53q-23 0 -45 8v88q12 -6 35 -6q59 0 95 100q35 99 58 314q24 229 37 591h416v-991h106z"/>
<glyph glyph-name="uni04C7" horiz-adv-x="1026" unicode="Ӈ" d="M866 25q0 -248 -92 -393q-92 -144 -254 -144q-113 0 -190 49v101q43 -27 85 -41q45 -15 111 -15q72 0 126 54t85 155q31 100 31 242v686h-510v-719h-98v1462h98v-649h510v649h98v-1437z"/>
<glyph glyph-name="uni04C8" horiz-adv-x="883" unicode="ӈ" d="M737 57q0 -282 -68 -421q-68 -138 -212 -138q-125 0 -195 58v100q86 -68 187 -68t148 116q46 114 46 355v465h-403v-524h-95v1085h95v-475h403v475h94v-1028z"/>
<glyph glyph-name="uni04C9" horiz-adv-x="1026" unicode="Ӊ" d="M971 94l-117 -463h-106l116 369h-96v719h-510v-719h-98v1462h98v-649h510v649h98v-1368h105z"/>
<glyph glyph-name="uni04CA" horiz-adv-x="883" unicode="ӊ" d="M643 524h-403v-524h-95v1085h95v-475h403v475h94v-991h107l-117 -463h-106l116 369h-94v524z"/>
<glyph glyph-name="uni04CB" horiz-adv-x="1001" unicode="Ӌ" d="M743 627q-169 -95 -319 -95q-289 0 -289 367v563h98v-567q0 -134 49 -201t150 -67q74 0 144 17q68 17 167 69v749h99v-1462h-115v-369h-94v463h110v533z"/>
<glyph glyph-name="uni04CC" horiz-adv-x="862" unicode="ӌ" d="M623 498q-52 -59 -123 -92q-72 -33 -154 -33q-223 0 -223 286v426h94v-448q0 -92 39 -134t104 -42q76 0 144 39q67 39 119 100v485h94v-1085h-111v-369h-94v459h111v408z"/>
<glyph glyph-name="uni04CD" horiz-adv-x="1395" unicode="Ӎ" d="M1339 94l-116 -463h-107l117 369h-96v1057q0 72 10 272h-8l-387 -1329h-111l-389 1331h-8q10 -200 10 -266v-1065h-94v1462h145l328 -1118q43 -148 57 -252h8q12 82 62 250l325 1120h150v-1368h104z"/>
<glyph glyph-name="uni04CE" horiz-adv-x="1055" unicode="ӎ" d="M1016 94l-117 -463h-106l116 369h-94v651q0 112 10 273h-8l-237 -924h-111l-236 924h-8l7 -136l4 -131v-657h-91v1085h140l178 -700q5 -19 23 -96q14 -62 34 -174h8q3 23 17 86q18 77 225 884h139v-991h107z"/>
<glyph glyph-name="uni04CF" horiz-adv-x="418" unicode="ӏ" d="M160 0v1462h98v-1462h-98z"/>
<glyph glyph-name="uni04D0" horiz-adv-x="813" unicode="Ӑ" d="M407 1579q-121 0 -186 67q-63 65 -74 214h92q11 -114 49 -160q39 -47 119 -47q83 0 122 50q39 49 48 157h92q-17 -281 -262 -281zM561 629l-129 545q-22 103 -31 174q-9 -91 -28 -174l-125 -545h313zM713 0l-129 530h-355l-127 -530h-102l352 1462h101l360 -1462h-100z "/>
<glyph glyph-name="uni04D1" horiz-adv-x="784" unicode="ӑ" d="M370 1241q-121 0 -186 67q-63 65 -74 214h92q11 -114 49 -160q39 -47 119 -47q83 0 122 50q39 49 48 157h92q-17 -281 -262 -281zM334 61q101 0 158 101q57 100 57 284v113l-113 -6q-133 -8 -194 -72q-64 -67 -64 -192q0 -117 42 -173q42 -55 114 -55zM565 0l-12 152h-4 q-78 -172 -236 -172q-105 0 -170 85t-65 226q0 156 93 246q94 91 261 98l117 6v90q0 151 -38 221t-126 70q-93 0 -190 -61l-41 75q112 70 237 70q135 0 193 -84q59 -85 59 -283v-739h-78z"/>
<glyph glyph-name="uni04D2" horiz-adv-x="813" unicode="Ӓ" d="M498 1727q0 43 19 62t43 19q25 0 44 -19t19 -62q0 -45 -19 -64q-20 -20 -44 -20q-23 0 -43 20q-19 19 -19 64zM193 1727q0 43 19 62t45 19q23 0 42 -19t19 -62q0 -45 -19 -64q-20 -20 -42 -20q-25 0 -45 20q-19 19 -19 64zM561 629l-129 545q-22 103 -31 174 q-9 -91 -28 -174l-125 -545h313zM713 0l-129 530h-355l-127 -530h-102l352 1462h101l360 -1462h-100z"/>
<glyph glyph-name="uni04D3" horiz-adv-x="784" unicode="ӓ" d="M484 1389q0 42 20 62q19 19 42 19q25 0 44 -19t19 -62q0 -45 -19 -64q-20 -20 -44 -20q-22 0 -42 20t-20 64zM179 1389q0 43 19 62t45 19q23 0 42 -19t19 -62q0 -45 -19 -64q-20 -20 -42 -20q-25 0 -45 20q-19 19 -19 64zM334 61q101 0 158 101q57 100 57 284v113 l-113 -6q-133 -8 -194 -72q-64 -67 -64 -192q0 -117 42 -173q42 -55 114 -55zM565 0l-12 152h-4q-78 -172 -236 -172q-105 0 -170 85t-65 226q0 156 93 246q94 91 261 98l117 6v90q0 151 -38 221t-126 70q-93 0 -190 -61l-41 75q112 70 237 70q135 0 193 -84q59 -85 59 -283 v-739h-78z"/>
<glyph glyph-name="uni04D4" horiz-adv-x="1153" unicode="Ӕ" d="M283 629h241v735h-28zM1055 0h-531v530h-268l-152 -530h-104l434 1462h621v-96h-432v-553h407v-94h-407v-625h432v-94z"/>
<glyph glyph-name="uni04D5" horiz-adv-x="1260" unicode="ӕ" d="M385 1022q-93 0 -190 -61l-41 75q49 30 102 50t133 20q178 0 229 -172q84 172 250 172q137 0 216 -127t79 -348v-88h-514q9 -477 258 -477q49 0 109 18q61 18 112 49v-88q-101 -65 -223 -65q-104 0 -185 63t-120 178q-47 -130 -117 -185q-71 -56 -170 -56q-106 0 -171 85 q-64 83 -64 226q0 156 93 246q94 91 261 98l117 6v90q0 147 -39 219t-125 72zM866 1018q-194 0 -215 -389h418v12q0 174 -55 275q-56 102 -148 102zM334 61q101 0 158 101q57 100 57 284v113l-113 -6q-134 -8 -195 -69q-63 -63 -63 -195q0 -117 42 -173q42 -55 114 -55z"/>
<glyph glyph-name="uni04D6" horiz-adv-x="788" unicode="Ӗ" d="M431 1579q-121 0 -186 67q-63 65 -74 214h92q11 -114 49 -160q39 -47 119 -47q83 0 122 50q39 49 48 157h92q-17 -281 -262 -281zM690 0h-530v1462h530v-94h-432v-555h408v-94h-408v-625h432v-94z"/>
<glyph glyph-name="uni04D7" horiz-adv-x="803" unicode="ӗ" d="M421 1241q-121 0 -186 66q-63 65 -74 215h92q11 -113 50 -160t118 -47q84 0 123 50q38 48 47 157h92q-17 -281 -262 -281zM410 1020q-196 0 -215 -391h417q0 179 -54 285t-148 106zM453 -20q-172 0 -264 146q-93 147 -93 409q0 277 83 425q82 146 237 146q136 0 213 -128 q78 -129 78 -347v-88h-514q1 -235 67 -355q64 -118 197 -118q103 0 215 67v-92q-104 -65 -219 -65z"/>
<glyph glyph-name="uni04D8" horiz-adv-x="1047" unicode="Ә" d="M504 74q144 0 230 156q87 158 97 452h-616q0 -295 74 -452q73 -156 215 -156zM469 1389q-71 0 -134 -20t-134 -54v98q79 40 151 57q65 15 131 15q222 0 337 -193q116 -194 116 -563q0 -349 -117 -549t-319 -200q-194 0 -291 184q-98 185 -98 551v61h720q-21 613 -362 613 z"/>
<glyph glyph-name="uni04D9" horiz-adv-x="803" unicode="ә" d="M393 68q195 0 215 389h-418q0 -182 55 -285q56 -104 148 -104zM350 1106q172 0 264 -146q93 -147 93 -409q0 -276 -83 -424q-82 -147 -237 -147q-135 0 -213 129t-78 346v88h514q-5 250 -70 363q-66 114 -194 114q-99 0 -215 -68v88q107 66 219 66z"/>
<glyph glyph-name="uni04DA" horiz-adv-x="1047" unicode="Ӛ" d="M591 1727q0 42 20 62q19 19 42 19q25 0 44 -19t19 -62q0 -45 -19 -64q-20 -20 -44 -20q-22 0 -42 20t-20 64zM286 1727q0 42 20 62q19 19 44 19q23 0 42 -19t19 -62q0 -45 -19 -64q-20 -20 -42 -20q-24 0 -44 20t-20 64zM504 74q144 0 230 156q87 158 97 452h-616 q0 -295 74 -452q73 -156 215 -156zM469 1389q-71 0 -134 -20t-134 -54v98q79 40 151 57q65 15 131 15q222 0 337 -193q116 -194 116 -563q0 -349 -117 -549t-319 -200q-194 0 -291 184q-98 185 -98 551v61h720q-21 613 -362 613z"/>
<glyph glyph-name="uni04DB" horiz-adv-x="803" unicode="ӛ" d="M461 1389q0 42 20 62q19 19 42 19q25 0 44 -19t19 -62q0 -45 -19 -64q-20 -20 -44 -20q-22 0 -42 20t-20 64zM156 1389q0 42 20 62q19 19 44 19q23 0 42 -19t19 -62q0 -45 -19 -64q-20 -20 -42 -20q-24 0 -44 20t-20 64zM393 68q195 0 215 389h-418q0 -182 55 -285 q56 -104 148 -104zM350 1106q172 0 264 -146q93 -147 93 -409q0 -276 -83 -424q-82 -147 -237 -147q-135 0 -213 129t-78 346v88h514q-5 250 -70 363q-66 114 -194 114q-99 0 -215 -68v88q107 66 219 66z"/>
<glyph glyph-name="uni04DC" horiz-adv-x="1122" unicode="Ӝ" d="M652 1727q0 42 20 62q19 19 42 19q25 0 44 -19t19 -62q0 -45 -19 -64q-20 -20 -44 -20q-22 0 -42 20t-20 64zM347 1727q0 43 19 62t45 19q23 0 42 -19t19 -62q0 -45 -19 -64q-20 -20 -42 -20q-25 0 -45 20q-19 19 -19 64zM512 1462h98v-706l394 706h106l-399 -706 l411 -756h-110l-402 748v-748h-98v748l-401 -748h-111l412 756l-400 706h107l393 -706v706z"/>
<glyph glyph-name="uni04DD" horiz-adv-x="958" unicode="ӝ" d="M570 1389q0 42 20 62q19 19 42 19q25 0 44 -19t19 -62q0 -45 -19 -64q-20 -20 -44 -20q-22 0 -42 20t-20 64zM265 1389q0 43 19 62t45 19q23 0 42 -19t19 -62q0 -45 -19 -64q-20 -20 -42 -20q-25 0 -45 20q-19 19 -19 64zM526 1085v-510l289 510h107l-301 -510l327 -575 h-110l-312 567v-567h-94v567l-311 -567h-111l328 575l-301 510h106l289 -510v510h94z"/>
<glyph glyph-name="uni04DE" horiz-adv-x="813" unicode="Ӟ" d="M435 1727q0 43 19 62t43 19q25 0 44 -19t19 -62q0 -45 -19 -64q-20 -20 -44 -20q-23 0 -43 20q-19 19 -19 64zM130 1727q0 43 19 62t45 19q23 0 42 -19t19 -62q0 -45 -19 -64q-20 -20 -42 -20q-25 0 -45 20q-19 19 -19 64zM686 391q0 -194 -98 -303q-97 -108 -275 -108 q-142 0 -256 55v108q55 -34 119 -51q68 -18 137 -18q271 0 271 315q0 166 -78 244t-242 78h-100v94h106q142 0 218 82q77 83 77 241q0 131 -59 196t-164 65q-59 0 -109 -26q-46 -24 -83 -67l-66 68q110 119 266 119q148 0 232 -95t84 -260q0 -143 -68 -240 q-68 -96 -182 -126v-8q133 -16 202 -111q68 -93 68 -252z"/>
<glyph glyph-name="uni04DF" horiz-adv-x="643" unicode="ӟ" d="M373 1389q0 43 19 62t43 19q25 0 44 -19t19 -62q0 -45 -19 -64q-20 -20 -44 -20q-23 0 -43 20q-19 19 -19 64zM68 1389q0 43 19 62t45 19q23 0 42 -19t19 -62q0 -45 -19 -64q-20 -20 -42 -20q-25 0 -45 20q-19 19 -19 64zM258 618q45 0 85 26q39 26 62 74q23 49 23 113 q0 94 -44 143q-44 48 -116 48q-77 0 -153 -49l-45 74q95 59 209 59q117 0 182 -71t65 -199q0 -90 -42 -156q-43 -67 -105 -92v-8q86 -29 130 -98q46 -72 46 -177q0 -148 -80 -237q-79 -88 -207 -88q-140 0 -217 71v99q41 -32 94 -58q54 -26 123 -26q91 0 140 61t49 178 q0 104 -55 165q-56 62 -150 62h-49v86h55z"/>
<glyph glyph-name="uni04E0" horiz-adv-x="797" unicode="Ӡ" d="M217 817l318 549h-447v96h557v-90l-323 -547q182 -5 278 -111q98 -109 98 -298q0 -214 -100 -324q-101 -112 -291 -112q-71 0 -141 24q-71 24 -109 59v109q46 -48 115 -73q68 -25 137 -25q151 0 219 88t68 250q0 319 -289 319h-90v86z"/>
<glyph glyph-name="uni04E1" horiz-adv-x="676" unicode="ӡ" d="M279 438q157 -7 241 -120q82 -110 82 -318q0 -230 -92 -361t-248 -131q-129 0 -221 68v102q98 -79 227 -79q107 0 172 109q64 107 64 294q0 170 -66 260t-188 90h-82v74l297 573h-379v86h492v-71z"/>
<glyph glyph-name="uni04E2" horiz-adv-x="1090" unicode="Ӣ" d="M340 1671h452v-82h-452v82zM160 1462h96v-1022v-68q0 -14 -10 -206h8l549 1296h127v-1462h-96v1049q0 125 12 262h-8l-553 -1311h-125v1462z"/>
<glyph glyph-name="uni04E3" horiz-adv-x="883" unicode="ӣ" d="M208 1333h452v-82h-452v82zM240 1085v-733l-7 -205l385 938h119v-1085h-94v702l4 236l-385 -938h-117v1085h95z"/>
<glyph glyph-name="uni04E4" horiz-adv-x="1090" unicode="Ӥ" d="M640 1727q0 42 20 62q19 19 42 19q25 0 44 -19t19 -62q0 -45 -19 -64q-20 -20 -44 -20q-22 0 -42 20t-20 64zM335 1727q0 43 19 62t45 19q23 0 42 -19t19 -62q0 -45 -19 -64q-20 -20 -42 -20q-25 0 -45 20q-19 19 -19 64zM160 1462h96v-1022v-68q0 -14 -10 -206h8 l549 1296h127v-1462h-96v1049q0 125 12 262h-8l-553 -1311h-125v1462z"/>
<glyph glyph-name="uni04E5" horiz-adv-x="883" unicode="ӥ" d="M537 1389q0 43 19 62t43 19q25 0 44 -19t19 -62q0 -45 -19 -64q-20 -20 -44 -20q-23 0 -43 20q-19 19 -19 64zM232 1389q0 42 20 62q19 19 44 19q23 0 42 -19t19 -62q0 -45 -19 -64q-20 -20 -42 -20q-24 0 -44 20t-20 64zM240 1085v-733l-7 -205l385 938h119v-1085h-94 v702l4 236l-385 -938h-117v1085h95z"/>
<glyph glyph-name="uni04E6" horiz-adv-x="1065" unicode="Ӧ" d="M636 1727q0 42 20 62q19 19 42 19q25 0 44 -19t19 -62q0 -45 -19 -64q-20 -20 -44 -20q-22 0 -42 20t-20 64zM331 1727q0 43 19 62t45 19q23 0 42 -19t19 -62q0 -45 -19 -64q-20 -20 -42 -20q-25 0 -45 20q-19 19 -19 64zM213 733q0 -325 81 -492t238 -167t238 165 q82 167 82 494q0 325 -80 491q-80 165 -237 165q-160 0 -241 -167q-81 -168 -81 -489zM954 733q0 -363 -108 -558t-314 -195q-207 0 -314 197t-107 558q0 379 106 563q107 185 318 185q204 0 311 -194q108 -195 108 -556z"/>
<glyph glyph-name="uni04E7" horiz-adv-x="850" unicode="ӧ" d="M515 1389q0 43 19 62t43 19q25 0 44 -19t19 -62q0 -45 -19 -64q-20 -20 -44 -20q-23 0 -43 20q-19 19 -19 64zM210 1389q0 42 20 62q19 19 44 19q23 0 42 -19t19 -62q0 -45 -19 -64q-20 -20 -42 -20q-24 0 -44 20t-20 64zM193 545q0 -234 56 -355q55 -120 175 -120 q233 0 233 475q0 471 -233 471q-122 0 -176 -118q-55 -121 -55 -353zM756 545q0 -275 -86 -419q-87 -146 -248 -146q-160 0 -244 146t-84 419q0 561 332 561q156 0 243 -147t87 -414z"/>
<glyph glyph-name="uni04E8" horiz-adv-x="1065" unicode="Ө" d="M535 1389q-305 0 -322 -596h637q-6 295 -86 446q-80 150 -229 150zM532 74q154 0 235 158q80 157 85 466h-639q1 -299 83 -462q81 -162 236 -162zM954 733q0 -363 -108 -558t-314 -195q-207 0 -314 197t-107 558q0 379 106 563q107 185 318 185q204 0 311 -194 q108 -195 108 -556z"/>
<glyph glyph-name="uni04E9" horiz-adv-x="852" unicode="ө" d="M424 1016q-113 0 -169 -102q-54 -100 -62 -304h462q-16 406 -231 406zM424 66q227 0 233 458h-464q2 -458 231 -458zM756 545q0 -275 -86 -419q-87 -146 -248 -146q-160 0 -244 146t-84 419q0 561 332 561q156 0 243 -147t87 -414z"/>
<glyph glyph-name="uni04EA" horiz-adv-x="1065" unicode="Ӫ" d="M634 1727q0 43 19 62t43 19q25 0 44 -19t19 -62q0 -45 -19 -64q-20 -20 -44 -20q-23 0 -43 20q-19 19 -19 64zM329 1727q0 43 19 62t45 19q23 0 42 -19t19 -62q0 -45 -19 -64q-20 -20 -42 -20q-25 0 -45 20q-19 19 -19 64zM535 1389q-305 0 -322 -596h637q-6 295 -86 446 q-80 150 -229 150zM532 74q154 0 235 158q80 157 85 466h-639q1 -299 83 -462q81 -162 236 -162zM954 733q0 -363 -108 -558t-314 -195q-207 0 -314 197t-107 558q0 379 106 563q107 185 318 185q204 0 311 -194q108 -195 108 -556z"/>
<glyph glyph-name="uni04EB" horiz-adv-x="852" unicode="ӫ" d="M517 1389q0 42 20 62q19 19 42 19q25 0 44 -19t19 -62q0 -45 -19 -64q-20 -20 -44 -20q-22 0 -42 20t-20 64zM212 1389q0 42 20 62q19 19 44 19q23 0 42 -19t19 -62q0 -45 -19 -64q-20 -20 -42 -20q-24 0 -44 20t-20 64zM424 1016q-113 0 -169 -102q-54 -100 -62 -304 h462q-16 406 -231 406zM424 66q227 0 233 458h-464q2 -458 231 -458zM756 545q0 -275 -86 -419q-87 -146 -248 -146q-160 0 -244 146t-84 419q0 561 332 561q156 0 243 -147t87 -414z"/>
<glyph glyph-name="uni04EC" horiz-adv-x="860" unicode="Ӭ" d="M412 1727q0 43 19 62t43 19q25 0 44 -19t19 -62q0 -45 -19 -64q-20 -20 -44 -20q-23 0 -43 20q-19 19 -19 64zM107 1727q0 43 19 62t45 19q23 0 42 -19t19 -62q0 -45 -19 -64q-20 -20 -42 -20q-25 0 -45 20q-19 19 -19 64zM283 1485q141 0 247 -91t163 -263 q57 -171 57 -402q0 -346 -125 -548q-125 -201 -340 -201q-58 0 -116 11q-54 10 -87 29v95q85 -41 205 -41q165 0 260 170t100 475h-461v94h459q-13 269 -111 425q-96 153 -251 153q-103 0 -187 -54l-45 84q103 64 232 64z"/>
<glyph glyph-name="uni04ED" horiz-adv-x="682" unicode="ӭ" d="M398 1389q0 42 20 62q19 19 42 19q25 0 44 -19t19 -62q0 -45 -19 -64q-20 -20 -44 -20q-22 0 -42 20t-20 64zM93 1389q0 42 20 62q19 19 44 19q23 0 42 -19t19 -62q0 -45 -19 -64q-20 -20 -42 -20q-24 0 -44 20t-20 64zM225 -20q-48 0 -94 10t-80 28v91q85 -39 168 -39 q131 0 197 108q66 109 71 346h-294v86h292q-16 406 -252 406q-32 0 -71 -12q-41 -13 -58 -23l-36 86q81 39 176 39q167 0 254 -141q88 -143 88 -416q0 -281 -90 -425t-271 -144z"/>
<glyph glyph-name="uni04EE" horiz-adv-x="686" unicode="Ӯ" d="M130 1671h452v-82h-452v82zM313 428l-313 1034h102l222 -749q15 -57 34 -144h9q12 89 28 144l189 749h102l-326 -1220q-38 -141 -92 -201q-55 -61 -143 -61q-46 0 -88 20v92q43 -18 86 -18q50 0 84 44q35 45 63 148z"/>
<glyph glyph-name="uni04EF" horiz-adv-x="653" unicode="ӯ" d="M93 1333h452v-82h-452v82zM281 2l-271 1083h96l164 -677q30 -129 56 -275h8q21 143 53 277l160 675h96l-317 -1290q-35 -144 -91 -215q-57 -72 -151 -72q-37 0 -86 17v86q42 -14 78 -14q60 0 95 51q35 52 62 166z"/>
<glyph glyph-name="uni04F0" horiz-adv-x="686" unicode="Ӱ" d="M429 1727q0 42 20 62q19 19 42 19q25 0 44 -19t19 -62q0 -45 -19 -64q-20 -20 -44 -20q-22 0 -42 20t-20 64zM124 1727q0 42 20 62q19 19 44 19q23 0 42 -19t19 -62q0 -45 -19 -64q-20 -20 -42 -20q-24 0 -44 20t-20 64zM313 428l-313 1034h102l222 -749q15 -57 34 -144 h9q12 89 28 144l189 749h102l-326 -1220q-38 -141 -92 -201q-55 -61 -143 -61q-46 0 -88 20v92q43 -18 86 -18q50 0 84 44q35 45 63 148z"/>
<glyph glyph-name="uni04F1" horiz-adv-x="653" unicode="ӱ" d="M423 1389q0 43 19 62t43 19q25 0 44 -19t19 -62q0 -45 -19 -64q-20 -20 -44 -20q-23 0 -43 20q-19 19 -19 64zM118 1389q0 42 20 62q19 19 44 19q23 0 42 -19t19 -62q0 -45 -19 -64q-20 -20 -42 -20q-24 0 -44 20t-20 64zM281 2l-271 1083h96l164 -677q30 -129 56 -275h8 q21 143 53 277l160 675h96l-317 -1290q-35 -144 -91 -215q-57 -72 -151 -72q-37 0 -86 17v86q42 -14 78 -14q60 0 95 51q35 52 62 166z"/>
<glyph glyph-name="uni04F2" horiz-adv-x="686" unicode="Ӳ" d="M404 1579v21q42 55 93 150q51 96 77 157h119v-17q-37 -72 -109 -164q-73 -93 -133 -147h-47zM138 1579v21q44 57 93 149q49 93 77 158h119v-17q-41 -72 -110 -165q-65 -87 -132 -146h-47zM313 428l-313 1034h102l222 -749q15 -57 34 -144h9q12 89 28 144l189 749h102 l-326 -1220q-38 -141 -92 -201q-55 -61 -143 -61q-46 0 -88 20v92q43 -18 86 -18q50 0 84 44q35 45 63 148z"/>
<glyph glyph-name="uni04F3" horiz-adv-x="653" unicode="ӳ" d="M361 1241v21q42 55 93 150q51 96 77 157h119v-17q-37 -72 -109 -164q-73 -93 -133 -147h-47zM95 1241v21q42 55 93 150q51 96 77 157h119v-17q-38 -68 -110 -164q-68 -90 -132 -147h-47zM281 2l-271 1083h96l164 -677q30 -129 56 -275h8q21 143 53 277l160 675h96 l-317 -1290q-35 -144 -91 -215q-57 -72 -151 -72q-37 0 -86 17v86q42 -14 78 -14q60 0 95 51q35 52 62 166z"/>
</font>
</defs>
</svg>
